<?xml version="1.0" encoding="utf-8"?>
<!-- Generator: Adobe Illustrator 19.2.1, SVG Export Plug-In . SVG Version: 6.00 Build 0)  -->
<svg version="1.1" id="图层_1" xmlns="http://www.w3.org/2000/svg" xmlns:xlink="http://www.w3.org/1999/xlink" x="0px" y="0px"
	 viewBox="0 0 16 16" style="enable-background:new 0 0 16 16;" xml:space="preserve">
<style type="text/css">
	.st0{fill:#FFFFFF;}
</style>
<path class="st0" d="M10.1,9.4c1.2-0.7,2.1-2.1,2.1-3.6c0-0.3-0.1-0.5-0.4-0.6l0.6-3c0-0.2,0-0.4-0.2-0.5c-0.2-0.1-0.4-0.1-0.5,0
	L9.5,3L8.9,0.8C8.8,0.6,8.7,0.5,8.5,0.5C8.3,0.4,8.1,0.5,8,0.7L6.6,3l-2-1.9C4.5,0.9,4.3,0.9,4.1,1C3.9,1.1,3.8,1.3,3.8,1.5l0.4,3.7
	c0,0,0,0,0,0C4,5.5,3.9,5.7,3.9,5.8C3.8,6.9,4.2,7.9,5,8.8C5.3,9,5.6,9.3,5.9,9.4C3.7,10.3,2,12.5,2,15.1v0.5h12v-0.5
	C14,12.5,12.4,10.3,10.1,9.4z M6.4,4.1c0.1,0.1,0.3,0.2,0.4,0.1C6.9,4.2,7,4.1,7.1,4l1.1-1.8l0.5,1.7C8.8,4,8.9,4.2,9,4.2
	c0.1,0.1,0.3,0,0.4,0l1.7-1l-0.4,1.9c-0.1,0-0.2,0-0.3,0c-0.6,0-1.3-0.1-2-0.3C7.4,4.5,6.1,4.6,5.2,4.8L5,2.8L6.4,4.1z M5.7,8.1
	C5.2,7.5,4.9,6.8,4.9,6c0.4-0.3,2-0.6,3.4-0.2C9.1,5.9,9.9,6,10.5,6c0.2,0,0.5,0,0.7,0.1C11.1,7.7,9.6,9.1,8,9.1
	C7.2,9.1,6.3,8.7,5.7,8.1z M3,14.6c0.3-2.5,2.4-4.5,5-4.5c2.6,0,4.7,2,5,4.5H3z"/>
</svg>
