<?xml version="1.0" encoding="UTF-8" standalone="no"?>
<svg width="63px" height="63px" viewBox="0 0 63 63" version="1.1" xmlns="http://www.w3.org/2000/svg" xmlns:xlink="http://www.w3.org/1999/xlink">
    <!-- Generator: Sketch 41.2 (35397) - http://www.bohemiancoding.com/sketch -->
    <title>add_r</title>
    <desc>Created with Sketch.</desc>
    <defs></defs>
    <g id="建站管理流程及组件优化" stroke="none" stroke-width="1" fill="none" fill-rule="evenodd">
        <g id="模版优化" transform="translate(-119.000000, -351.000000)" fill="#999999">
            <g id="add_r" transform="translate(119.000000, 351.000000)">
                <polygon id="Page-1" points="29.925 13.3875 29.925 29.925 13.3875 29.925 13.3875 33.075 29.925 33.075 29.925 49.6125 33.0757875 49.6125 33.0757875 33.075 49.6125 33.075 49.6125 29.925 33.0757875 29.925 33.0757875 13.3875"></polygon>
                <path d="M31.5,61 C47.7924001,61 61,47.7924001 61,31.5 C61,15.2075999 47.7924001,2 31.5,2 C15.2075999,2 2,15.2075999 2,31.5 C2,47.7924001 15.2075999,61 31.5,61 Z M31.5,63 C14.1030304,63 0,48.8969696 0,31.5 C0,14.1030304 14.1030304,0 31.5,0 C48.8969696,0 63,14.1030304 63,31.5 C63,48.8969696 48.8969696,63 31.5,63 Z" id="Oval"></path>
            </g>
        </g>
    </g>
</svg>