<svg id="Layer_1" data-name="Layer 1" xmlns="http://www.w3.org/2000/svg" viewBox="0 0 47.5 47.44"><defs><style>.cls-1{fill-rule:evenodd;}</style></defs><title>手机</title><path class="cls-1" d="M42.81,22.32H29.55a3.78,3.78,0,0,1-3.78-3.78V6a3.78,3.78,0,0,1,3.78-3.78H42.81A3.78,3.78,0,0,1,46.59,6V18.54a3.78,3.78,0,0,1-3.78,3.78ZM29.56,4.75A1.26,1.26,0,0,0,28.3,6V18.54a1.26,1.26,0,0,0,1.26,1.26H42.83a1.26,1.26,0,0,0,1.26-1.26V6a1.26,1.26,0,0,0-1.26-1.26ZM18.33,22.32H5.06a3.78,3.78,0,0,1-3.78-3.78V6A3.78,3.78,0,0,1,5.06,2.23H18.33A3.78,3.78,0,0,1,22.11,6V18.54a3.78,3.78,0,0,1-3.78,3.78ZM5.07,4.75A1.26,1.26,0,0,0,3.81,6V18.54A1.26,1.26,0,0,0,5.07,19.8H18.34a1.26,1.26,0,0,0,1.26-1.26V6a1.26,1.26,0,0,0-1.26-1.26Zm37.74,41H29.55A3.78,3.78,0,0,1,25.77,42V29.44a3.78,3.78,0,0,1,3.78-3.78H42.81a3.78,3.78,0,0,1,3.78,3.78V42a3.78,3.78,0,0,1-3.78,3.78ZM29.56,28.18a1.26,1.26,0,0,0-1.26,1.26V42a1.26,1.26,0,0,0,1.26,1.26H42.83A1.26,1.26,0,0,0,44.09,42V29.44a1.26,1.26,0,0,0-1.26-1.26ZM18.33,45.75H5.06A3.78,3.78,0,0,1,1.28,42V29.44a3.78,3.78,0,0,1,3.78-3.78H18.33a3.78,3.78,0,0,1,3.78,3.78V42a3.78,3.78,0,0,1-3.78,3.78ZM5.07,28.18a1.26,1.26,0,0,0-1.26,1.26V42a1.26,1.26,0,0,0,1.26,1.26H18.34A1.26,1.26,0,0,0,19.6,42V29.44a1.26,1.26,0,0,0-1.26-1.26Z"/></svg>