<svg id="Layer_1" data-name="Layer 1" xmlns="http://www.w3.org/2000/svg" viewBox="0 0 38 59"><defs><style>.cls-1{fill-rule:evenodd;}</style></defs><title>手机</title><path class="cls-1" d="M32.9,9.35H5.15V6.05a.7.7,0,0,1,.7-.7H32.2a.7.7,0,0,1,.7.7v3.3h0M32.9,43H5.15V11.33H32.9V43h0m0,11.18a.7.7,0,0,1-.7.7H5.85a.7.7,0,0,1-.7-.7V45H32.9v9.2h0M32.2,3.37H5.85A2.69,2.69,0,0,0,3.16,6.05V54.19a2.68,2.68,0,0,0,2.68,2.68H32.2a2.68,2.68,0,0,0,2.68-2.68V6.05A2.69,2.69,0,0,0,32.2,3.37h0M16.05,48.94H22v2H16.05v-2h0m0,0Z"/></svg>