<?xml version="1.0" encoding="UTF-8" standalone="no"?>
<svg width="18px" height="18px" viewBox="0 0 18 18" version="1.1" xmlns="http://www.w3.org/2000/svg" xmlns:xlink="http://www.w3.org/1999/xlink">
    <!-- Generator: Sketch 40.3 (33839) - http://www.bohemiancoding.com/sketch -->
    <title>web_check_frame</title>
    <desc>Created with Sketch.</desc>
    <defs></defs>
    <g id="方案1" stroke="none" stroke-width="1" fill="none" fill-rule="evenodd">
        <path d="M2,16.0049107 C2,16.0025029 16.0049107,16 16.0049107,16 C16.0025029,16 16,1.99508929 16,1.99508929 C16,1.9974971 1.99508929,2 1.99508929,2 C1.9974971,2 2,16.0049107 2,16.0049107 Z M1.99508929,0 L16.0049107,0 C17.1067681,0 18,0.892622799 18,1.99508929 L18,16.0049107 C18,17.1067681 17.1073772,18 16.0049107,18 L1.99508929,18 C0.893231902,18 0,17.1073772 0,16.0049107 L0,1.99508929 C0,0.893231902 0.892622799,0 1.99508929,0 Z" id="web_check_frame" fill="#E8E8E8"></path>
    </g>
</svg>