<?xml version="1.0" encoding="utf-8"?>
<!-- Generator: Adobe Illustrator 20.1.0, SVG Export Plug-In . SVG Version: 6.00 Build 0)  -->
<svg version="1.1" id="图层_1" xmlns="http://www.w3.org/2000/svg" xmlns:xlink="http://www.w3.org/1999/xlink" x="0px" y="0px"
	 viewBox="0 0 23 23" style="enable-background:new 0 0 23 23;" xml:space="preserve">
<style type="text/css">
	.st0{fill:#F85959;}
</style>
<path class="st0" d="M21.4,9.8C21.3,4.4,16.9,0,11.4,0C6,0,1.6,4.4,1.5,9.8C0.6,10.5,0,11.7,0,12.9c0,2.2,1.8,4,4,4
	c1,0,1.8-0.3,2.5-0.9L4.6,9C4.4,9,4.2,8.9,4,8.9c-0.1,0-0.3,0-0.4,0C4,5,7.4,2,11.4,2c4.1,0,7.4,3,7.9,7c-0.1,0-0.3,0-0.4,0
	c-0.2,0-0.4,0-0.7,0.1l-1.9,7c0.5,0.4,1.2,0.7,1.9,0.9c-0.9,1-1.5,1.6-2.8,2.1l-0.8,0.3c-0.4-0.8-1.2-1.3-2.2-1.3
	c-1.4,0-2.5,1.1-2.5,2.5c0,1.4,1.1,2.5,2.5,2.5c1.1,0,2.1-0.8,2.4-1.8c2.7-0.7,5-2.5,6.4-4.9c1-0.7,1.7-1.9,1.7-3.3
	C22.9,11.7,22.3,10.5,21.4,9.8z"/>
</svg>
