<?xml version="1.0" encoding="utf-8"?>
<!-- Generator: Adobe Illustrator 20.1.0, SVG Export Plug-In . SVG Version: 6.00 Build 0)  -->
<svg version="1.1" id="Layer_1" xmlns="http://www.w3.org/2000/svg" xmlns:xlink="http://www.w3.org/1999/xlink" x="0px" y="0px"
	 viewBox="0 0 14 14" style="enable-background:new 0 0 14 14;" xml:space="preserve">
<style type="text/css">
	.st0{fill:#406599;}
</style>
<g>
	<g>
		<path class="st0" d="M9,13.7c-0.2,0-0.3-0.1-0.3-0.3v-3.3C8.8,10,8.9,9.9,9,9.9h3.3c0.2,0,0.3,0.1,0.3,0.3c0,0.2-0.1,0.3-0.3,0.3
			h-3v3C9.3,13.6,9.2,13.7,9,13.7L9,13.7z"/>
	</g>
	<g>
		<path class="st0" d="M9,14H3.4c-0.3,0-0.5-0.2-0.5-0.5V2.2c0-0.3,0.2-0.5,0.5-0.5h9c0.3,0,0.5,0.2,0.5,0.5v8
			c0,0.1-0.1,0.3-0.2,0.4l-3.3,3.3C9.3,13.9,9.2,14,9,14L9,14z M3.9,12.9h4.9l3-3V2.7H3.9V12.9L3.9,12.9z"/>
	</g>
	<g>
		<path class="st0" d="M8.4,4.5H5.2c-0.2,0-0.3-0.1-0.3-0.3S5.1,4,5.2,4h3.2c0.2,0,0.3,0.1,0.3,0.3S8.6,4.5,8.4,4.5L8.4,4.5z"/>
	</g>
	<g>
		<path class="st0" d="M10.6,5.9H5.2c-0.2,0-0.3-0.1-0.3-0.3c0-0.2,0.1-0.3,0.3-0.3h5.3c0.2,0,0.3,0.1,0.3,0.3
			C10.8,5.7,10.7,5.9,10.6,5.9L10.6,5.9z"/>
	</g>
	<g>
		<path class="st0" d="M10.6,7.2H5.2c-0.2,0-0.3-0.1-0.3-0.3c0-0.2,0.1-0.3,0.3-0.3h5.3c0.2,0,0.3,0.1,0.3,0.3
			C10.8,7.1,10.7,7.2,10.6,7.2L10.6,7.2z"/>
	</g>
	<g>
		<path class="st0" d="M7.5,8.5H5.2c-0.2,0-0.3-0.1-0.3-0.3C4.9,8.1,5.1,8,5.2,8h2.2c0.2,0,0.3,0.1,0.3,0.3C7.7,8.4,7.6,8.5,7.5,8.5
			L7.5,8.5z"/>
	</g>
	<g>
		<path class="st0" d="M6.8,2.6H3.6c-0.2,0-0.3-0.1-0.3-0.3c0-0.2,0.1-0.3,0.3-0.3h3.2c0.2,0,0.3,0.1,0.3,0.3
			C7.1,2.5,6.9,2.6,6.8,2.6L6.8,2.6z"/>
	</g>
	<g>
		<path class="st0" d="M1.8,12.7c-0.3,0-0.5-0.2-0.5-0.5v-11C1.3,0.5,1.8,0,2.4,0h8.4c0.3,0,0.5,0.2,0.5,0.5c0,0.3-0.2,0.5-0.5,0.5
			H2.4v11C2.4,12.5,2.1,12.7,1.8,12.7L1.8,12.7z"/>
	</g>
</g>
</svg>
