<?xml version="1.0" encoding="utf-8"?>
<!-- Generator: Adobe Illustrator 19.2.1, SVG Export Plug-In . SVG Version: 6.00 Build 0)  -->
<svg version="1.1" id="图层_1" xmlns="http://www.w3.org/2000/svg" xmlns:xlink="http://www.w3.org/1999/xlink" x="0px" y="0px"
	 viewBox="0 0 16 16" style="enable-background:new 0 0 16 16;" xml:space="preserve">
<style type="text/css">
	.st0{fill:#FFFFFF;}
</style>
<title>web_copy</title>
<desc>Created with Sketch.</desc>
<g id="方案1">
	<g id="页面" transform="translate(-216.000000, -709.000000)">
		<g id="web_copy-copy" transform="translate(216.000000, 709.000000)">
			<path id="Rectangle-33" class="st0" d="M2.5,4c0-0.8,0.7-1.5,1.5-1.5h7c0.3,0,0.5-0.2,0.5-0.5S11.3,1.5,11,1.5H4
				C2.6,1.5,1.5,2.6,1.5,4v7c0,0.3,0.2,0.5,0.5,0.5s0.5-0.2,0.5-0.5V4z"/>
			<path id="Combined-Shape" class="st0" d="M5,13c0,0.5,0.4,1,1,1h7c0.5,0,1-0.4,1-1V6c0-0.5-0.4-1-1-1H6C5.4,5,5,5.4,5,6V13z
				 M9,10H6.5C6.2,10,6,9.8,6,9.5S6.2,9,6.5,9H9V6.5C9,6.2,9.2,6,9.5,6S10,6.2,10,6.5V9h2.5C12.8,9,13,9.2,13,9.5S12.8,10,12.5,10
				H10v2.5c0,0.3-0.2,0.5-0.5,0.5S9,12.8,9,12.5V10z M6,4h7c1.1,0,2,0.9,2,2v7c0,1.1-0.9,2-2,2H6c-1.1,0-2-0.9-2-2V6
				C4,4.9,4.9,4,6,4z"/>
		</g>
	</g>
</g>
</svg>
