<?xml version="1.0" encoding="UTF-8" standalone="no"?>
<svg width="14px" height="14px" viewBox="0 0 14 14" version="1.1" xmlns="http://www.w3.org/2000/svg" xmlns:xlink="http://www.w3.org/1999/xlink">
    <!-- Generator: Sketch 43.2 (39069) - http://www.bohemiancoding.com/sketch -->
    <desc>Created with Sketch.</desc>
    <defs></defs>
    <g id="Page-1" stroke="none" stroke-width="1" fill="none" fill-rule="evenodd">
        <g id="裁剪(1)" fill-rule="nonzero" fill="#EEEEEE">
            <path d="M13.3846822,10.4421746 L11.6674281,10.4426397 L11.6674281,3.59607009 C11.6674281,2.90206382 11.1041013,2.33946869 10.4091926,2.33946869 L9.98475075,2.33946869 C9.97226882,2.33870585 9.95971235,2.33820351 9.94702549,2.33820351 L5.28615718,2.33946869 L3.68055115,2.33946869 L3.68055115,2.33989662 L3.56705865,2.33993384 L3.56705865,1.12785555 L3.56467405,1.12785555 L3.56452502,0.613337182 C3.5644505,0.276408964 3.29090971,0.00331645455 2.95352473,0.00337227273 C2.61615837,0.00344669091 2.34271074,0.276632236 2.34276663,0.613579055 L2.34291566,1.12785555 L2.34276663,1.12785555 L2.34276663,2.34026873 L0.625270257,2.34073387 C0.287903901,2.34080829 0.0144562653,2.61399384 0.014512156,2.95094065 C0.014586671,3.28786887 0.288127464,3.56096138 0.625512445,3.56090556 L2.34276663,3.56044042 L2.34276659,10.4069915 C2.34276659,11.1009977 2.90609333,11.6635929 3.60100206,11.6635929 L4.02544392,11.6635929 C4.03792586,11.6643557 4.05048233,11.6648581 4.06316919,11.6648581 L8.7240375,11.6635929 L10.3296435,11.6635929 L10.3296435,11.6631649 L10.443136,11.6631277 L10.443136,12.875206 L10.4455206,12.875206 L10.4456697,13.3897244 C10.4457442,13.7266526 10.719285,13.9997451 11.0566699,13.9996893 C11.3940363,13.9996149 11.6674839,13.7264293 11.667428,13.3894825 L11.667279,12.875206 L11.667428,12.875206 L11.667428,11.6627928 L13.3849244,11.6623277 C13.7222908,11.6622533 13.9957384,11.3890677 13.9956825,11.0521209 C13.9956267,10.7151927 13.7220672,10.4421188 13.3846822,10.4421746 Z M8.72172741,10.4434398 L4.21658528,10.4434398 C3.88734151,10.4434398 3.56707728,10.1210611 3.56707728,9.79224493 L3.56707728,3.56008691 L5.28850451,3.55962176 L9.79364664,3.55962176 C10.1228904,3.55962176 10.4431546,3.88200042 10.4431546,4.21081662 L10.4431546,10.4429746 L8.72172741,10.4434398 Z" id="Shape"></path>
        </g>
    </g>
</svg>