<?xml version="1.0" encoding="UTF-8" standalone="no"?>
<svg width="12px" height="12px" viewBox="0 0 12 12" version="1.1" xmlns="http://www.w3.org/2000/svg" xmlns:xlink="http://www.w3.org/1999/xlink">
    <!-- Generator: Sketch 40.3 (33839) - http://www.bohemiancoding.com/sketch -->
    <title>web_delete_blue</title>
    <desc>Created with Sketch.</desc>
    <defs></defs>
    <g id="方案1" stroke="none" stroke-width="1" fill="none" fill-rule="evenodd">
        <path d="M6.28459754,6.93838059 L4.00603385,9.21694429 C3.8107717,9.41220644 3.49418921,9.41220644 3.29892707,9.21694429 C3.10366492,9.02168214 3.10366492,8.70509965 3.29892707,8.50983751 L5.57749076,6.23127381 L3.29892707,3.95271012 C3.10366492,3.75744797 3.10366492,3.44086548 3.29892707,3.24560333 C3.49418921,3.05034119 3.8107717,3.05034119 4.00603385,3.24560333 L6.28459754,5.52416703 L8.56316124,3.24560333 C8.75842339,3.05034119 9.07500588,3.05034119 9.27026802,3.24560333 C9.46553017,3.44086548 9.46553017,3.75744797 9.27026802,3.95271012 L6.99170432,6.23127381 L9.27026802,8.50983751 C9.46553017,8.70509965 9.46553017,9.02168214 9.27026802,9.21694429 C9.07500588,9.41220644 8.75842339,9.41220644 8.56316124,9.21694429 L6.28459754,6.93838059 Z" id="web_delete_blue" fill="#60A3F5"></path>
    </g>
</svg>