<svg xmlns="http://www.w3.org/2000/svg" width="14" height="13" viewBox="0 0 14 13">
  <defs>
    <style>
      .cls-1 {
        fill: #898989;
        fill-rule: evenodd;
      }
    </style>
  </defs>
  <path id="article_ic_delete_normal_拷贝_7" data-name="article_ic_delete_normal 拷贝 7" class="cls-1" d="M1140,638h-2v-1a1.171,1.171,0,0,0-1.15-1h-5.7a1.171,1.171,0,0,0-1.15,1v1h-2c-0.38,0-1-.164-1,0.25a0.723,0.723,0,0,0,.69.75H1129v9a0.908,0.908,0,0,0,.85,1h8.3a0.908,0.908,0,0,0,.85-1v-9h1.31a0.723,0.723,0,0,0,.69-0.75C1141,637.836,1140.38,638,1140,638Zm-9-1h6v1h-6v-1Zm7,11h-8v-9h8v9Zm-5.5-8a0.5,0.5,0,0,1,.5.5v6a0.5,0.5,0,0,1-1,0v-6A0.5,0.5,0,0,1,1132.5,640Zm3,0a0.5,0.5,0,0,1,.5.5v6a0.5,0.5,0,0,1-1,0v-6A0.5,0.5,0,0,1,1135.5,640Z" transform="translate(-1127 -636)"/>
</svg>
