<?xml version="1.0" encoding="UTF-8" standalone="no"?>
<svg width="15px" height="14px" viewBox="0 0 15 14" version="1.1" xmlns="http://www.w3.org/2000/svg" xmlns:xlink="http://www.w3.org/1999/xlink">
    <!-- Generator: Sketch 41.2 (35397) - http://www.bohemiancoding.com/sketch -->
    <title>ic_select_no</title>
    <desc>Created with Sketch.</desc>
    <defs></defs>
    <g id="添加图片_陈旭" stroke="none" stroke-width="1" fill="none" fill-rule="evenodd">
        <g id="3、图片_我的图片_管理" transform="translate(-804.000000, -276.000000)" fill="#979797">
            <g id="ic_select" transform="translate(804.000000, 275.500000)">
                <path d="M3.5,1.9955775 C3.5,1.72149742 3.72135938,1.5 3.9955775,1.5 L13.0044225,1.5 C13.2785026,1.5 13.5,1.72135938 13.5,1.9955775 L13.5,11.0044225 C13.5,11.2785026 13.2786406,11.5 13.0044225,11.5 L3.9955775,11.5 C3.72149742,11.5 3.5,11.2786406 3.5,11.0044225 L3.5,1.9955775 Z M2.5,1.9955775 L2.5,11.0044225 C2.5,11.831065 3.16935218,12.5 3.9955775,12.5 L13.0044225,12.5 C13.831065,12.5 14.5,11.8306478 14.5,11.0044225 L14.5,1.9955775 C14.5,1.16893503 13.8306478,0.5 13.0044225,0.5 L3.9955775,0.5 C3.16893503,0.5 2.5,1.16935218 2.5,1.9955775 Z" id="Rectangle"></path>
                <path d="M11.0044225,13.5 L1.9955775,13.5 C1.72149742,13.5 1.5,13.2786406 1.5,13.0044225 L1.5,3.9955775 C1.5,3.71943512 1.27614237,3.4955775 1,3.4955775 C0.723857625,3.4955775 0.5,3.71943512 0.5,3.9955775 L0.5,13.0044225 C0.5,13.831065 1.16935218,14.5 1.9955775,14.5 L11.0044225,14.5 C11.2805649,14.5 11.5044225,14.2761424 11.5044225,14 C11.5044225,13.7238576 11.2805649,13.5 11.0044225,13.5 Z" id="Rectangle"></path>
            </g>
        </g>
    </g>
</svg>