<?xml version="1.0" encoding="UTF-8" standalone="no"?>
<svg width="16px" height="16px" viewBox="0 0 16 16" version="1.1" xmlns="http://www.w3.org/2000/svg" xmlns:xlink="http://www.w3.org/1999/xlink">
    <!-- Generator: Sketch 40.3 (33839) - http://www.bohemiancoding.com/sketch -->
    <title>web_drag</title>
    <desc>Created with Sketch.</desc>
    <defs></defs>
    <g id="方案1" stroke="none" stroke-width="1" fill="none" fill-rule="evenodd">
        <g id="组图_内容" transform="translate(-1192.000000, -246.000000)" fill="#60A3F5">
            <g id="web_drag" transform="translate(1192.000000, 246.000000)">
                <path d="M8,16 C12.418278,16 16,12.418278 16,8 C16,3.581722 12.418278,0 8,0 C3.581722,0 0,3.581722 0,8 C0,12.418278 3.581722,16 8,16 Z M3,5.5 C3,5.22385763 3.22765279,5 3.50964952,5 L12.4903505,5 C12.7718221,5 13,5.23193359 13,5.5 C13,5.77614237 12.7723472,6 12.4903505,6 L3.50964952,6 C3.22817786,6 3,5.76806641 3,5.5 Z M3,8.5 C3,8.22385763 3.22765279,8 3.50964952,8 L12.4903505,8 C12.7718221,8 13,8.23193359 13,8.5 C13,8.77614237 12.7723472,9 12.4903505,9 L3.50964952,9 C3.22817786,9 3,8.76806641 3,8.5 Z M9,4.5 C9,4.77614237 8.78596497,5 8.49531555,5 L7.50468445,5 C7.22595492,5 7,4.76806641 7,4.5 C7,4.22385763 7.21403503,4 7.50468445,4 L8.49531555,4 C8.77404508,4 9,4.23193359 9,4.5 Z M13,11.5 C13,11.2238576 12.7723472,11 12.4903505,11 L3.50964952,11 C3.22817786,11 3,11.2319336 3,11.5 C3,11.7761424 3.22765279,12 3.50964952,12 L12.4903505,12 C12.7718221,12 13,11.7680664 13,11.5 Z M9,12.5 C9,12.2238576 8.78596497,12 8.49531555,12 L7.50468445,12 C7.22595492,12 7,12.2319336 7,12.5 C7,12.7761424 7.21403503,13 7.50468445,13 L8.49531555,13 C8.77404508,13 9,12.7680664 9,12.5 Z" id="Combined-Shape"></path>
            </g>
        </g>
    </g>
</svg>