<?xml version="1.0" encoding="utf-8"?>
<!-- Generator: Adobe Illustrator 20.1.0, SVG Export Plug-In . SVG Version: 6.00 Build 0)  -->
<svg version="1.1" id="图层_1" xmlns="http://www.w3.org/2000/svg" xmlns:xlink="http://www.w3.org/1999/xlink" x="0px" y="0px"
	 viewBox="0 0 16 16" style="enable-background:new 0 0 16 16;" xml:space="preserve">
<style type="text/css">
	.st0{fill:#040000;}
</style>
<g>
	<path class="st0" d="M9.6,3.4c0.6,0,1-0.4,1-1s-0.4-1-1-1H2.3c-0.6,0-1,0.4-1,1s0.4,1,1,1H5v10.7c0,0.6,0.4,1,1,1c0.6,0,1-0.4,1-1
		V3.4H9.6z"/>
	<path class="st0" d="M14,6.1H9.6c-0.6,0-1,0.4-1,1s0.4,1,1,1h1.2v6c0,0.6,0.4,1,1,1s1-0.4,1-1v-6H14c0.6,0,1-0.4,1-1
		S14.6,6.1,14,6.1z"/>
</g>
</svg>
