<?xml version="1.0" encoding="utf-8"?>
<!-- Generator: Adobe Illustrator 20.1.0, SVG Export Plug-In . SVG Version: 6.00 Build 0)  -->
<svg version="1.1" id="图层_1" xmlns="http://www.w3.org/2000/svg" xmlns:xlink="http://www.w3.org/1999/xlink" x="0px" y="0px"
	 viewBox="0 0 16 16" style="enable-background:new 0 0 16 16;" xml:space="preserve">
<style type="text/css">
	.st0{fill:#040000;}
</style>
<path class="st0" d="M12.9,4.3H8.1c-1.3,0-2.4,1.3-2.4,2.8v1.5c0,0.6,0.4,1,1,1s1-0.4,1-1V7.1c0-0.5,0.3-0.8,0.4-0.8h4.8
	c0.1,0,0.4,0.3,0.4,0.8V9c0,0.5-0.3,0.8-0.4,0.8h-1.3c-0.6,0-1,0.4-1,1s0.4,1,1,1h1.3c1.3,0,2.4-1.3,2.4-2.8V7.1
	C15.3,5.5,14.2,4.3,12.9,4.3z M9.5,6.5c-0.6,0-1,0.4-1,1V9c0,0.5-0.3,0.8-0.4,0.8H3.1C3,9.8,2.7,9.5,2.7,9V7.1
	c0-0.5,0.3-0.8,0.4-0.8h1.3c0.6,0,1-0.4,1-1s-0.4-1-1-1H3.1c-1.3,0-2.4,1.3-2.4,2.8V9c0,1.5,1.1,2.8,2.4,2.8h4.9
	c1.3,0,2.4-1.3,2.4-2.8V7.5C10.5,7,10,6.5,9.5,6.5z"/>
</svg>
