<?xml version="1.0" encoding="utf-8"?>
<!-- Generator: Adobe Illustrator 20.1.0, SVG Export Plug-In . SVG Version: 6.00 Build 0)  -->
<svg version="1.1" id="图层_1" xmlns="http://www.w3.org/2000/svg" xmlns:xlink="http://www.w3.org/1999/xlink" x="0px" y="0px"
	 viewBox="0 0 16 16" style="enable-background:new 0 0 16 16;" xml:space="preserve">
<style type="text/css">
	.st0{fill:#040000;}
</style>
<path class="st0" d="M13,1.5H8.4C7,1.5,6,2.8,6,4.3v1.5c0,0.6,0.4,1,1,1s1-0.4,1-1V4.3c0-0.5,0.3-0.8,0.4-0.8H13
	c0.1,0,0.4,0.3,0.4,0.8v1.9c0,0.5-0.3,0.8-0.4,0.8h-2.3c-0.6,0-1,0.4-1,1s0.4,1,1,1H13c1.3,0,2.4-1.3,2.4-2.8V4.3
	C15.4,2.8,14.3,1.5,13,1.5z M9,9.2c-0.6,0-1,0.4-1,1v1.5c0,0.5-0.3,0.8-0.4,0.8H3c-0.1,0-0.4-0.3-0.4-0.8V9.7c0-0.5,0.3-0.8,0.4-0.8
	h2.3c0.6,0,1-0.4,1-1s-0.4-1-1-1H3c-1.3,0-2.4,1.3-2.4,2.8v1.9c0,1.5,1.1,2.8,2.4,2.8h4.6c1.3,0,2.4-1.3,2.4-2.8v-1.5
	C10,9.7,9.6,9.2,9,9.2z"/>
</svg>
