<?xml version="1.0" encoding="utf-8"?>
<!-- Generator: Adobe Illustrator 20.1.0, SVG Export Plug-In . SVG Version: 6.00 Build 0)  -->
<svg version="1.1" id="图层_1" xmlns="http://www.w3.org/2000/svg" xmlns:xlink="http://www.w3.org/1999/xlink" x="0px" y="0px"
	 viewBox="0 0 16 16" style="enable-background:new 0 0 16 16;" xml:space="preserve">
<style type="text/css">
	.st0{fill:#040000;}
</style>
<path class="st0" d="M11.9,7.4c0.6-0.8,0.9-1.8,0.7-2.8c-0.3-1.8-1.8-3.2-3.6-3.5C8,1,6.9,1,5.8,1.1c-0.4,0-0.8,0-1.2,0
	c-0.6,0-1,0.4-1,1c0,0,0,0,0,0c0,0,0,0,0,0v11.8c0,0,0,0,0,0c0,0.6,0.4,1,1,1c0.4,0,0.8,0,1.2,0c0.5,0,0.9,0,1.4,0
	c0.8,0,1.7,0,2.5-0.2c2-0.4,3.4-2.1,3.5-4.1C13.3,9.3,12.8,8.2,11.9,7.4z M5.9,3.1c1,0,2-0.1,2.9,0.1c1.2,0.2,1.8,1.1,1.9,1.8
	c0.1,0.4,0,1.1-0.9,1.7H5.7V3.1C5.7,3.1,5.8,3.1,5.9,3.1z M9.4,12.8C8.3,13,7.1,13,6,12.9c-0.1,0-0.2,0-0.3,0V8.6h4.3
	c1.3,0.4,1.4,1.5,1.4,1.9C11.2,11.4,10.6,12.5,9.4,12.8z"/>
</svg>
