<?xml version="1.0" encoding="utf-8"?>
<!-- Generator: Adobe Illustrator 20.1.0, SVG Export Plug-In . SVG Version: 6.00 Build 0)  -->
<svg version="1.1" id="图层_1" xmlns="http://www.w3.org/2000/svg" xmlns:xlink="http://www.w3.org/1999/xlink" x="0px" y="0px"
	 viewBox="0 0 16 16" style="enable-background:new 0 0 16 16;" xml:space="preserve">
<style type="text/css">
	.st0{fill:#040000;}
</style>
<g>
	<path class="st0" d="M2.6,3.4h10.9c0.6,0,1-0.4,1-1s-0.4-1-1-1H2.6c-0.6,0-1,0.4-1,1S2,3.4,2.6,3.4z"/>
	<path class="st0" d="M2.6,6.2h6.7c0.6,0,1-0.4,1-1s-0.4-1-1-1H2.6c-0.6,0-1,0.4-1,1S2,6.2,2.6,6.2z"/>
	<path class="st0" d="M13.4,7H2.6c-0.6,0-1,0.4-1,1s0.4,1,1,1h10.9c0.6,0,1-0.4,1-1S14,7,13.4,7z"/>
	<path class="st0" d="M13.4,12.6H2.6c-0.6,0-1,0.4-1,1s0.4,1,1,1h10.9c0.6,0,1-0.4,1-1S14,12.6,13.4,12.6z"/>
	<path class="st0" d="M2.6,11.8h5.9c0.6,0,1-0.4,1-1s-0.4-1-1-1H2.6c-0.6,0-1,0.4-1,1S2,11.8,2.6,11.8z"/>
</g>
</svg>
