<?xml version="1.0" encoding="utf-8"?>
<!-- Generator: Adobe Illustrator 20.1.0, SVG Export Plug-In . SVG Version: 6.00 Build 0)  -->
<svg version="1.1" id="图层_1" xmlns="http://www.w3.org/2000/svg" xmlns:xlink="http://www.w3.org/1999/xlink" x="0px" y="0px"
	 viewBox="0 0 16 16" style="enable-background:new 0 0 16 16;" xml:space="preserve">
<style type="text/css">
	.st0{fill:#040000;}
</style>
<path class="st0" d="M13.9,12.8H3.3c-0.6,0-1,0.4-1,1s0.4,1,1,1h10.6c0.6,0,1-0.4,1-1S14.4,12.8,13.9,12.8z M12.3,9.7
	c0.3,0.5,1.5,0.3,1.5-0.6c0-0.8-0.8-1.8-0.8-1.8C13,7.9,12,9.3,12.3,9.7z M7.1,11.9c0.2,0.2,0.4,0.3,0.7,0.3s0.5-0.1,0.7-0.3L12.3,8
	c0.4-0.4,0.4-1,0-1.4L7.2,1.5c-0.4-0.4-1-0.4-1.4,0s-0.4,1,0,1.4l0.6,0.6L3.2,6.6C2.8,7,2.8,7.6,3.2,8L7.1,11.9z M7.8,4.9l2.4,2.4
	l0,0H5.3l0,0L7.8,4.9z"/>
</svg>
