<?xml version="1.0" encoding="utf-8"?>
<!-- Generator: Adobe Illustrator 20.1.0, SVG Export Plug-In . SVG Version: 6.00 Build 0)  -->
<svg version="1.1" id="图层_1" xmlns="http://www.w3.org/2000/svg" xmlns:xlink="http://www.w3.org/1999/xlink" x="0px" y="0px"
	 viewBox="0 0 16 16" style="enable-background:new 0 0 16 16;" xml:space="preserve">
<style type="text/css">
	.st0{fill:#040000;}
</style>
<g>
	<path class="st0" d="M13.4,3.4H2.6c-0.6,0-1-0.4-1-1s0.4-1,1-1h10.9c0.6,0,1,0.4,1,1S14,3.4,13.4,3.4z"/>
	<path class="st0" d="M13.4,6.2H6.8c-0.6,0-1-0.4-1-1s0.4-1,1-1h6.7c0.6,0,1,0.4,1,1S14,6.2,13.4,6.2z"/>
	<path class="st0" d="M2.6,7h10.9c0.6,0,1,0.4,1,1s-0.4,1-1,1H2.6c-0.6,0-1-0.4-1-1S2,7,2.6,7z"/>
	<path class="st0" d="M2.6,12.6h10.9c0.6,0,1,0.4,1,1s-0.4,1-1,1H2.6c-0.6,0-1-0.4-1-1S2,12.6,2.6,12.6z"/>
	<path class="st0" d="M13.4,11.8H7.5c-0.6,0-1-0.4-1-1s0.4-1,1-1h5.9c0.6,0,1,0.4,1,1S14,11.8,13.4,11.8z"/>
</g>
</svg>
