<?xml version="1.0" encoding="utf-8"?>
<!-- Generator: Adobe Illustrator 19.2.1, SVG Export Plug-In . SVG Version: 6.00 Build 0)  -->
<svg version="1.1" id="图层_1" xmlns="http://www.w3.org/2000/svg" xmlns:xlink="http://www.w3.org/1999/xlink" x="0px" y="0px"
	 viewBox="0 0 16 16" style="enable-background:new 0 0 16 16;" xml:space="preserve">
<style type="text/css">
	.st0{fill:#FFFFFF;}
</style>
<title>web_edit</title>
<desc>Created with Sketch.</desc>
<g id="方案1">
	<g id="页面" transform="translate(-152.000000, -709.000000)">
		<g id="web_edit-copy" transform="translate(152.000000, 709.000000)">
			<path id="Combined-Shape" class="st0" d="M13.3,11.6c0,1-0.8,1.9-1.9,1.9H4.4c-1,0-1.9-0.8-1.9-1.9V4.5c0-1,0.8-1.9,1.9-1.9h3.9
				c0.3,0,0.5-0.2,0.5-0.5S8.5,1.7,8.3,1.7H4.4C2.8,1.7,1.5,3,1.5,4.5v7.1c0,1.6,1.3,2.9,2.9,2.9h7.1c1.6,0,2.9-1.3,2.9-2.9V7.5
				c0-0.3-0.2-0.5-0.5-0.5s-0.5,0.2-0.5,0.5V11.6z M14.9,2.2c0.2-0.2,0.2-0.5,0-0.7c-0.2-0.2-0.5-0.2-0.7,0L6.5,9.2
				c-0.2,0.2-0.2,0.5,0,0.7s0.5,0.2,0.7,0L14.9,2.2z"/>
		</g>
	</g>
</g>
</svg>
