<?xml version="1.0" encoding="utf-8"?>
<!-- Generator: Adobe Illustrator 19.2.1, SVG Export Plug-In . SVG Version: 6.00 Build 0)  -->
<svg version="1.1" id="图层_1" xmlns="http://www.w3.org/2000/svg" xmlns:xlink="http://www.w3.org/1999/xlink" x="0px" y="0px"
	 viewBox="0 0 16 16" style="enable-background:new 0 0 16 16;" xml:space="preserve">
<style type="text/css">
	.st0{fill:#505050;}
</style>
<path class="st0" d="M7.7,8.3l1.5-0.8c0.3-0.2,0.3-0.5,0-0.7L7.7,6.1C7.4,5.9,7,6.1,7,6.4V8C7,8.3,7.4,8.5,7.7,8.3z M15,2.5h-0.5H9
	c0.3,0,0.5-0.2,0.5-0.5S9.3,1.5,9,1.5H7C6.7,1.5,6.5,1.7,6.5,2S6.7,2.5,7,2.5H1.5H1C0.7,2.5,0.5,2.7,0.5,3S0.7,3.5,1,3.5h0.5v5.1
	c0,1.6,1.2,2.9,2.8,2.9h3.2v2H5c-0.3,0-0.5,0.2-0.5,0.5s0.2,0.5,0.5,0.5h6.4c0.3,0,0.5-0.2,0.5-0.5s-0.2-0.5-0.5-0.5H8.5v-2h3.2
	c1.5,0,2.8-1.3,2.8-2.9V3.5H15c0.3,0,0.5-0.2,0.5-0.5S15.3,2.5,15,2.5z M13.5,8.6c0,1-0.8,1.9-1.8,1.9H4.2c-1,0-1.8-0.9-1.8-1.9V3.5
	h11V8.6z"/>
</svg>
