<?xml version="1.0" encoding="utf-8"?>
<!-- Generator: Adobe Illustrator 20.1.0, SVG Export Plug-In . SVG Version: 6.00 Build 0)  -->
<svg version="1.1" id="图层_1" xmlns="http://www.w3.org/2000/svg" xmlns:xlink="http://www.w3.org/1999/xlink" x="0px" y="0px"
	 viewBox="0 0 16 16" style="enable-background:new 0 0 16 16;" xml:space="preserve">
<style type="text/css">
	.st0{fill:#040000;}
</style>
<path class="st0" d="M5.2,11.3C6,11.7,6.9,11.9,8,11.9c1.1,0,2.1-0.2,2.8-0.7c0.8-0.5,1.3-1.1,1.6-1.9c0.3-0.7,0.4-1.6,0.4-2.7V1.9
	c0-0.6-0.4-1-1-1s-1,0.4-1,1v4.6c0,0.9-0.1,1.5-0.3,2c-0.1,0.4-0.4,0.7-0.8,0.9C9.3,9.8,8.7,9.9,8,9.9c-0.8,0-1.4-0.1-1.8-0.4
	C5.8,9.3,5.5,9,5.4,8.6C5.2,8.2,5.1,7.5,5.1,6.6V1.9c0-0.6-0.4-1-1-1s-1,0.4-1,1v4.6c0,1.2,0.1,2.1,0.5,2.9
	C3.9,10.2,4.4,10.9,5.2,11.3z M13.6,12.9H2.3c-0.6,0-1,0.4-1,1s0.4,1,1,1h11.4c0.6,0,1-0.4,1-1S14.2,12.9,13.6,12.9z"/>
</svg>
