<?xml version="1.0" encoding="utf-8"?>
<!-- Generator: Adobe Illustrator 19.2.1, SVG Export Plug-In . SVG Version: 6.00 Build 0)  -->
<svg version="1.1" id="图层_1" xmlns="http://www.w3.org/2000/svg" xmlns:xlink="http://www.w3.org/1999/xlink" x="0px" y="0px"
	 viewBox="0 0 16 16" style="enable-background:new 0 0 16 16;" xml:space="preserve">
<style type="text/css">
	.st0{fill:#505050;}
</style>
<title>web_release</title>
<desc>Created with Sketch.</desc>
<g>
	<path class="st0" d="M14.9,7.3C14.7,7,14.4,6.8,14,6.6c-0.3-1-0.8-1.8-1.5-2.6c-1.1-1-2.6-1.6-4.1-1.6c-1.1,0-2.2,0.3-3.2,0.9
		C4.6,3.7,4,4.2,3.6,4.8C2.8,5,2.1,5.4,1.6,6C0.7,6.9,0.2,8,0.2,9.1c0,1.1,0.4,2.1,1.2,2.9l0,0l0.3,0.2c0.9,0.9,2.1,1.3,3.4,1.3h6.8
		c1.1,0,2.1-0.4,2.9-1.1c0.8-0.7,1.2-1.7,1.2-2.7C15.9,8.9,15.6,8,14.9,7.3z M14,11.8c-0.6,0.5-1.4,0.9-2.2,0.9H5.1
		c-1,0-2-0.4-2.7-1l0,0C1.6,11,1.2,10.1,1.2,9.1c0-0.9,0.4-1.8,1-2.4c0.5-0.5,1.1-0.8,1.7-1l0.2,0l0.1-0.1c0.4-0.5,0.8-1,1.4-1.3
		c0.8-0.5,1.7-0.8,2.7-0.8c1.3,0,2.5,0.5,3.4,1.3c0.7,0.6,1.1,1.4,1.3,2.3l0,0.2l0.2,0.1C13.7,7.5,14,7.7,14.2,8
		c0.5,0.5,0.7,1.2,0.7,1.8C14.9,10.6,14.6,11.3,14,11.8z"/>
	<path class="st0" d="M8.3,6.1C8.3,6.1,8.3,6.1,8.3,6.1C8.2,6,8.1,6,8,6c0,0,0,0,0,0h0C7.9,6,7.8,6,7.7,6.1c0,0,0,0,0,0l-2.5,2
		C5,8.3,4.9,8.6,5.1,8.8C5.3,9,5.6,9.1,5.8,8.9l1.7-1.4v3C7.5,10.8,7.7,11,8,11s0.5-0.2,0.5-0.5v-3l1.7,1.4c0.2,0.2,0.5,0.1,0.7-0.1
		c0.2-0.2,0.1-0.5-0.1-0.7L8.3,6.1z"/>
</g>
</svg>
