<?xml version="1.0" encoding="utf-8"?>
<!-- Generator: Adobe Illustrator 20.1.0, SVG Export Plug-In . SVG Version: 6.00 Build 0)  -->
<svg version="1.1" id="图层_1" xmlns="http://www.w3.org/2000/svg" xmlns:xlink="http://www.w3.org/1999/xlink" x="0px" y="0px"
	 viewBox="0 0 16 16" style="enable-background:new 0 0 16 16;" xml:space="preserve">
<style type="text/css">
	.st0{fill:#040000;}
</style>
<path class="st0" d="M12.3,1.4H5.7c-0.6,0-1,0.4-1,1s0.4,1,1,1h2.1L6.1,13H3.7c-0.6,0-1,0.4-1,1s0.4,1,1,1h3.1c0.1,0,0.1,0,0.2,0
	C7,15,7,15,7,15h3.2c0.6,0,1-0.4,1-1s-0.4-1-1-1H8.1l1.8-9.6h2.4c0.6,0,1-0.4,1-1S12.9,1.4,12.3,1.4z"/>
</svg>
