<?xml version="1.0" encoding="utf-8"?>
<!-- Generator: Adobe Illustrator 20.1.0, SVG Export Plug-In . SVG Version: 6.00 Build 0)  -->
<svg version="1.1" id="图层_1" xmlns="http://www.w3.org/2000/svg" xmlns:xlink="http://www.w3.org/1999/xlink" x="0px" y="0px"
	 viewBox="0 0 16 16" style="enable-background:new 0 0 16 16;" xml:space="preserve">
<style type="text/css">
	.st0{fill:#040000;}
</style>
<g>
	<path class="st0" d="M14,15H2c-0.6,0-1-0.4-1-1V2c0-0.6,0.4-1,1-1h12c0.6,0,1,0.4,1,1v12C15,14.6,14.6,15,14,15z M3,13h10V3H3V13z"
		/>
</g>
<g>
	<g>
		<path class="st0" d="M10.2,6H5.8c-0.6,0-1-0.4-1-1s0.4-1,1-1h4.4c0.6,0,1,0.4,1,1S10.8,6,10.2,6z"/>
	</g>
	<g>
		<path class="st0" d="M8,12c-0.6,0-1-0.4-1-1V5c0-0.6,0.4-1,1-1s1,0.4,1,1v6C9,11.6,8.6,12,8,12z"/>
	</g>
</g>
<g>
	<circle class="st0" cx="14.2" cy="1.9" r="1.5"/>
</g>
<g>
	<circle class="st0" cx="14.2" cy="14.1" r="1.5"/>
</g>
<g>
	<circle class="st0" cx="1.8" cy="1.9" r="1.5"/>
</g>
<g>
	<circle class="st0" cx="1.8" cy="14.1" r="1.5"/>
</g>
</svg>
