<?xml version="1.0" encoding="utf-8"?>
<svg width="14px" height="14px" viewBox="0 0 14 14" version="1.1" xmlns="http://www.w3.org/2000/svg" xmlns:xlink="http://www.w3.org/1999/xlink">
    <!-- Generator: Sketch 43.2 (39069) - http://www.bohemiancoding.com/sketch -->
    <desc>Created with Sketch.</desc>
    <defs></defs>
    <g id="Page-1" stroke="none" stroke-width="1" fill="none" fill-rule="evenodd">
        <g id="edit2" fill-rule="nonzero" fill="#000000">
            <path d="M13.7892217,5.45102249 L12.9847264,6.23860435 L10.7815203,4.05093238 L11.5860157,3.26335052 C11.8306779,3.01844697 12.2153607,2.98328262 12.4251424,3.1932712 L13.8764231,4.61106818 C14.0690137,4.82080737 14.033884,5.20586957 13.7892217,5.45102249 L13.7892217,5.45102249 L13.7892217,5.45102249 L13.7892217,5.45102249 Z M10.3970866,4.4182877 L12.617733,6.58850218 L7.33706437,11.8042992 C7.31962408,11.8217567 7.24936466,11.8918361 7.14472297,11.9092935 C7.12728268,11.9092935 7.12728268,11.9092935 7.10959326,11.926751 L4.34705239,12.7846616 C4.27704211,12.8021191 4.18959154,12.8021191 4.13702154,12.7494972 C4.08470069,12.6971248 4.06726041,12.6270455 4.10189183,12.5392593 L4.97639746,9.82636645 C4.97639746,9.80915836 4.97639746,9.80915836 4.99383775,9.79145148 C5.01127804,9.70366528 5.08128832,9.59892039 5.11591974,9.58121351 L6.13019679,8.65372239 L2.77344055,8.6537224 C2.63341999,8.6537224 2.51108887,8.49585688 2.51108887,8.3736545 C2.51108887,8.23324646 2.63342,8.07612911 2.77344055,8.07612911 L6.6551493,8.07612911 L10.3970866,4.4182877 L10.3970866,4.4182877 L10.3970866,4.4182877 Z M6.6551493,11.6292256 L5.29107,10.2817574 L4.92382746,11.4194864 L5.50085168,11.9970797 L6.6551493,11.6292256 L6.6551493,11.6292256 L6.6551493,11.6292256 Z M10.3270764,5.27594889 C10.2570661,5.20611896 10.1170455,5.20611896 10.0472844,5.27594889 L5.9029748,9.33655937 C5.81552423,9.4063893 5.81552423,9.54654795 5.9029748,9.61662727 C5.97298508,9.6864572 6.11300564,9.6864572 6.18276677,9.61662727 L10.3093869,5.55601679 C10.3970866,5.48593747 10.3970866,5.3634857 10.3270764,5.27594889 L10.3270764,5.27594889 L10.3270764,5.27594889 L10.3270764,5.27594889 Z M1.11212901,13.2046387 C0.9723576,13.2046387 0.832586179,13.1520169 0.832586179,13.0121076 L0.832586179,1.95054782 C0.81514589,1.68793741 0.990047021,1.74055925 1.18213928,1.74055925 L2.14384633,1.74055925 L2.14384633,2.10816396 C2.14384633,2.24832261 2.30105803,2.37077437 2.45851887,2.37077437 C2.59853943,2.37077437 2.77344055,2.2483226 2.77344055,2.10816396 L2.77344055,1.74055925 L4.20728098,1.74055925 L4.20728098,2.10816396 C4.20728098,2.24832261 4.36449268,2.37077437 4.52195352,2.37077437 C4.66197408,2.37077437 4.8368752,2.2483226 4.8368752,2.10816396 L4.8368752,1.74055925 L6.1483845,1.74055925 L6.1483845,2.10816396 C6.1483845,2.24832261 6.30559619,2.37077437 6.46305703,2.37077437 C6.60332674,2.37077437 6.77797872,2.2483226 6.77797872,2.10816396 L6.77797872,1.74055925 L8.08948801,1.74055925 L8.08948801,2.10816396 C8.08948801,2.24832261 8.24694886,2.37077437 8.4044097,2.37077437 C8.5441811,2.37077437 8.71908223,2.2483226 8.71908223,2.10816396 L8.71908225,1.74055925 L9.8205607,1.74055925 C9.96058127,1.74055925 10.0480318,1.81038918 10.0480318,1.95054783 L10.0480318,3.77086449 L10.8525272,2.98328263 L10.8525272,1.95054782 C10.8525272,1.37295454 10.4152744,0.952977377 9.8205607,0.952977377 L8.70164196,0.952977377 L8.70164196,0.270140424 C8.70164196,0.129981771 8.54418112,0.00753001183 8.38672028,0.00753001183 C8.24694887,0.00753001183 8.07204774,0.129981785 8.07204774,0.270140424 L8.07204774,0.952728 L6.76053844,0.952728 L6.76053844,0.270140424 C6.76053844,0.129981771 6.60332674,0.00753001183 6.44561676,0.00753001183 C6.30559619,0.00753001183 6.13094422,0.129981785 6.13094422,0.270140424 L6.13094422,0.952728 L4.81943492,0.952728 L4.81943492,0.270140424 C4.81943492,0.129981771 4.66197408,0.00753001183 4.50451324,0.00753001183 C4.36449268,0.00753001183 4.1898407,0.129981785 4.1898407,0.270140424 L4.1898407,0.952728 L2.75600026,0.952727986 L2.75600026,0.270140424 C2.75600026,0.129981771 2.59853942,0.00753001183 2.44107858,0.00753001183 C2.30105801,0.00753001183 2.12640604,0.129981785 2.12640604,0.270140424 L2.12640604,0.952728 L1.18213928,0.952728 C0.395333366,0.952728 0.0106505517,1.37270515 0.0106505517,1.95029844 L0.0106505517,12.9944008 C0.0106505517,13.5717447 0.535104786,13.9919712 1.12981844,13.9919712 L9.80262214,13.9919712 C10.3970866,13.9919712 10.8343395,13.5717447 10.8343395,12.9944008 L10.8343395,9.17869385 L10.0298441,9.96627571 L10.0298441,13.0116089 C10.0298441,13.1517675 9.94239354,13.20414 9.80262214,13.20414 L1.11212901,13.2046387 Z M7.98384974,3.94593809 L2.75600026,3.94593809 C2.6159797,3.94593809 2.511338,4.12076231 2.511338,4.24321408 C2.511338,4.38337273 2.61622884,4.54073947 2.75600026,4.54073947 L7.98384972,4.54073947 C8.12411943,4.54073947 8.22876113,4.36566585 8.22876113,4.24321408 C8.22876113,4.12076231 8.12387029,3.94593809 7.98384974,3.94593809 L7.98384974,3.94593809 L7.98384974,3.94593809 L7.98384974,3.94593809 Z M7.98384974,5.95853647 L2.75600026,5.95853647 C2.6159797,5.95853647 2.511338,6.13336068 2.511338,6.25606186 C2.511338,6.39622051 2.61622884,6.55333784 2.75600026,6.55333784 L7.98384972,6.55333784 C8.12411943,6.55333784 8.22876113,6.37826422 8.22876113,6.25606186 C8.22876114,6.13336068 8.12387029,5.95853647 7.98384974,5.95853647 L7.98384974,5.95853647 L7.98384974,5.95853647 L7.98384974,5.95853647 Z" id="Shape"></path>
        </g>
    </g>
</svg>