<?xml version="1.0" encoding="utf-8"?>
<!-- Generator: Adobe Illustrator 19.2.1, SVG Export Plug-In . SVG Version: 6.00 Build 0)  -->
<svg version="1.1" id="图层_1" xmlns="http://www.w3.org/2000/svg" xmlns:xlink="http://www.w3.org/1999/xlink" x="0px" y="0px"
	 viewBox="0 0 18 18" style="enable-background:new 0 0 18 18;" xml:space="preserve">
<style type="text/css">
	.st0{fill:#222222;}
</style>
<path class="st0" d="M12.5,8.5h-3v-3C9.5,5.2,9.3,5,9,5C8.7,5,8.5,5.2,8.5,5.5v3h-3C5.2,8.5,5,8.7,5,9c0,0.3,0.2,0.5,0.5,0.5h3v3
	C8.5,12.8,8.7,13,9,13c0.3,0,0.5-0.2,0.5-0.5v-3h3C12.8,9.5,13,9.3,13,9C13,8.7,12.8,8.5,12.5,8.5z M9,0.5C4.3,0.5,0.5,4.3,0.5,9
	c0,4.7,3.8,8.5,8.5,8.5c4.7,0,8.5-3.8,8.5-8.5C17.5,4.3,13.7,0.5,9,0.5z M9,16.5c-4.1,0-7.5-3.4-7.5-7.5S4.9,1.5,9,1.5
	s7.5,3.4,7.5,7.5S13.1,16.5,9,16.5z"/>
</svg>
