<?xml version="1.0" encoding="utf-8"?>
<!-- Generator: Adobe Illustrator 19.2.1, SVG Export Plug-In . SVG Version: 6.00 Build 0)  -->
<svg version="1.1" id="图层_1" xmlns="http://www.w3.org/2000/svg" xmlns:xlink="http://www.w3.org/1999/xlink" x="0px" y="0px"
	 viewBox="0 0 16 16" style="enable-background:new 0 0 16 16;" xml:space="preserve">
<style type="text/css">
	.st0{fill:#272636;}
</style>
<path class="st0" d="M10.8,4.5H1.7l3.1-3.1C5,1.2,5,0.8,4.8,0.6c-0.2-0.2-0.5-0.2-0.7,0l-3.9,4c0,0-0.1,0.1-0.1,0.2c0,0,0,0.1,0,0.1
	c0,0,0,0.1,0,0.1C0,5,0,5,0,5.1c0,0,0,0.1,0,0.1c0,0.1,0.1,0.1,0.1,0.1c0,0,0,0,0,0l0,0c0,0,0,0,0,0l3.9,4c0.1,0.1,0.2,0.1,0.4,0.1
	c0.1,0,0.3,0,0.4-0.1C5,9.1,5,8.8,4.8,8.6L1.7,5.5h9.1c2.3,0,4.2,1.9,4.2,4.2c0,2.3-1.9,4.2-4.2,4.2H2.2c-0.3,0-0.5,0.2-0.5,0.5
	S2,15,2.2,15h8.6c2.8,0,5.2-2.4,5.2-5.2S13.7,4.5,10.8,4.5z"/>
</svg>
