<?xml version="1.0" encoding="utf-8"?>
<!-- Generator: Adobe Illustrator 19.2.1, SVG Export Plug-In . SVG Version: 6.00 Build 0)  -->
<svg version="1.1" id="图层_1" xmlns="http://www.w3.org/2000/svg" xmlns:xlink="http://www.w3.org/1999/xlink" x="0px" y="0px"
	 viewBox="0 0 14 14" style="enable-background:new 0 0 14 14;" xml:space="preserve">
<style type="text/css">
	.st0{fill:#2A90D7;}
</style>
<path class="st0" d="M8.6,5.6c-0.4-0.4-1-0.4-1.4,0C6.8,6,6.8,6.6,7.2,7l0.5,0.5c0.2,0.2,0.2,0.6,0,0.8l-3.6,3.6
	c-0.2,0.2-0.5,0.2-0.8,0l-1.2-1.2C2,10.4,2,10.1,2.2,9.9l1.4-1.4C4,8,4,7.4,3.6,7c-0.4-0.4-1-0.4-1.4,0L0.7,8.4c-1,1-1,2.6,0,3.6
	l1.2,1.2C2.4,13.7,3.1,14,3.7,14c0.7,0,1.3-0.3,1.8-0.8l3.6-3.6c1-1,1-2.6,0-3.6L8.6,5.6z M13.3,1.9l-1.2-1.2c-1-1-2.7-1-3.6,0
	L4.9,4.3c-1,1-1,2.6,0,3.6l0.5,0.5c0.2,0.2,0.5,0.3,0.7,0.3s0.5-0.1,0.7-0.3c0.4-0.4,0.4-1,0-1.4L6.3,6.5c-0.2-0.2-0.2-0.6,0-0.8
	l3.6-3.6C10,2,10.2,2,10.3,2c0.1,0,0.2,0,0.4,0.2l1.2,1.2c0.2,0.2,0.2,0.6,0,0.8l-1.4,1.4c-0.4,0.4-0.4,1,0,1.4c0.4,0.4,1,0.4,1.4,0
	l1.4-1.4C14.2,4.5,14.2,2.9,13.3,1.9z"/>
</svg>
