<svg xmlns="http://www.w3.org/2000/svg" width="15.969" height="12.031" viewBox="0 0 15.969 12.031">
  <defs>
    <style>
      .cls-1 {
        fill: #898989;
        fill-rule: evenodd;
      }
    </style>
  </defs>
  <path id="矩形_154_拷贝_9" data-name="矩形 154 拷贝 9" class="cls-1" d="M944,602h5v-1h-5v1Zm0,4h5v-1h-5v1Zm0,4h5v-1h-5v1Zm15.824-4.763L956,600a1,1,0,0,0-1,0l-3.7,5.237a0.454,0.454,0,0,0,.32.775,0.452,0.452,0,0,0,.319-0.133L955,602v9c0,1.174,1,1.174,1,0v-9l3.184,3.879A0.453,0.453,0,0,0,959.824,605.237Z" transform="translate(-944 -599.875)"/>
</svg>
