<svg xmlns="http://www.w3.org/2000/svg" width="16.03" height="11.969" viewBox="0 0 16.03 11.969">
  <defs>
    <style>
      .cls-1 {
        fill: #898989;
        fill-rule: evenodd;
      }
    </style>
  </defs>
  <path id="矩形_154_拷贝_9" data-name="矩形 154 拷贝 9" class="cls-1" d="M984,602h5v-1h-5v1Zm0,4h5v-1h-5v1Zm0,4h5v-1h-5v1Zm7.149-3.348,3.919,5.223a1.049,1.049,0,0,0,1.024,0l3.793-5.223a0.438,0.438,0,0,0,0-.64,0.468,0.468,0,0,0-.654,0L996,610v-9c0-1.171-.932-1.267-0.932-0.1L995,610l-3.2-3.988a0.47,0.47,0,0,0-.655,0A0.445,0.445,0,0,0,991.149,606.652Z" transform="translate(-984 -600.062)"/>
</svg>
