<?xml version="1.0" encoding="utf-8"?>
<!-- Generator: Adobe Illustrator 19.2.1, SVG Export Plug-In . SVG Version: 6.00 Build 0)  -->
<svg version="1.1" id="图层_1" xmlns="http://www.w3.org/2000/svg" xmlns:xlink="http://www.w3.org/1999/xlink" x="0px" y="0px"
	 viewBox="0 0 16 16" style="enable-background:new 0 0 16 16;" xml:space="preserve">
<style type="text/css">
	.st0{fill:#505050;}
</style>
<path class="st0" d="M15.9,3.2c0-1.6-1.3-2.9-2.9-2.9c0,0,0,0,0,0L7.2,1.3c-1.6,0-2.8,1.3-2.8,2.9v7.4c-0.5-0.3-1-0.5-1.7-0.5
	C1.2,11,0,12,0,13.2s1.2,2.2,2.7,2.2s2.7-1,2.7-2.2c0,0,0,0,0-0.1h0V5.5l9.5-1.7v5.8c-0.5-0.3-1-0.5-1.7-0.5c-1.5,0-2.7,1-2.7,2.2
	s1.2,2.2,2.7,2.2s2.7-1,2.7-2.2c0,0,0,0,0-0.1h0V3.2z M2.7,14.4c-0.9,0-1.7-0.5-1.7-1.2S1.8,12,2.7,12s1.7,0.5,1.7,1.2
	S3.6,14.4,2.7,14.4z M5.4,4.5V4.1c0-1,0.8-1.9,1.9-1.9l5.8-0.9c0.9,0,1.6,0.7,1.8,1.5L5.4,4.5z M13.2,12.5c-0.9,0-1.7-0.5-1.7-1.2
	s0.8-1.2,1.7-1.2s1.7,0.5,1.7,1.2S14.1,12.5,13.2,12.5z"/>
</svg>
