<?xml version="1.0" encoding="UTF-8" standalone="no"?>
<svg width="70px" height="24px" viewBox="0 0 70 24" version="1.1" xmlns="http://www.w3.org/2000/svg" xmlns:xlink="http://www.w3.org/1999/xlink">
    <!-- Generator: Sketch 39.1 (31720) - http://www.bohemiancoding.com/sketch -->
    <title>nav_logo</title>
    <desc>Created with Sketch.</desc>
    <defs></defs>
    <g id="Symbols" stroke="none" stroke-width="1" fill="none" fill-rule="evenodd">
        <g id="导航" transform="translate(-24.000000, -22.000000)" fill="#FFFFFF">
            <g id="nav_logo" transform="translate(24.000000, 22.000000)">
                <path d="M51.0344874,6.81934261e-15 L46.8096625,6.4178461 L49.7817518,8.24369669 L52.5725436,4.45402568 L63.1516952,4.45702503 L63.1516952,5.11088199 L57.5790279,7.83353641 L52.754584,5.99418877 L51.0129397,8.17696129 L53.4976063,9.74336864 L49.0387295,11.9928766 L47.5534279,11.9928766 L47.5534279,14.2423845 L49.957105,14.2453838 L49.957105,14.2393851 L57.5775418,10.9491049 L65.3792761,14.2438842 L68.3677118,14.2423845 L68.3573095,11.9928766 L66.1289856,11.9928766 L61.6701087,9.74336864 L67.6150302,5.99418877 L67.6150302,1.49517293 L54.2406287,1.49517293 L51.0344874,6.81934261e-15 Z M34.1790263,1.49517293 L34.1790263,13.4932983 L22.2899263,13.4932983 L22.2899263,15.7420564 L31.206937,15.7420564 L27.4918255,20.9909082 L22.2899263,20.9909082 L22.2943844,23.991002 L30.1570465,23.991002 L30.1570465,23.9790046 L30.1696779,23.9790046 L36.4073502,15.7420564 L44.5813386,15.7420564 L44.5813386,13.4932983 L38.6371601,13.4932983 L38.6371601,1.49517293 L34.1790263,1.49517293 Z M6.68720079,1.49517293 L6.68720079,20.9909082 L0,20.9909082 L0,23.9902521 L6.68720079,23.9902521 L11.1453347,23.9902521 L20.0616024,23.9902521 L20.0616024,20.9909082 L11.1453347,20.9909082 L11.1453347,9.74336864 L18.5755578,9.74336864 L18.5755578,7.49386072 L11.1453347,7.49386072 L11.1453347,1.49517293 L6.68720079,1.49517293 Z M24.5212223,2.24725841 L28.1263665,6.74177524 L32.6885235,6.74177524 L29.0841223,2.24725841 L24.5212223,2.24725841 Z M24.5212223,7.4893617 L28.175406,12.0026244 L32.7004119,12.0026244 L29.0454851,7.4893617 L24.5212223,7.4893617 Z M55.7259303,14.9922205 L47.5534279,14.9922205 L47.5534279,17.2417284 L55.7259303,17.2417284 L55.7259303,23.9902521 L60.1305665,23.9962508 L60.1848071,17.2417284 L68.3573095,17.2417284 L68.3573095,14.9922205 L60.1848071,14.9922205 L60.1305665,14.2543819 L55.7994895,14.2528822 L55.7259303,14.9922205 Z M37.1615178,16.4963914 L40.6083983,23.9895023 L45.3199028,23.9895023 L41.8737653,16.4963914 L37.1615178,16.4963914 Z M61.679025,17.979567 L64.8138361,24 L69.1010749,24 L65.9677498,17.979567 L61.679025,17.979567 Z M50.2052745,17.979567 L47.5526848,24 L51.5924971,24 L54.2443438,17.979567 L50.2052745,17.979567 Z"></path>
            </g>
        </g>
    </g>
</svg>