<?xml version="1.0" encoding="utf-8"?>
<!-- Generator: Adobe Illustrator 19.2.1, SVG Export Plug-In . SVG Version: 6.00 Build 0)  -->
<svg version="1.1" id="图层_1" xmlns="http://www.w3.org/2000/svg" xmlns:xlink="http://www.w3.org/1999/xlink" x="0px" y="0px"
	 viewBox="0 0 16 16" style="enable-background:new 0 0 16 16;" xml:space="preserve">
<style type="text/css">
	.st0{fill:#272636;}
</style>
<path class="st0" d="M16,4.9C16,4.8,16,4.8,16,4.9c0-0.1-0.1-0.2-0.1-0.2l-3.9-4c-0.2-0.2-0.5-0.2-0.7,0c-0.2,0.2-0.2,0.5,0,0.7
	l3.1,3.1H5.2C2.3,4.5,0,6.8,0,9.7S2.3,15,5.2,15h8.6c0.3,0,0.5-0.2,0.5-0.5S14,14,13.8,14H5.2C2.9,14,1,12.1,1,9.7
	c0-2.3,1.9-4.2,4.2-4.2h9.1l-3.1,3.1c-0.2,0.2-0.2,0.5,0,0.7c0.1,0.1,0.2,0.1,0.4,0.1c0.1,0,0.3,0,0.4-0.1l3.9-4
	c0,0,0.1-0.1,0.1-0.2c0,0,0-0.1,0-0.1C16,5,16,5,16,5C16,4.9,16,4.9,16,4.9z"/>
</svg>
