<?xml version="1.0" encoding="UTF-8" standalone="no"?>

<svg width="13px" height="15px" viewBox="0 0 13 15" version="1.1" xmlns="http://www.w3.org/2000/svg" xmlns:xlink="http://www.w3.org/1999/xlink">
    <!-- Generator: Sketch 43.2 (39069) - http://www.bohemiancoding.com/sketch -->
    <desc>Created with Sketch.</desc>
    <defs></defs>
    <g id="Page-1" stroke="none" stroke-width="1" fill="none" fill-rule="evenodd">
        <path d="M2.97964462,13.529103 L1.04010839,13.529103 C1.1496915,11.7390213 2.03235767,10.1120541 3.4183853,9.14536336 C4.80441294,8.17867261 6.52908203,7.98714292 8.0653751,8.62930132 L8.65019709,7.99160061 L8.56136337,7.95123981 C8.39356632,7.87589967 8.22330169,7.80594091 8.05056948,7.74136362 C8.32154528,7.56454097 8.57037564,7.35019086 8.7908505,7.10366291 C10.193344,5.54929242 10.180931,3.05151976 8.76307122,1.5138145 C7.34521132,-0.0238907644 5.05452262,-0.0238907644 3.63666276,1.5138145 C2.21880293,3.05151976 2.20639001,5.54929242 3.60888347,7.10366291 C3.8293583,7.35019086 4.07818867,7.56454097 4.34916447,7.74136362 C4.17643224,7.80055945 4.00616762,7.87051819 3.83837058,7.95123981 C1.62768414,8.96856407 0.192188129,11.3324086 0.196188051,13.9488554 C0.196188051,14.0580397 0.235964822,14.1627521 0.306767929,14.2399573 C0.377571033,14.3171622 0.473600651,14.3605356 0.573731362,14.3605356 L2.97964462,14.3605356 C3.15595015,14.3218945 3.28279061,14.1530192 3.28279061,13.9569275 C3.28279061,13.7608357 3.15595015,13.5919607 2.97964462,13.5533194 L2.97964462,13.529103 Z M3.35718793,4.3026231 C3.35718793,2.56841001 4.64647045,1.16255254 6.23688103,1.16255254 C7.82729162,1.16255254 9.11657414,2.56841001 9.11657414,4.3026231 C9.11657414,6.0368362 7.82729162,7.44269367 6.23688103,7.44269367 C4.64647045,7.44269367 3.35718793,6.0368362 3.35718793,4.3026231 L3.35718793,4.3026231 Z M11.729766,11.4141968 C11.4613002,10.7181478 11.0829608,10.0788344 10.6119417,9.52531118 L10.0715366,10.1145789 C10.8636371,11.0533731 11.3411016,12.2568107 11.4262509,13.529103 L9.49411741,13.529103 C9.31781189,13.5677441 9.19097149,13.7366192 9.19097149,13.9327109 C9.19097149,14.1288027 9.31781189,14.2976779 9.49411741,14.3363191 L11.8185997,14.3363191 C11.9187305,14.3363191 12.0147601,14.2929457 12.0855633,14.2157407 C12.1563663,14.1385358 12.1961431,14.0338232 12.1961431,13.9246388 C12.1989487,13.0541118 12.0403116,12.1919529 11.729766,11.3899804 L11.729766,11.4141968 Z M10.3824547,7.92702332 C10.311405,7.84763442 10.2139809,7.8028696 10.112252,7.8028696 C10.0105233,7.8028696 9.91309919,7.84763442 9.84204951,7.92702332 L6.2146726,11.8823822 L4.63047126,10.1468676 C4.53393718,10.0416051 4.39323569,10.0004953 4.26136769,10.0390241 C4.12949968,10.0775529 4.02649905,10.1898667 3.99116513,10.3336579 C3.95583119,10.4774493 3.99353205,10.6308728 4.09006612,10.7361353 L5.94817144,12.7622477 C6.01922108,12.8416365 6.11664518,12.8864014 6.21837401,12.8864014 C6.32010283,12.8864014 6.41752693,12.8416365 6.48857657,12.7622477 L10.3824547,8.51629106 C10.4552606,8.43881721 10.4963134,8.33258418 10.4963134,8.22165719 C10.4963134,8.1107302 10.4552606,8.00449718 10.3824547,7.92702332 L10.3824547,7.92702332 Z" id="Shape" fill="#000000" fill-rule="nonzero"></path>
    </g>
</svg>