<?xml version="1.0" encoding="UTF-8" standalone="no"?>

<svg width="17px" height="19px" viewBox="0 0 17 19" version="1.1" xmlns="http://www.w3.org/2000/svg" xmlns:xlink="http://www.w3.org/1999/xlink">
    <!-- Generator: Sketch 43.2 (39069) - http://www.bohemiancoding.com/sketch -->
    <desc>Created with Sketch.</desc>
    <defs></defs>
    <g id="Page-1" stroke="none" stroke-width="1" fill="none" fill-rule="evenodd">
        <g id="permission" fill-rule="nonzero" fill="#000000">
            <path d="M4.33,17.27 L1.71,17.27 C1.85802907,15.052401 3.05036842,13.0368722 4.92266776,11.8393109 C6.7949671,10.6417496 9.12471634,10.4044777 11.2,11.2 L11.99,10.41 L11.87,10.36 C11.6433333,10.2666667 11.4133333,10.18 11.18,10.1 C11.5460445,9.88094756 11.8821741,9.61540515 12.18,9.31 C14.074542,7.38440595 14.0577742,4.29010109 12.1424747,2.38515235 C10.2271751,0.480203609 7.13282486,0.480203609 5.21752534,2.38515235 C3.30222582,4.29010109 3.28545797,7.38440595 5.18,9.31 C5.47782586,9.61540515 5.81395549,9.88094756 6.18,10.1 C5.94666667,10.1733333 5.71666667,10.26 5.49,10.36 C2.50371988,11.6202874 0.56459675,14.5486786 0.57,17.79 C0.57,17.9252604 0.623731989,18.0549809 0.719375542,18.1506245 C0.815019095,18.246268 0.94473959,18.3 1.08,18.3 L4.33,18.3 C4.56816027,18.2521304 4.73950124,18.0429235 4.73950124,17.8 C4.73950124,17.5570765 4.56816027,17.3478696 4.33,17.3 L4.33,17.27 Z M4.84,5.84 C4.84,3.69161232 6.58161232,1.95 8.73,1.95 C10.8783877,1.95 12.62,3.69161232 12.62,5.84 C12.62,7.98838768 10.8783877,9.73 8.73,9.73 C6.58161232,9.73 4.84,7.98838768 4.84,5.84 L4.84,5.84 Z M16.15,14.65 C15.787346,13.7877166 15.2762706,12.9957188 14.64,12.31 L13.91,13.04 C14.9799997,14.2030023 15.6249771,15.6938517 15.74,17.27 L13.13,17.27 C12.8918397,17.3178696 12.7204988,17.5270765 12.7204988,17.77 C12.7204988,18.0129235 12.8918397,18.2221304 13.13,18.27 L16.27,18.27 C16.4052604,18.27 16.5349809,18.216268 16.6306245,18.1206245 C16.726268,18.0249809 16.78,17.8952604 16.78,17.76 C16.78379,16.6815688 16.5694968,15.6135042 16.15,14.62 L16.15,14.65 Z M14.33,10.33 C14.2340234,10.231651 14.1024192,10.1761952 13.965,10.1761952 C13.8275808,10.1761952 13.6959766,10.231651 13.6,10.33 L8.7,15.23 L6.56,13.08 C6.42959806,12.9495981 6.23953309,12.8986703 6.06140073,12.9464007 C5.88326836,12.9941312 5.74413115,13.1332684 5.69640073,13.3114007 C5.6486703,13.4895331 5.69959806,13.6795981 5.83,13.81 L8.34,16.32 C8.43597659,16.418349 8.56758079,16.4738048 8.705,16.4738048 C8.84241921,16.4738048 8.97402341,16.418349 9.07,16.32 L14.33,11.06 C14.428349,10.9640234 14.4838048,10.8324192 14.4838048,10.695 C14.4838048,10.5575808 14.428349,10.4259766 14.33,10.33 L14.33,10.33 Z" id="Shape"></path>
        </g>
    </g>
</svg>