<?xml version="1.0" encoding="UTF-8" standalone="no"?>

<svg width="14px" height="14px" viewBox="0 0 14 14" version="1.1" xmlns="http://www.w3.org/2000/svg" xmlns:xlink="http://www.w3.org/1999/xlink">
    <!-- Generator: Sketch 43.2 (39069) - http://www.bohemiancoding.com/sketch -->
    <desc>Created with Sketch.</desc>
    <defs></defs>
    <g id="Page-1" stroke="none" stroke-width="1" fill="none" fill-rule="evenodd">
        <g id="preview" transform="translate(0.000000, -1.000000)" fill="#D8D8D8">
            <path d="M7.53333333,11 C4.21539536,11.0379105 1.23765433,9.09702314 0.12,6.168 L0.056,6 L0.12,5.832 C1.2515843,2.91300112 4.22056698,0.977822479 7.53333333,1 C10.8537799,0.954406737 13.8358206,2.89809654 14.9466667,5.832 L15,6 L14.9466667,6.168 C13.8058778,9.08034629 10.8426535,11.0117716 7.53333333,11 Z M1.13333333,6 C1.73066667,7.286 4.77066667,10 7.53333333,10 C10.296,10 13.336,7.286 13.9333333,6 C12.9093333,4.606 10.296,2 7.53333333,2 C4.77066667,2 1.73066667,4.714 1.13333333,6 Z M7.53333333,8 C6.35512587,8 5.4,7.1045695 5.4,6 C5.4,4.8954305 6.35512587,4 7.53333333,4 C8.7115408,4 9.66666667,4.8954305 9.66666667,6 C9.70268085,6.54007775 9.48951063,7.06863989 9.08136325,7.45127805 C8.67321588,7.83391622 8.10941627,8.03376327 7.53333333,8 L7.53333333,8 Z M7.53333333,4.889 C6.89124865,4.90103646 6.38069761,5.39801853 6.392,6 C6.42890281,6.56557432 6.92892643,7.00654773 7.53333333,7.00654773 C8.13774023,7.00654773 8.63776386,6.56557432 8.67466667,6 C8.68596906,5.39801853 8.17541802,4.90103646 7.53333333,4.889 L7.53333333,4.889 Z" id="矩形_156_拷贝_5"></path>
        </g>
    </g>
</svg>