<?xml version="1.0" encoding="UTF-8" standalone="no"?>
<svg width="16px" height="16px" viewBox="0 0 16 16" version="1.1" xmlns="http://www.w3.org/2000/svg" xmlns:xlink="http://www.w3.org/1999/xlink">
    <!-- Generator: Sketch 41.2 (35397) - http://www.bohemiancoding.com/sketch -->
    <title>ic_refresh</title>
    <desc>Created with Sketch.</desc>
    <defs></defs>
    <g id="方案1" stroke="none" stroke-width="1" fill="none" fill-rule="evenodd">
        <path d="M15.9880155,12.8793545 L15.3850505,10.0716313 C15.383522,10.067046 15.3850505,10.0655176 15.3842863,10.0616965 L15.3376692,9.87217134 C15.3124501,9.76670977 15.2459635,9.68417463 15.1611357,9.63602913 C15.0763079,9.58559099 14.9716106,9.56954249 14.8684416,9.60163949 L14.6812091,9.65513449 C14.6773881,9.65666292 14.6750954,9.65895556 14.6705101,9.6612482 L11.8788354,10.5469725 C11.6717333,10.6073455 11.5464022,10.8251465 11.5968403,11.0353055 L11.6442216,11.1934978 C11.6946598,11.4028925 11.9537284,11.468615 12.1608305,11.4074778 L13.946035,10.8343171 C13.9047674,10.9137954 13.8619714,10.9940379 13.8168828,11.0704593 C12.9105247,12.6630819 11.3645192,13.8017611 9.57396517,14.193803 C7.88352321,14.5636827 5.5534339,14.2549402 4.09607729,13.3203061 C2.63872068,12.3879647 1.64524213,10.8901047 1.27459821,9.19889857 C1.21116842,8.91155401 0.926880716,8.7289068 0.639536151,8.79233658 C0.350663157,8.85500215 0.168780161,9.14005407 0.232209946,9.42816285 C0.663226793,11.3967788 1.82253984,13.1323094 3.52062395,14.2190221 C5.21794384,15.3057348 7.83461349,15.6672081 9.80322945,15.2354271 C11.8872418,14.7776627 13.6884948,13.451751 14.7446389,11.5992956 C14.7568663,11.5778976 14.7683296,11.5557354 14.7797928,11.5351016 L15.1007628,13.0658228 C15.1519651,13.2752175 15.3613598,13.3959633 15.5684619,13.3355904 L15.7182479,13.3203061 C15.9261142,13.259169 16.0384537,13.087985 15.9880155,12.8793545 M0.61431708,5.66746443 L0.660934151,5.85775379 C0.686917436,5.96321536 0.753404077,6.0457505 0.838231861,6.093896 C0.923059645,6.14356992 1.027757,6.15885421 1.13092593,6.12904985 L1.31892264,6.07326221 C1.32197949,6.07326221 1.32503635,6.07020535 1.32809321,6.06944114 L4.11976793,5.18218837 C4.32687,5.12181545 4.45296535,4.90477859 4.401763,4.69385546 L4.35132486,4.5517116 C4.30088671,4.34308111 4.04563915,4.26207439 3.8393013,4.32244732 L2.04721883,4.89790067 C2.13892455,4.69003438 2.24056504,4.48522496 2.35290454,4.28958611 C3.26002688,2.69772778 4.79227649,1.61254352 6.58206631,1.21973739 C8.27250827,0.849093468 10.6018334,1.15860025 12.05919,2.09094166 C13.5173108,3.02481149 14.523781,4.47070489 14.8951891,6.16191107 C14.9586189,6.45001985 15.2421424,6.63113863 15.5302512,6.56847306 C15.7320038,6.52491284 15.8817897,6.37206999 15.9314637,6.18560171 C15.9528617,6.10535921 15.9566827,6.01976721 15.9368132,5.933411 C15.5057963,3.96479504 14.3327274,2.28046679 12.6346433,1.19298989 C10.9365592,0.107041413 8.3221822,-0.253667722 6.35280203,0.177349125 C4.26878971,0.634349258 2.48129254,1.90676602 1.42591263,3.76074983 C1.35101964,3.89143047 1.28071192,4.02440376 1.21346107,4.1604339 L0.897840574,2.66333814 C0.845874004,2.45317922 0.650235151,2.28352365 0.443133084,2.34466079 L0.294111301,2.36147351 C0.0870092346,2.42184643 -0.0398503341,2.64194014 0.0113520219,2.84980642 L0.612788652,5.65676543 C0.615081294,5.66058651 0.613552866,5.66364336 0.61431708,5.66746443" id="ic_refresh" fill="#898989"></path>
    </g>
</svg>