<?xml version="1.0" encoding="UTF-8" standalone="no"?>
<svg width="14px" height="14px" viewBox="0 0 14 14" version="1.1" xmlns="http://www.w3.org/2000/svg" xmlns:xlink="http://www.w3.org/1999/xlink">
    <!-- Generator: Sketch 43.2 (39069) - http://www.bohemiancoding.com/sketch -->
    <desc>Created with Sketch.</desc>
    <defs></defs>
    <g id="Page-1" stroke="none" stroke-width="1" fill="none" fill-rule="evenodd">
        <g id="remind_small" fill-rule="nonzero">
            <path d="M11.2363596,11.9803931 C11.3916309,12.1352944 11.5421286,12.2852323 11.6923683,12.4352991 C11.9478207,12.6904382 12.2057246,12.943257 12.4578227,13.2016837 C12.7165653,13.4669434 12.6016762,13.8943242 12.2483001,13.9839904 C12.0679351,14.0297582 11.9127283,13.9756748 11.781325,13.8437863 C11.3717623,13.4327143 10.960458,13.0234472 10.5508953,12.6123106 C10.5263176,12.587622 10.5117388,12.5530704 10.5027721,12.5391467 C8.15583404,13.8693775 5.84140808,13.8691842 3.51420951,12.549654 C3.49782441,12.5652537 3.47189212,12.5887821 3.44712096,12.6135354 C3.03194605,13.0280884 2.6188999,13.444833 2.20114469,13.8567431 C1.94298277,14.1113021 1.52380838,14.010033 1.4220789,13.6709646 C1.36608578,13.4842835 1.41730528,13.3224849 1.55470778,13.1854393 C1.9313713,12.8098856 2.30713167,12.4333651 2.68418222,12.0581339 C2.70908241,12.0333805 2.74153001,12.0161693 2.7718489,11.9944457 C1.20907275,10.5895682 0.409493345,8.86450974 0.475356226,6.78059318 C0.533091081,4.95362079 1.26332415,3.4133094 2.60819152,2.17480751 C5.20290571,-0.214528421 9.28040586,-0.0629790628 11.7313956,2.50459334 C14.2758579,5.17001861 14.1334883,9.50132655 11.2363596,11.9803931 L11.2363596,11.9803931 L11.2363596,11.9803931 Z M1.39859794,7.00459745 C1.39898497,10.0858649 3.90429074,12.5996118 6.97643023,12.6013522 C10.0900485,12.6030927 12.593161,10.1143568 12.5981281,7.01201054 C12.6030953,3.92004251 10.0899195,1.4052642 6.99842756,1.40868068 C3.90532288,1.4120327 1.39821088,3.91739959 1.39859794,7.00459745 L1.39859794,7.00459745 L1.39859794,7.00459745 Z M2.73088621,0 C2.81223106,0.0155352518 2.89763996,0.0201120495 2.9740822,0.0486685746 C3.17483178,0.12363749 3.2957847,0.339841889 3.26178888,0.543218424 C3.22353549,0.77173502 3.04575085,0.937014716 2.81900445,0.941075792 C2.40053963,0.948553354 2.01736079,1.0621348 1.68385328,1.31701619 C1.19152655,1.6932789 0.946975868,2.19749801 0.931042349,2.81478288 C0.926075216,3.00681416 0.835634681,3.14688934 0.664236345,3.22940028 C0.499095293,3.30888152 0.337115157,3.28980085 0.189842887,3.18285897 C0.0581816141,3.08726233 -0.0045203741,2.95221513 0.000253214864,2.79048083 C0.0292174256,1.80415296 0.4481338,1.02726101 1.2650014,0.471988272 C1.70462493,0.173079569 2.19785479,0.0301036007 2.73088621,0 L2.73088621,0 L2.73088621,0 Z M13.9986662,2.76173095 C14.0042784,2.83547507 13.9949892,2.96175546 13.9156441,3.07417662 C13.797981,3.24087447 13.5891034,3.31455416 13.3951272,3.25557173 C13.2009574,3.19652485 13.0681996,3.02280066 13.0652322,2.80408225 C13.0605875,2.45431328 12.9750496,2.12749266 12.7868147,1.83354748 C12.4191823,1.25938747 11.8885377,0.965957982 11.2077179,0.943267469 C10.870985,0.932051143 10.6517861,0.630177192 10.7591922,0.323210776 C10.8258937,0.13253318 11.0010981,0.00747753949 11.2136527,0.0132790897 C12.2573957,0.0417711524 13.0572976,0.501447249 13.6071657,1.38663479 C13.856748,1.78816649 13.9773138,2.23256517 13.9986662,2.76173095 L13.9986662,2.76173095 L13.9986662,2.76173095 Z M6.53435541,5.60287865 C6.53441991,5.13881916 6.53280722,4.67475967 6.53519401,4.21076463 C6.53629065,4.00081298 6.65917882,3.8316656 6.84722027,3.7672684 C7.03248787,3.70383813 7.2382691,3.76282053 7.36193136,3.9157236 C7.44056688,4.01286733 7.46778936,4.12567525 7.46766033,4.24905485 C7.46669271,5.07081211 7.46798287,5.8925049 7.46572509,6.71426216 C7.46553156,6.78394522 7.48430346,6.83312948 7.53449084,6.88289386 C8.08358481,7.42791721 8.63093707,7.97480994 9.17712815,8.52273407 C9.38626378,8.73255676 9.38129673,9.04364877 9.17048378,9.22388358 C8.98773203,9.38020298 8.7244095,9.37588412 8.54533467,9.20751026 C8.41618923,9.08612898 8.29336557,8.95804363 8.16796159,8.83273019 C7.68673026,8.35197512 7.20782123,7.86896389 6.72304195,7.39188314 C6.58957443,7.26057474 6.52919475,7.11444015 6.53209763,6.92730796 C6.5389355,6.48593893 6.5342909,6.04437657 6.53435541,5.60287865 L6.53435541,5.60287865 L6.53435541,5.60287865 Z" id="ic_remind_samll"></path>
        </g>
    </g>
</svg>