<?xml version="1.0" encoding="UTF-8" standalone="no"?>
<svg width="16px" height="16px" viewBox="0 0 16 16" version="1.1" xmlns="http://www.w3.org/2000/svg" xmlns:xlink="http://www.w3.org/1999/xlink">
    <!-- Generator: Sketch 40.3 (33839) - http://www.bohemiancoding.com/sketch -->
    <title>ic_remind_samll</title>
    <desc>Created with Sketch.</desc>
    <defs></defs>
    <g id="建站列表页" stroke="none" stroke-width="1" fill="none" fill-rule="evenodd">
        <g id="表单_表单提醒" transform="translate(-1315.000000, -345.000000)" fill="#898989">
            <g id="Group-5" transform="translate(1315.000000, 345.000000)">
                <path d="M12.1214563,12.7849244 C12.2613211,12.9243688 12.396886,13.0593451 12.5322185,13.1944374 C12.7623242,13.4241174 12.9946382,13.6517085 13.2217224,13.884348 C13.4547918,14.1231387 13.3513023,14.5078731 13.0329892,14.5885919 C12.8705205,14.6297928 12.7307138,14.5811061 12.6123487,14.4623781 C12.243424,14.0923251 11.8729304,13.7238969 11.5040057,13.3537858 C11.4818667,13.3315607 11.4687344,13.3004569 11.4606574,13.2879226 C9.34658917,14.4854157 7.26180709,14.4852417 5.16551973,13.2973814 C5.1507604,13.3114245 5.12740119,13.3326051 5.10508789,13.3548884 C4.73110781,13.728075 4.35904526,14.1032346 3.9827409,14.474042 C3.75019454,14.7031998 3.37261181,14.6120358 3.28097622,14.3068015 C3.23053889,14.1387485 3.27667625,13.993095 3.40044529,13.8697246 C3.73973519,13.5316457 4.07821156,13.1926964 4.41785009,12.8549078 C4.44027961,12.8326245 4.46950767,12.8171307 4.49681823,12.7975748 C3.08910514,11.5328836 2.36886226,9.97996083 2.42819004,8.10398878 C2.48019628,6.45932161 3.13797356,5.07271086 4.3493994,3.95779341 C6.68665872,1.80687839 10.3595778,1.94330533 12.5673734,4.25467142 C14.859367,6.65412608 14.7311237,10.5532326 12.1214563,12.7849244 L12.1214563,12.7849244 L12.1214563,12.7849244 Z M3.25982511,8.30564069 C3.26017373,11.0794425 5.516896,13.3423541 8.28420914,13.3439209 C11.0888854,13.3454877 13.343632,11.1050914 13.3481063,8.31231406 C13.3525806,5.52887939 11.0887692,3.26503931 8.30402383,3.26811487 C5.51782572,3.27113241 3.25947645,5.52650019 3.25982511,8.30564069 L3.25982511,8.30564069 L3.25982511,8.30564069 Z M4.45991997,2 C4.53319356,2.01398506 4.61012795,2.01810516 4.67898537,2.04381216 C4.85981601,2.11130027 4.96876764,2.30593062 4.93814498,2.48901314 C4.9036872,2.69472711 4.74354286,2.8435143 4.53929487,2.84717014 C4.16235131,2.85390155 3.81719256,2.95614922 3.51677661,3.18559716 C3.07329992,3.52431434 2.85301425,3.97821973 2.8386617,4.53390856 C2.83418742,4.70677792 2.75272065,4.83287564 2.59832894,4.90715319 C2.44957365,4.97870336 2.30366564,4.96152666 2.17100614,4.86525602 C2.05240867,4.77919853 1.99592815,4.65762708 2.00022809,4.5120315 C2.02631839,3.62412478 2.4036687,2.92475533 3.13948439,2.42489072 C3.53548723,2.15580875 3.97977744,2.0270997 4.45991997,2 L4.45991997,2 L4.45991997,2 Z M14.609679,4.48615044 C14.6147344,4.55253597 14.6063669,4.66621542 14.5348946,4.76741859 C14.4289064,4.91748242 14.2407542,4.98380995 14.0660249,4.93071311 C13.8911212,4.87755825 13.771536,4.7211692 13.768863,4.5242757 C13.7646792,4.20940858 13.6876286,3.91519989 13.5180709,3.65058616 C13.186916,3.13371895 12.7089234,2.86956945 12.0956565,2.84914312 C11.7923352,2.83904602 11.5948858,2.56729469 11.6916348,2.29095905 C11.751718,2.1193083 11.9095381,2.00673139 12.1010024,2.01195403 C13.0411823,2.037603 13.7617157,2.45141012 14.2570243,3.24826884 C14.4818424,3.60973353 14.5904453,4.0097877 14.609679,4.48615044 L14.609679,4.48615044 L14.609679,4.48615044 Z M7.88599823,7.043793 C7.88605633,6.62603988 7.88460365,6.20828677 7.88675362,5.79059167 C7.88774145,5.60159014 7.99843631,5.4493212 8.16781975,5.39134991 C8.33470458,5.33424905 8.52006762,5.38734587 8.63145976,5.52499144 C8.70229284,5.61244164 8.72681423,5.71399297 8.726698,5.82506109 C8.72582639,6.56481895 8.72698854,7.30451877 8.72495478,8.04427663 C8.72478045,8.10700633 8.74168975,8.15128272 8.7868974,8.19608134 C9.28150872,8.6867193 9.77455114,9.17904011 10.2665476,9.67228939 C10.4549322,9.86117484 10.450458,10.1412244 10.2605625,10.3034744 C10.0959439,10.4441954 9.85874897,10.4403075 9.69744245,10.2887349 C9.58111119,10.1794657 9.47047444,10.0641614 9.35751339,9.95135242 C8.92403119,9.5185697 8.49264087,9.08375595 8.05596276,8.65428091 C7.93573826,8.53607517 7.88134962,8.40452269 7.88396447,8.23606356 C7.89012387,7.83873673 7.88594012,7.44123586 7.88599823,7.043793 L7.88599823,7.043793 L7.88599823,7.043793 Z" id="ic_remind_samll"></path>
            </g>
        </g>
    </g>
</svg>