<?xml version="1.0" encoding="utf-8"?>
<!-- Generator: Adobe Illustrator 19.2.1, SVG Export Plug-In . SVG Version: 6.00 Build 0)  -->
<svg version="1.1" id="图层_1" xmlns="http://www.w3.org/2000/svg" xmlns:xlink="http://www.w3.org/1999/xlink" x="0px" y="0px"
	 viewBox="0 0 16 16" style="enable-background:new 0 0 16 16;" xml:space="preserve">
<style type="text/css">
	.st0{fill:#505050;}
</style>
<path class="st0" d="M15,6.5H2l2.4-3.2c0.2-0.2,0.1-0.5-0.1-0.7C4.1,2.4,3.8,2.5,3.6,2.7l-3,4c0,0,0,0,0,0C0.5,6.8,0.5,6.9,0.5,7
	s0,0.2,0.1,0.3c0,0,0,0,0,0l3,4c0.1,0.1,0.2,0.2,0.4,0.2c0.1,0,0.2,0,0.3-0.1c0.2-0.2,0.3-0.5,0.1-0.7L2,7.5h12.5v4.1
	c0,0.3,0.2,0.5,0.5,0.5s0.5-0.2,0.5-0.5V7C15.5,6.7,15.3,6.5,15,6.5z"/>
</svg>
