<?xml version="1.0" encoding="UTF-8" standalone="no"?>
<svg width="18px" height="18px" viewBox="0 0 18 18" version="1.1" xmlns="http://www.w3.org/2000/svg" xmlns:xlink="http://www.w3.org/1999/xlink">
    <!-- Generator: Sketch 40.3 (33839) - http://www.bohemiancoding.com/sketch -->
    <title>web_search</title>
    <desc>Created with Sketch.</desc>
    <defs></defs>
    <g id="方案1" stroke="none" stroke-width="1" fill="none" fill-rule="evenodd">
        <g id="地图_内容" transform="translate(-1396.000000, -398.000000)" fill="#60A3F5">
            <g id="Group-2" transform="translate(1396.000000, 398.000000)">
                <path d="M12.350692,7.33131872 L12.350692,7.33131872 C12.113278,7.33131872 11.9262613,7.51821617 11.9262613,7.76063672 C11.9262613,8.31101329 11.8151442,8.84136514 11.6029288,9.35654674 L11.6029288,9.38688723 C11.395571,9.86141257 11.0974373,10.3059008 10.6982052,10.7100362 C10.2989731,11.1038558 9.83902134,11.396945 9.3490133,11.6090251 C8.84352174,11.8159472 8.29765158,11.9321513 7.75694258,11.9321513 C7.51952853,11.9321513 7.32765425,12.1138909 7.32765425,12.3511536 C7.32765425,12.5835617 7.51952853,12.7804716 7.75694258,12.7804716 C8.40907224,12.7804716 9.06605947,12.6494006 9.6823645,12.3966643 C10.2686133,12.1542437 10.8245022,11.7907646 11.3044915,11.3159359 C11.7796232,10.8414105 12.1333155,10.2858761 12.3862131,9.70000114 L12.3862131,9.68483089 C12.6436646,9.06861544 12.7751228,8.41720502 12.7751228,7.76063672 C12.7751228,7.51821617 12.5832485,7.33131872 12.350692,7.33131872 M5.80146442,3.13947598 L5.80146442,3.13947598 C5.49816948,3.26599584 5.21005447,3.42740727 4.95229931,3.59913447 C4.68968658,3.79118981 4.436789,3.98809962 4.21455487,4.21019204 L4.21455487,4.21534992 C3.98199839,4.44260023 3.76978302,4.69503314 3.59794625,4.95778182 L3.59794625,4.9626363 C3.41092955,5.23539735 3.2542727,5.51331628 3.13313689,5.80610205 C3.04205733,6.02819448 3.14315564,6.27577291 3.36569337,6.3667944 C3.57790874,6.45751247 3.83050272,6.35647863 3.92127869,6.13954409 C4.01751942,5.89712354 4.14381641,5.65470299 4.29531208,5.43230716 L4.29531208,5.44262293 C4.44711135,5.21537262 4.6238057,5.01330493 4.81082239,4.81639512 C4.99783909,4.62949767 5.21005447,4.45261259 5.43744977,4.31122588 C5.64966515,4.15466893 5.89224038,4.03361036 6.13481561,3.93257651 C6.34703098,3.83154266 6.45329047,3.58396423 6.36737209,3.36672629 C6.26627377,3.14463386 6.02369854,3.05361238 5.80146442,3.13947598 M12.2344138,12.2352529 L12.2344138,12.2352529 L12.2192339,12.2452652 C11.6433074,12.8259823 10.9459416,13.2907987 10.1775337,13.6187794 C9.43978927,13.9170265 8.61612644,14.0936082 7.75694258,14.0936082 C6.89290115,14.0936082 6.0740959,13.9170265 5.33149388,13.6187794 C4.55822841,13.2907987 3.86086258,12.8159699 3.27977498,12.2352529 L3.2746138,12.2352529 L3.27977498,12.2352529 C2.69352621,11.6393656 2.22355567,10.9524568 1.89991964,10.1745265 L1.88990088,10.1493439 C1.58660595,9.41206984 1.42509153,8.59894459 1.42509153,7.76063672 C1.42509153,6.89684284 1.59176712,6.08402099 1.89991964,5.3364312 C2.22355567,4.56881668 2.68836503,3.87189552 3.27977498,3.29603293 C4.42677025,2.13945328 6.00335744,1.43251975 7.75694258,1.43251975 C8.61612644,1.43251975 9.43978927,1.60940484 10.1775337,1.90734849 C10.9559604,2.23563264 11.648165,2.70014562 12.2344138,3.29603293 L12.2699348,3.32637343 C12.8358425,3.89192025 13.2906331,4.58398693 13.609108,5.3364312 L13.6242879,5.37678406 C13.9172605,6.11405808 14.0890972,6.91201308 14.0890972,7.76063672 C14.0890972,8.61896931 13.9172605,9.44241034 13.609108,10.1745265 C13.2906331,10.9624691 12.8155014,11.6593903 12.2344138,12.2352529 M16.7877846,15.790552 L13.7150638,12.7149361 C14.2105367,12.1138909 14.6246451,11.4524681 14.9230824,10.7252065 C15.3019734,9.81104735 15.5090276,8.80586676 15.5090276,7.76063672 C15.5090276,6.72541904 15.3019734,5.75057895 14.9379587,4.83641985 L14.9230824,4.79606699 C14.5338691,3.86673764 13.972819,3.02327189 13.270292,2.31633836 L13.2350746,2.28114339 C12.5325475,1.56905198 11.6685061,0.993189389 10.7234039,0.599369769 C9.80380391,0.22041699 8.80314314,0.00348245379 7.75694258,0.00348245379 C5.6193053,0.00348245379 3.67900705,0.882143179 2.27395303,2.28114339 C1.55654969,2.9932348 0.985480847,3.84671291 0.586248772,4.79606699 C0.212215376,5.72023845 0,6.72026116 0,7.76063672 C0,8.79069651 0.212215376,9.78586474 0.575926422,10.6897081 L0.586248772,10.7252065 C0.980319671,11.6797184 1.55654969,12.538051 2.27395303,13.2452879 C2.99165997,13.9622338 3.84052148,14.5329385 4.79078489,14.9219037 C5.70522368,15.3057109 6.71104563,15.5077786 7.75724618,15.5077786 C8.80314314,15.5077786 9.80896509,15.3057109 10.7234039,14.9219037 C11.4511296,14.62396 12.1181355,14.2146667 12.7147067,13.7198133 L15.792285,16.7954292 C16.0700777,17.0681903 16.5148495,17.0681903 16.7877846,16.7954292 C17.0707385,16.5178137 17.0707385,16.0681676 16.7877846,15.790552" id="web_search"></path>
            </g>
        </g>
    </g>
</svg>