<?xml version="1.0" encoding="UTF-8" standalone="no"?>
<svg width="15px" height="14px" viewBox="0 0 15 14" version="1.1" xmlns="http://www.w3.org/2000/svg" xmlns:xlink="http://www.w3.org/1999/xlink">
    <!-- Generator: Sketch 41.2 (35397) - http://www.bohemiancoding.com/sketch -->
    <title>ic_select</title>
    <desc>Created with Sketch.</desc>
    <defs></defs>
    <g id="添加图片_陈旭" stroke="none" stroke-width="1" fill="none" fill-rule="evenodd">
        <g id="3、图片_我的图片_管理" transform="translate(-804.000000, -276.000000)" fill="#979797">
            <g id="ic_select" transform="translate(804.000000, 275.500000)">
                <path d="M3.5,1.9955775 C3.5,1.72149742 3.72135938,1.5 3.9955775,1.5 L13.0044225,1.5 C13.2785026,1.5 13.5,1.72135938 13.5,1.9955775 L13.5,11.0044225 C13.5,11.2785026 13.2786406,11.5 13.0044225,11.5 L3.9955775,11.5 C3.72149742,11.5 3.5,11.2786406 3.5,11.0044225 L3.5,1.9955775 Z M2.5,1.9955775 L2.5,11.0044225 C2.5,11.831065 3.16935218,12.5 3.9955775,12.5 L13.0044225,12.5 C13.831065,12.5 14.5,11.8306478 14.5,11.0044225 L14.5,1.9955775 C14.5,1.16893503 13.8306478,0.5 13.0044225,0.5 L3.9955775,0.5 C3.16893503,0.5 2.5,1.16935218 2.5,1.9955775 Z" id="Rectangle"></path>
                <path d="M11.0044225,13.5 L1.9955775,13.5 C1.72149742,13.5 1.5,13.2786406 1.5,13.0044225 L1.5,3.9955775 C1.5,3.71943512 1.27614237,3.4955775 1,3.4955775 C0.723857625,3.4955775 0.5,3.71943512 0.5,3.9955775 L0.5,13.0044225 C0.5,13.831065 1.16935218,14.5 1.9955775,14.5 L11.0044225,14.5 C11.2805649,14.5 11.5044225,14.2761424 11.5044225,14 C11.5044225,13.7238576 11.2805649,13.5 11.0044225,13.5 Z" id="Rectangle"></path>
                <path d="M6.37606138,6.19931035 C6.1940772,5.99161739 5.87818146,5.9707763 5.67048849,6.15276048 C5.46279552,6.33474466 5.44195443,6.65064041 5.62393862,6.85833337 L7.44224222,8.93350753 C7.6409291,9.16026277 7.99360455,9.16091971 8.19313481,8.93490623 L11.3748312,5.33091021 C11.5575879,5.12389666 11.5379238,4.80792546 11.3309102,4.6251688 C11.1238967,4.44241213 10.8079255,4.46207623 10.6251688,4.66908979 L7.81971385,7.84690665 L6.37606138,6.19931035 Z" id="Path-15"></path>
            </g>
        </g>
    </g>
</svg>