<?xml version="1.0" encoding="utf-8"?>
<!-- Generator: Adobe Illustrator 19.2.1, SVG Export Plug-In . SVG Version: 6.00 Build 0)  -->
<svg version="1.1" id="图层_1" xmlns="http://www.w3.org/2000/svg" xmlns:xlink="http://www.w3.org/1999/xlink" x="0px" y="0px"
	 viewBox="0 0 16 16" style="enable-background:new 0 0 16 16;" xml:space="preserve">
<style type="text/css">
	.st0{fill:#222222;}
</style>
<path class="st0" d="M15.5,9.7l-1.4-1.8l1.3-1.7c0.1-0.1,0.1-0.3,0.1-0.5l-0.1-0.3c-0.4-1-1-1.8-1.6-2.5l-0.1-0.1
	c-0.1-0.2-0.3-0.3-0.5-0.3l-2.1,0.2l-0.9-1.8C10.2,0.7,10,0.6,9.8,0.6l-0.1,0C8.8,0.4,7.9,0.5,7.2,0.6c-0.2,0-0.5,0-0.7,0H6.3
	c-0.2,0-0.4,0.1-0.5,0.3L5,2.7L2.9,2.5c-0.2,0-0.4,0.1-0.5,0.3L2.4,2.9C1.7,3.7,1.1,4.6,0.8,5.6L0.7,5.8c-0.1,0.2-0.1,0.4,0,0.5
	l1.2,1.6L0.6,9.5C0.5,9.6,0.5,9.8,0.5,10l0.1,0.3c0.3,1,0.9,1.9,1.5,2.7l0.2,0.2c0.1,0.1,0.3,0.2,0.4,0.1L5,13l0.9,2.1
	c0.1,0.2,0.3,0.3,0.5,0.3l0.1,0c0.5,0.1,1.1,0.1,1.6,0.1c0.4,0,0.8,0,1.3-0.1h0.1c0.2,0,0.4-0.1,0.5-0.3l1-2.1l2.4,0.3
	c0.1,0,0.3,0,0.4-0.1l0.2-0.2c0.7-0.8,1.2-1.7,1.5-2.5l0.1-0.2C15.6,10.1,15.6,9.8,15.5,9.7z M13.2,12.2L13.2,12.2L10.7,12
	c-0.2,0-0.4,0.1-0.5,0.3l-1,2.1c-0.3,0.1-0.7,0.1-1.1,0.1c-0.4,0-0.9,0-1.4-0.1l-1-2.1C5.7,12.1,5.5,12,5.2,12l-2.4,0.3l0,0
	c-0.5-0.6-1-1.5-1.3-2.3l0,0l1.3-1.7C3,8,3,7.8,2.9,7.6L1.7,5.9c0.3-0.9,0.8-1.6,1.5-2.4c0,0,0,0,0,0l2.1,0.2c0.2,0,0.4-0.1,0.5-0.3
	l0.9-1.8c0.2,0,0.4,0,0.7,0c0.7-0.1,1.4-0.1,2.2,0l0.9,1.8c0.1,0.2,0.3,0.3,0.5,0.3l2.1-0.2c0,0,0,0,0,0c0.6,0.6,1.1,1.3,1.5,2.2
	l0,0.1l-1.3,1.8C13,7.8,13,8,13.1,8.2l1.4,1.9C14.3,10.8,13.8,11.6,13.2,12.2z M8.8,4.9C8.5,4.8,8.2,4.8,8,4.8
	c-0.8,0-1.6,0.3-2.1,0.7C5.3,6,4.8,6.7,4.7,7.4c-0.2,0.9,0,1.9,0.5,2.6c0.5,0.7,1.2,1.2,2,1.4c0.3,0.1,0.5,0.1,0.8,0.1
	c0.9,0,1.6-0.3,2.1-0.8c0.6-0.5,1.1-1.2,1.2-1.9c0.2-0.8,0.1-1.7-0.5-2.5C10.4,5.6,9.7,5.2,8.8,4.9z M10.3,8.6
	c-0.1,0.5-0.4,0.9-0.9,1.3c-0.4,0.4-0.8,0.6-1.4,0.6c-0.2,0-0.3,0-0.4,0c0,0-0.1,0-0.1,0C6.9,10.3,6.4,10,6.1,9.5
	C5.7,8.9,5.6,8.2,5.7,7.6c0.1-0.5,0.4-0.9,0.8-1.3C6.9,6,7.5,5.8,8,5.8c0.2,0,0.3,0,0.4,0c0,0,0.1,0,0.1,0c0.7,0.2,1.2,0.5,1.5,1
	C10.3,7.4,10.5,8.1,10.3,8.6z"/>
</svg>
