<?xml version="1.0" encoding="utf-8"?>
<!-- Generator: Adobe Illustrator 19.2.1, SVG Export Plug-In . SVG Version: 6.00 Build 0)  -->
<svg version="1.1" id="图层_1" xmlns="http://www.w3.org/2000/svg" xmlns:xlink="http://www.w3.org/1999/xlink" x="0px" y="0px"
	 viewBox="0 0 12 12" style="enable-background:new 0 0 12 12;" xml:space="preserve">
<style type="text/css">
	.st0{fill:#272636;}
</style>
<title>web_shear</title>
<desc>Created with Sketch.</desc>
<g id="方案1">
	<g id="图片_样式" transform="translate(-24.000000, -343.000000)">
		<g id="web_shear" transform="translate(24.000000, 343.000000)">
			<path id="Fill-1" class="st0" d="M8.9,10.7c0.3,0,0.6-0.1,0.8-0.3C9.9,10.2,10,9.9,10,9.6c0-0.3-0.1-0.6-0.3-0.8
				C9.5,8.6,9.2,8.5,8.9,8.5S8.3,8.6,8.1,8.8C7.9,9.1,7.7,9.3,7.7,9.6c0,0.3,0.1,0.6,0.3,0.8C8.3,10.6,8.6,10.7,8.9,10.7L8.9,10.7z
				 M3.2,10.3c0.3,0,0.5-0.1,0.7-0.3c0.2-0.2,0.3-0.4,0.3-0.7C4.3,9,4.2,8.8,4,8.6C3.8,8.4,3.5,8.3,3.2,8.3c-0.3,0-0.5,0.1-0.7,0.3
				C2.3,8.8,2.2,9,2.2,9.3c0,0.3,0.1,0.5,0.3,0.7C2.7,10.2,2.9,10.3,3.2,10.3L3.2,10.3z M8.8,7.3c0.1,0.1,0.3,0.1,0.6,0.2
				c0.3,0.1,0.5,0.2,0.7,0.4c0.2,0.2,0.5,0.4,0.6,0.7C10.9,8.8,11,9.2,11,9.7c0,0.6-0.2,1-0.5,1.3c-0.3,0.3-0.7,0.5-1.1,0.6
				c-0.4,0.1-0.8,0.1-1.3-0.1c-0.4-0.1-0.8-0.4-1-0.8c-0.3-0.5-0.4-0.9-0.4-1.4c0-0.5,0.1-1,0.2-1.5c0-0.3,0-0.5,0-0.6
				C6.8,7.1,6.8,7,6.7,6.9c0,0-0.1-0.1-0.2-0.2C6.5,6.6,6.4,6.5,6.3,6.4C6.2,6.3,6.2,6.2,6.1,6.1C6,6.2,5.9,6.3,5.9,6.4
				C5.8,6.5,5.7,6.5,5.7,6.7C5.6,6.8,5.5,6.9,5.4,7C5.3,7.1,5.2,7.3,5.2,7.4s0,0.3,0,0.4c0,0.1,0,0.2,0.1,0.5c0,0.2,0,0.5,0,0.8
				S5.3,9.7,5.2,10c-0.1,0.3-0.3,0.6-0.5,0.9c-0.3,0.4-0.7,0.6-1.1,0.7c-0.4,0.1-0.8,0.1-1.2-0.1c-0.4-0.1-0.7-0.4-1-0.7
				C1.1,10.5,1,10.1,1,9.7c0-0.4,0.1-0.8,0.2-1.1c0.2-0.3,0.4-0.5,0.6-0.7c0.3-0.2,0.5-0.3,0.8-0.4c0.3-0.1,0.5-0.2,0.7-0.3
				C3.7,7,4,6.9,4.1,6.8c0.1-0.1,0.3-0.3,0.4-0.4C4.6,6.3,4.7,6.2,4.8,6C4.9,5.9,5,5.8,5.1,5.7c0.1-0.1,0.2-0.3,0.3-0.5
				C5.3,5.1,5.2,5,5.1,4.9C5,4.8,4.9,4.7,4.8,4.5C4.7,4.4,4.6,4.2,4.5,4C4.3,3.8,4.2,3.6,4,3.4C3.9,3.2,3.7,2.9,3.6,2.7
				C3.5,2.5,3.4,2.2,3.3,2C3.2,1.8,3.1,1.7,3.1,1.6C3,1.4,3,1.1,2.9,0.8c0-0.3,0-0.5,0.2-0.7C3.3,0,3.4,0,3.5,0.1
				c0.1,0.1,0.2,0.2,0.3,0.4c0,0.1,0.2,0.3,0.4,0.7C4.4,1.6,4.7,2,5,2.4c0.3,0.5,0.7,1.1,1.1,1.7c0.3-0.5,0.6-1,0.9-1.4
				c0.2-0.4,0.5-0.7,0.7-1.1C7.8,1.2,7.9,1,8,0.9c0.1-0.2,0.3-0.4,0.4-0.6C8.5,0.2,8.6,0.1,8.6,0c0,0,0.1,0,0.2,0
				C8.9,0.1,9,0.1,9,0.2c0,0.1,0.1,0.2,0,0.4c0,0.2,0,0.4-0.1,0.8C9,1.6,8.9,1.8,8.8,2C8.7,2.2,8.6,2.4,8.5,2.6
				C8.4,2.8,8.3,3,8.2,3.2S8,3.5,7.9,3.6C7.9,3.7,7.8,3.8,7.6,4C7.5,4.2,7.4,4.3,7.2,4.5C7.1,4.7,6.9,4.9,6.8,5.1
				C6.9,5.3,7,5.4,7.1,5.6c0.1,0.1,0.2,0.2,0.2,0.4C7.4,6,7.4,6.1,7.5,6.2C7.6,6.4,7.8,6.6,8,6.8C8.3,7,8.6,7.2,8.8,7.3L8.8,7.3z"/>
		</g>
	</g>
</g>
</svg>
