<?xml version="1.0" encoding="UTF-8" standalone="no"?>
<svg width="24px" height="24px" viewBox="0 0 24 24" version="1.1" xmlns="http://www.w3.org/2000/svg" xmlns:xlink="http://www.w3.org/1999/xlink">
    <!-- Generator: Sketch 40.1 (33804) - http://www.bohemiancoding.com/sketch -->
    <title>ic_iphone</title>
    <desc>Created with Sketch.</desc>
    <defs></defs>
    <g id="方案1" stroke="none" stroke-width="1" fill="none" fill-rule="evenodd">
        <path d="M14.2308157,8.20581907 C14.8012758,8.20581907 15.0865059,7.95599689 15.0865059,7.4559591 L15.0865059,5.74379195 L8.77328295,5.74379195 L8.77328295,7.4559591 C8.77328295,7.95599689 9.02349856,8.20581907 9.52314292,8.20581907 L14.2308157,8.20581907 Z M14.8520271,18.1227762 C15.6329673,17.3977017 16.0252078,16.4491643 16.0252078,15.2771638 C16.0252078,14.1051634 15.6325739,13.1570193 14.8520271,12.431158 C14.182425,11.7060836 13.2610336,11.3429562 12.0906068,11.3429562 C10.9189998,11.3429562 9.99760836,11.7056902 9.32839964,12.431158 C8.54588575,13.1566259 8.15679262,14.1051634 8.15679262,15.2771638 C8.15679262,16.4491643 8.54588575,17.3969149 9.32839964,18.1227762 C9.99760836,18.8474572 10.9189998,19.2105846 12.0906068,19.2105846 C13.2618204,19.2105846 14.182425,18.8478506 14.8520271,18.1227762 L14.8520271,18.1227762 Z M2.56746388,22.1136364 C2.06899978,22.1136364 1.64135141,21.936597 1.28333852,21.579371 C0.999288731,21.2941409 0.855296733,20.6520782 0.855296733,19.6535764 C0.855296733,17.2993465 1.49735941,15.4097466 2.78109135,13.9835964 C3.85158924,12.7702867 4.4932585,11.9861992 4.7072794,11.6289731 C5.13532118,10.8448855 5.34934208,10.0958124 5.34934208,9.38214714 C5.34934208,8.45564125 5.67076684,7.95599689 6.31282952,7.88478773 L6.31282952,5.7445788 C4.88313848,5.81618137 4.173014,6.24422316 4.173014,7.02909758 L4.173014,8.3124361 C4.173014,9.16812625 3.9947944,9.77517448 3.63756835,10.1320071 C3.42394088,10.3456346 2.81728606,10.4522516 1.81957102,10.4522516 C0.604687708,10.4522516 0,10.0242098 0,9.16812625 C0,6.957495 0.604687708,5.24611469 1.81957102,4.03241165 C3.03170038,2.82028228 4.49404534,2.14281174 6.20542565,2 L17.6555435,2 C19.3677106,2.14202489 20.830449,2.82028228 22.0429718,4.03241165 C23.2551011,5.24611469 23.8621494,6.95710158 23.8621494,9.16812625 C23.8621494,10.0242098 23.2551011,10.4522516 22.0429718,10.4522516 C21.0444699,10.4522516 20.4374216,10.3456346 20.224581,10.1320071 C19.8630273,9.77478106 19.6895288,9.16812625 19.6895288,8.3124361 L19.6895288,7.02909758 C19.6895288,6.24461658 18.9758635,5.81618137 17.5497133,5.7445788 L17.5497133,7.88478773 C18.191776,7.95599689 18.5132007,8.45564125 18.5132007,9.38214714 C18.5132007,10.0958124 18.7256479,10.8448855 19.1552634,11.6289731 C19.3677106,11.9861992 20.0097733,12.7702867 21.0798778,13.9835964 C22.3640031,15.4097466 23.0060658,17.3001334 23.0060658,19.6535764 C23.0060658,20.6520782 22.8636475,21.2941409 22.5788108,21.579371 C22.2211914,21.9373839 21.793543,22.1136364 21.2938986,22.1136364 L2.56746388,22.1136364 L2.56746388,22.1136364 Z" id="ic_iphone" fill="#F85959"></path>
    </g>
</svg>