<?xml version="1.0" encoding="UTF-8" standalone="no"?>
<svg width="10px" height="14px" viewBox="0 0 10 14" version="1.1" xmlns="http://www.w3.org/2000/svg" xmlns:xlink="http://www.w3.org/1999/xlink">
    <!-- Generator: Sketch 40.1 (33804) - http://www.bohemiancoding.com/sketch -->
    <title>ic_iphone_left</title>
    <desc>Created with Sketch.</desc>
    <defs></defs>
    <g id="方案1" stroke="none" stroke-width="1" fill="none" fill-rule="evenodd">
        <path d="M6.57013541,9.35715735 C6.35555111,9.36743454 6.17673086,9.4206891 6.03389011,9.46296575 C5.75919635,9.54588404 5.54224215,9.6110508 4.72957953,7.87046753 L4.63241334,7.66142003 C3.83267749,5.9486319 4.01494487,5.74168655 4.08367217,5.66343972 C4.1207289,5.62163022 4.16101732,5.58215644 4.2030293,5.54104766 C4.26550867,5.47891734 4.33035794,5.41468486 4.39434542,5.3418102 L4.39477632,5.3418102 C4.4587638,5.26916911 4.5218895,5.18858655 4.58135262,5.09725965 C5.00319605,4.45002988 4.7584493,3.29197677 4.57510469,2.65969565 C4.38960561,2.01947306 4.07354621,1.22322395 3.62089399,1.06509528 C3.33111901,0.964425471 2.42926171,0.87473358 1.73854157,1.65813619 C1.47612824,1.95617487 1.27834874,2.34530688 1.15080466,2.81595574 C0.634380402,4.72144129 1.53472958,7.05553261 2.48312323,9.08644666 C3.43194778,11.1185286 4.62896621,13.274404 6.30664485,13.8590363 C7.46423665,14.2635841 8.18231844,13.7055791 8.50656479,13.3374686 C8.76660821,13.0424664 8.91914404,12.7140632 8.97106654,12.5227673 C9.08223672,12.1116794 8.87282313,11.5099963 8.3467038,10.7347687 C7.98798607,10.2064274 7.28003024,9.32469075 6.57013541,9.35715735" id="ic_iphone_left" fill="#F85959"></path>
    </g>
</svg>