<?xml version="1.0" encoding="utf-8"?>
<!-- Generator: Adobe Illustrator 19.2.1, SVG Export Plug-In . SVG Version: 6.00 Build 0)  -->
<svg version="1.1" id="图层_1" xmlns="http://www.w3.org/2000/svg" xmlns:xlink="http://www.w3.org/1999/xlink" x="0px" y="0px"
	 viewBox="0 0 16 16" style="enable-background:new 0 0 16 16;" xml:space="preserve">
<style type="text/css">
	.st0{fill:#505050;}
</style>
<path class="st0" d="M12.9,6.1C12.9,5.8,13,5.4,13,5c0-2.8-2.2-5-5-5S3,2.2,3,5c0,0.4,0.1,0.8,0.1,1.1C1.6,7,0.5,8.6,0.5,10.5
	c0,2.8,2.2,5,5,5c0.9,0,1.8-0.3,2.5-0.7c0.7,0.4,1.6,0.7,2.5,0.7c2.8,0,5-2.2,5-5C15.5,8.6,14.4,7,12.9,6.1z M4,5c0-2.2,1.8-4,4-4
	s4,1.8,4,4c0,0.3,0,0.5-0.1,0.7c-0.5-0.1-0.9-0.2-1.4-0.2C9.6,5.5,8.7,5.8,8,6.2C7.3,5.8,6.4,5.5,5.5,5.5c-0.5,0-1,0.1-1.4,0.2
	C4,5.5,4,5.3,4,5z M9.5,10.5c0,1.3-0.6,2.4-1.5,3.1c-0.9-0.7-1.5-1.8-1.5-3.1c0-0.3,0-0.5,0.1-0.7C7,9.9,7.5,10,8,10s1-0.1,1.4-0.2
	C9.5,10,9.5,10.2,9.5,10.5z M8,9C7.6,9,7.2,8.9,6.9,8.8c0.3-0.6,0.6-1,1.1-1.4c0.5,0.4,0.9,0.9,1.1,1.4C8.8,8.9,8.4,9,8,9z M6,8.4
	C5.3,8,4.7,7.4,4.4,6.7c0.4-0.1,0.7-0.2,1.1-0.2c0.6,0,1.1,0.1,1.6,0.3C6.6,7.3,6.2,7.8,6,8.4z M8.9,6.8c0.5-0.2,1-0.3,1.6-0.3
	c0.4,0,0.8,0.1,1.1,0.2C11.3,7.4,10.7,8,10,8.4C9.8,7.8,9.4,7.3,8.9,6.8z M5.5,14.5c-2.2,0-4-1.8-4-4c0-1.5,0.8-2.7,2-3.4
	c0.5,1,1.2,1.8,2.2,2.3c-0.1,0.4-0.1,0.7-0.1,1.1c0,1.4,0.6,2.7,1.6,3.7C6.6,14.4,6.1,14.5,5.5,14.5z M10.5,14.5
	c-0.6,0-1.1-0.1-1.6-0.3c1-0.9,1.6-2.2,1.6-3.7c0-0.4-0.1-0.8-0.1-1.1c1-0.5,1.7-1.3,2.2-2.3c1.2,0.7,2,2,2,3.4
	C14.5,12.7,12.7,14.5,10.5,14.5z"/>
</svg>
