<?xml version="1.0" encoding="utf-8"?>
<!-- Generator: Adobe Illustrator 19.2.1, SVG Export Plug-In . SVG Version: 6.00 Build 0)  -->
<svg version="1.1" id="图层_1" xmlns="http://www.w3.org/2000/svg" xmlns:xlink="http://www.w3.org/1999/xlink" x="0px" y="0px"
	 viewBox="0 0 8 14" style="enable-background:new 0 0 8 14;" xml:space="preserve">
<style type="text/css">
	.st0{fill:#E8E8E8;}
</style>
<path class="st0" d="M1.6,4.2L4,2.3l2.4,1.9C6.6,4.3,6.8,4.4,7,4.4c0.3,0,0.6-0.1,0.8-0.4c0.3-0.4,0.3-1.1-0.2-1.4l-3-2.4
	c-0.4-0.3-0.9-0.3-1.2,0l-3,2.4c-0.4,0.3-0.5,1-0.2,1.4C0.6,4.4,1.2,4.5,1.6,4.2z M6.4,9.2L4,11.1L1.6,9.2C1.2,8.9,0.6,8.9,0.2,9.4
	c-0.3,0.4-0.3,1.1,0.2,1.4l3,2.4c0.2,0.1,0.4,0.2,0.6,0.2s0.4-0.1,0.6-0.2l3-2.4c0.4-0.3,0.5-1,0.2-1.4C7.4,8.9,6.8,8.9,6.4,9.2z"/>
</svg>
