<?xml version="1.0" encoding="utf-8"?>
<!-- Generator: Adobe Illustrator 19.2.1, SVG Export Plug-In . SVG Version: 6.00 Build 0)  -->
<svg version="1.1" id="图层_1" xmlns="http://www.w3.org/2000/svg" xmlns:xlink="http://www.w3.org/1999/xlink" x="0px" y="0px"
	 viewBox="0 0 16 16" style="enable-background:new 0 0 16 16;" xml:space="preserve">
<style type="text/css">
	.st0{fill:#FFFFFF;}
</style>
<g>
	<path class="st0" d="M14.2,15.5H1.5V15c0-2.8,1.7-5.1,4.2-6C4.4,8.2,3.5,6.8,3.5,5.2c0-2.4,2-4.4,4.4-4.4s4.4,2,4.4,4.4
		c0,1.6-0.9,3.1-2.2,3.8c2.4,0.9,4.1,3.3,4.1,6V15.5z M2.5,14.5h10.7c-0.3-2.7-2.6-4.9-5.4-4.9C5,9.6,2.8,11.8,2.5,14.5z M7.9,1.8
		C6,1.8,4.5,3.3,4.5,5.2c0,1.9,1.5,3.4,3.4,3.4s3.4-1.5,3.4-3.4C11.3,3.3,9.8,1.8,7.9,1.8z"/>
</g>
</svg>
