<?xml version="1.0" standalone="no"?> 
<!DOCTYPE svg PUBLIC "-//W3C//DTD SVG 1.1//EN" "http://www.w3.org/Graphics/SVG/1.1/DTD/svg11.dtd" >
<svg xmlns="http://www.w3.org/2000/svg">
<defs>
  <font id="icomoon" horiz-adv-x="70">
    <font-face font-family="icomoon"
      units-per-em="1024" ascent="1024"
      descent="0" />
    <missing-glyph horiz-adv-x="0" />
    <glyph glyph-name="icon-ad"
      unicode="&#xE000;"
      horiz-adv-x="1024" d=" M646.4 422.4C723.2 467.2 780.8 556.8 780.8 652.8C780.8 672 774.4 684.8 755.2 691.2L793.6 883.2C793.6 896 793.6 908.8 780.8 915.2C768 921.6 755.2 921.6 748.8 915.2L608 832L569.6 972.8C563.2 985.6 556.8 992 544 992C531.2 998.4 518.4 992 512 979.2L422.4 832L294.4 953.6C288 966.4 275.2 966.4 262.4 960C249.6 953.6 243.2 940.8 243.2 928L268.8 691.2C268.8 691.2 268.8 691.2 268.8 691.2C256 672 249.6 659.2 249.6 652.8C243.2 582.4 268.8 518.4 320 460.8C339.2 448 358.4 428.8 377.6 422.4C236.8 364.8 128 224 128 57.6V25.6H896V57.6C896 224 793.6 364.8 646.4 422.4zM409.6 761.6C416 755.2 428.8 748.8 435.2 755.2C441.6 755.2 448 761.6 454.4 768L524.8 883.2L556.8 774.4C563.2 768 569.6 755.2 576 755.2C582.4 748.8 595.2 755.2 601.6 755.2L710.4 819.2L684.8 697.6C678.4 697.6 672 697.6 665.6 697.6C627.2 697.6 582.4 704 537.6 716.8C473.6 736 390.4 729.6 332.8 716.8L320 844.8L409.6 761.6zM364.8 505.6C332.8 544 313.6 588.8 313.6 640C339.2 659.2 441.6 678.4 531.2 652.8C582.4 646.4 633.6 640 672 640C684.8 640 704 640 716.8 633.6C710.4 531.2 614.4 441.6 512 441.6C460.8 441.6 403.2 467.2 364.8 505.6zM192 89.6C211.2 249.6 345.6 377.6 512 377.6C678.4 377.6 812.8 249.6 832 89.6H192z" />
    <glyph glyph-name="icon-add"
      unicode="&#xE001;"
      horiz-adv-x="1024" d=" M460.8 896L460.8 563.2L128 563.2L128 460.8L460.8 460.8L460.8 128L563.2 128L563.2 460.8L896 460.8L896 563.2L563.2 563.2L563.2 896z" />
    <glyph glyph-name="icon-add_sample"
      unicode="&#xE002;"
      horiz-adv-x="1024" d=" M486.4 806.4L486.4 537.6L217.6 537.6L217.6 486.4L486.4 486.4L486.4 217.6L537.613 217.6L537.613 486.4L806.4 486.4L806.4 537.6L537.613 537.6L537.613 806.4z M512 32.508C776.816 32.508 991.492 247.184 991.492 512C991.492 776.816 776.816 991.492 512 991.492C247.184 991.492 32.508 776.816 32.508 512C32.508 247.184 247.184 32.508 512 32.508zM512 0C229.23 0 0 229.23 0 512C0 794.77 229.23 1024 512 1024C794.77 1024 1024 794.77 1024 512C1024 229.23 794.77 0 512 0z" />
    <glyph glyph-name="icon-app"
      unicode="&#xE003;"
      horiz-adv-x="1025.2951096121417" d=" M924.061 542.219H637.841A81.59190556492413 81.59190556492413 0 0 0 556.25 623.811V894.489A81.59190556492413 81.59190556492413 0 0 0 637.841 976.081H924.061A81.59190556492413 81.59190556492413 0 0 0 1005.653 894.489V623.811A81.59190556492413 81.59190556492413 0 0 0 924.061 542.219zM638.057 921.47A27.197301854974704 27.197301854974704 0 0 1 610.86 894.489V623.811A27.197301854974704 27.197301854974704 0 0 1 638.057 596.614H924.492A27.197301854974704 27.197301854974704 0 0 1 951.69 623.811V894.489A27.197301854974704 27.197301854974704 0 0 1 924.492 921.686zM395.656 542.219H109.221A81.59190556492413 81.59190556492413 0 0 0 27.629 623.811V894.489A81.59190556492413 81.59190556492413 0 0 0 109.221 975.865H395.656A81.59190556492413 81.59190556492413 0 0 0 477.248 894.489V623.811A81.59190556492413 81.59190556492413 0 0 0 395.656 542.219zM109.437 921.47A27.197301854974704 27.197301854974704 0 0 1 82.239 894.489V623.811A27.197301854974704 27.197301854974704 0 0 1 109.437 596.614H395.872A27.197301854974704 27.197301854974704 0 0 1 423.069 623.811V894.489A27.197301854974704 27.197301854974704 0 0 1 395.872 921.686zM924.061 36.479H637.841A81.59190556492413 81.59190556492413 0 0 0 556.25 117.423V388.533A81.59190556492413 81.59190556492413 0 0 0 637.841 470.125H924.061A81.59190556492413 81.59190556492413 0 0 0 1005.653 388.533V117.423A81.59190556492413 81.59190556492413 0 0 0 924.061 35.831zM638.057 415.73A27.197301854974704 27.197301854974704 0 0 1 610.86 388.533V117.423A27.197301854974704 27.197301854974704 0 0 1 638.057 90.226H924.492A27.197301854974704 27.197301854974704 0 0 1 951.69 117.423V388.533A27.197301854974704 27.197301854974704 0 0 1 924.492 415.73zM395.656 36.479H109.221A81.59190556492413 81.59190556492413 0 0 0 27.629 117.423V388.533A81.59190556492413 81.59190556492413 0 0 0 109.221 470.125H395.656A81.59190556492413 81.59190556492413 0 0 0 477.248 388.533V117.423A81.59190556492413 81.59190556492413 0 0 0 395.656 35.831zM109.437 415.73A27.197301854974704 27.197301854974704 0 0 1 82.239 388.533V117.423A27.197301854974704 27.197301854974704 0 0 1 109.437 90.226H395.872A27.197301854974704 27.197301854974704 0 0 1 423.069 117.423V388.533A27.197301854974704 27.197301854974704 0 0 1 395.872 415.73z" />
    <glyph glyph-name="icon-cellphone"
      unicode="&#xE004;"
      horiz-adv-x="659.5254237288135" d=" M571.01 861.722H89.383V918.997A12.14915254237288 12.14915254237288 0 0 0 101.532 931.146H558.861A12.14915254237288 12.14915254237288 0 0 0 571.01 918.997V861.722H571.01M571.01 277.695H89.383V827.357H571.01V277.695H571.01M571.01 83.656A12.14915254237288 12.14915254237288 0 0 0 558.861 71.506H101.532A12.14915254237288 12.14915254237288 0 0 0 89.383 83.656V242.983H571.01V83.308H571.01M558.861 965.511H101.532A46.68745762711865 46.68745762711865 0 0 1 54.845 918.997V83.482A46.51389830508475 46.51389830508475 0 0 1 101.359 36.968H558.861A46.51389830508475 46.51389830508475 0 0 1 605.375 83.482V918.997A46.68745762711865 46.68745762711865 0 0 1 558.861 965.511H558.861M278.563 174.601H381.831V139.889H278.563V174.601H278.563M278.563 174.601z" />
    <glyph glyph-name="icon-checkbox"
      unicode="&#xE005;"
      horiz-adv-x="1024" d=" M113.778 113.498C113.778 113.635 910.502 113.778 910.502 113.778C910.365 113.778 910.222 910.502 910.222 910.502C910.222 910.365 113.498 910.222 113.498 910.222C113.635 910.222 113.778 113.498 113.778 113.498zM113.498 1024L910.502 1024C973.185 1024 1024 973.22 1024 910.502L1024 113.498C1024 50.815 973.22 0 910.502 0L113.498 0C50.815 0 0 50.78 0 113.498L0 910.502C0 973.185 50.78 1024 113.498 1024z" />
    <glyph glyph-name="icon-checkbox_checked"
      unicode="&#xE006;"
      horiz-adv-x="1024" d=" M910.222 1024L113.778 1024C51.2 1024 0 972.8 0 910.222L0 113.778C0 51.2 51.2 0 113.778 0L910.222 0C972.8 0 1024 51.2 1024 113.778L1024 910.222C1024 972.8 972.8 1024 910.222 1024L910.222 1024zM398.222 227.556L113.778 501.06L193.422 577.641L398.222 380.718L830.578 796.444L910.222 719.863L398.222 227.556L398.222 227.556z" />
    <glyph glyph-name="icon-contactus"
      unicode="&#xE007;"
      horiz-adv-x="1024" d=" M952.765 587.687C948.313 828.104 752.417 1024 507.548 1024C267.13 1024 71.235 828.104 66.783 587.687C26.713 556.522 0 503.096 0 449.67C0 351.722 80.139 271.583 178.087 271.583C222.609 271.583 258.226 284.939 289.391 311.652L204.8 623.304C195.896 623.304 186.991 627.757 178.087 627.757C173.635 627.757 164.73 627.757 160.278 627.757C178.087 801.391 329.461 934.957 507.548 934.957C690.087 934.957 837.009 801.391 859.27 623.304C854.817 623.304 845.913 623.304 841.461 623.304C832.557 623.304 823.652 623.304 810.296 618.852L725.704 307.2C747.965 289.391 779.13 276.035 810.296 267.13C770.226 222.609 743.513 195.896 685.635 173.635L650.017 160.278C632.209 195.896 596.591 218.157 552.07 218.157C489.739 218.157 440.765 169.183 440.765 106.852C440.765 44.522 489.739 -4.452 552.07 -4.452C601.043 -4.452 645.565 31.165 658.922 75.687C779.13 106.852 881.53 186.991 943.861 293.843C988.383 325.009 1019.548 378.435 1019.548 440.765C1019.548 503.096 992.835 556.522 952.765 587.687z" />
    <glyph glyph-name="icon-copy"
      unicode="&#xE008;"
      horiz-adv-x="1024" d=" M160 768C160 819.2 204.8 864 256 864H704C723.2 864 736 876.8 736 896S723.2 928 704 928H256C166.4 928 96 857.6 96 768V320C96 300.8 108.8 288 128 288S160 300.8 160 320V768z M320 192C320 160 345.6 128 384 128H832C864 128 896 153.6 896 192V640C896 672 870.4 704 832 704H384C345.6 704 320 678.4 320 640V192zM576 384H416C396.8 384 384 396.8 384 416S396.8 448 416 448H576V608C576 627.2 588.8 640 608 640S640 627.2 640 608V448H800C819.2 448 832 435.2 832 416S819.2 384 800 384H640V224C640 204.8 627.2 192 608 192S576 204.8 576 224V384zM384 768H832C902.4 768 960 710.4 960 640V192C960 121.6 902.4 64 832 64H384C313.6 64 256 121.6 256 192V640C256 710.4 313.6 768 384 768z" />
    <glyph glyph-name="icon-copy2"
      unicode="&#xE009;"
      horiz-adv-x="1024" d=" M658.286 21.943C643.657 21.943 636.343 29.257 636.343 43.886V285.257C643.657 292.571 650.971 299.886 658.286 299.886H899.657C914.286 299.886 921.6 292.571 921.6 277.943C921.6 263.314 914.286 256 899.657 256H680.229V36.571C680.229 29.257 672.914 21.943 658.286 21.943L658.286 21.943z M658.286 0H248.686C226.743 0 212.114 14.629 212.114 36.571V863.086C212.114 885.029 226.743 899.657 248.686 899.657H906.971C928.914 899.657 943.543 885.029 943.543 863.086V277.943C943.543 270.629 936.229 256 928.914 248.686L687.543 7.314C680.229 7.314 672.914 0 658.286 0L658.286 0zM285.257 80.457H643.657L863.086 299.886V826.514H285.257V80.457L285.257 80.457z M614.4 694.857H380.343C365.714 694.857 358.4 702.171 358.4 716.8S373.029 731.429 380.343 731.429H614.4C629.029 731.429 636.343 724.114 636.343 709.486S629.029 694.857 614.4 694.857L614.4 694.857z M775.314 592.457H380.343C365.714 592.457 358.4 599.771 358.4 614.4C358.4 629.029 365.714 636.343 380.343 636.343H768C782.629 636.343 789.943 629.029 789.943 614.4C789.943 607.086 782.629 592.457 775.314 592.457L775.314 592.457z M775.314 497.371H380.343C365.714 497.371 358.4 504.686 358.4 519.314C358.4 533.943 365.714 541.257 380.343 541.257H768C782.629 541.257 789.943 533.943 789.943 519.314C789.943 504.686 782.629 497.371 775.314 497.371L775.314 497.371z M548.571 402.286H380.343C365.714 402.286 358.4 409.6 358.4 424.229C358.4 431.543 373.029 438.857 380.343 438.857H541.257C555.886 438.857 563.2 431.543 563.2 416.914C563.2 409.6 555.886 402.286 548.571 402.286L548.571 402.286z M497.371 833.829H263.314C248.686 833.829 241.371 841.143 241.371 855.771C241.371 870.4 248.686 877.714 263.314 877.714H497.371C512 877.714 519.314 870.4 519.314 855.771C519.314 841.143 504.686 833.829 497.371 833.829L497.371 833.829z M131.657 95.086C109.714 95.086 95.086 109.714 95.086 131.657V936.229C95.086 987.429 131.657 1024 175.543 1024H789.943C811.886 1024 826.514 1009.371 826.514 987.429C826.514 965.486 811.886 950.857 789.943 950.857H175.543V146.286C175.543 109.714 153.6 95.086 131.657 95.086L131.657 95.086z" />
    <glyph glyph-name="icon-crop"
      unicode="&#xE00A;"
      horiz-adv-x="1024" d=" M978.994 260.23L853.389 260.195L853.389 760.973C853.389 811.735 812.186 852.885 761.358 852.885L730.313 852.885C729.4 852.94 728.482 852.977 727.554 852.977L386.645 852.885L269.206 852.885L269.206 852.853L260.905 852.851L260.905 941.505L260.73 941.505L260.72 979.139C260.714 1003.783 240.707 1023.757 216.029 1023.753C191.353 1023.748 171.353 1003.766 171.357 979.121L171.368 941.505L171.357 941.505L171.357 852.826L45.734 852.792C21.058 852.787 1.057 832.805 1.061 808.16C1.067 783.516 21.074 763.541 45.752 763.545L171.357 763.579L171.357 262.803C171.357 212.041 212.56 170.891 263.388 170.891L294.432 170.891C295.345 170.836 296.264 170.799 297.192 170.799L638.101 170.891L755.54 170.891L755.54 170.923L763.841 170.926L763.841 82.271L764.015 82.271L764.026 44.637C764.032 19.993 784.039 0.019 808.716 0.023C833.392 0.028 853.393 20.01 853.389 44.655L853.378 82.271L853.389 82.271L853.389 170.95L979.012 170.984C1003.688 170.989 1023.688 190.971 1023.684 215.616C1023.68 240.26 1003.671 260.234 978.994 260.23zM637.932 260.137L308.413 260.137C284.331 260.137 260.906 283.717 260.906 307.767L260.906 763.605L386.816 763.639L716.335 763.639C740.417 763.639 763.842 740.059 763.842 716.009L763.842 260.171L637.932 260.137z" />
    <glyph glyph-name="icon-cross2"
      unicode="&#xE00B;"
      horiz-adv-x="1024" d=" M536.286 431.925L341.848 237.487C325.186 220.825 298.171 220.825 281.508 237.487C264.846 254.15 264.846 281.165 281.508 297.827L475.946 492.265L281.508 686.702C264.846 703.364 264.846 730.379 281.508 747.042C298.171 763.704 325.186 763.704 341.848 747.042L536.286 552.604L730.723 747.042C747.385 763.704 774.401 763.704 791.063 747.042C807.725 730.379 807.725 703.364 791.063 686.702L596.625 492.265L791.063 297.827C807.725 281.165 807.725 254.15 791.063 237.487C774.401 220.825 747.385 220.825 730.723 237.487L536.286 431.925z" />
    <glyph glyph-name="icon-data"
      unicode="&#xE00C;"
      horiz-adv-x="1024" d=" M157.538 708.923H393.846V157.538H157.538V708.923zM472.615 1024H708.923V157.538H472.615V1024zM787.692 472.615H1024V157.538H787.692V472.615zM0 1024H78.769V0H0V1024zM0 78.769H1024V0H0V78.769zM236.308 630.154H315.077V236.308H236.308V630.154zM551.385 945.231H630.154V236.308H551.385V945.231zM866.462 393.846H945.231V236.308H866.462V393.846z" />
    <glyph glyph-name="icon-delete"
      unicode="&#xE00D;"
      horiz-adv-x="1102.769230769231" d=" M1024 866.462H866.462V945.231A92.23876923076925 92.23876923076925 0 0 1 775.877 1024H326.892A92.23876923076925 92.23876923076925 0 0 1 236.308 945.231V866.462H78.769C48.837 866.462 0 879.38 0 846.769A56.950153846153846 56.950153846153846 0 0 1 54.351 787.692H157.538V78.769A71.52246153846154 71.52246153846154 0 0 1 224.492 0H878.277A71.52246153846154 71.52246153846154 0 0 1 945.231 78.769V787.692H1048.418A56.950153846153846 56.950153846153846 0 0 1 1102.769 846.769C1102.769 879.38 1053.932 866.462 1024 866.462zM315.077 945.231H787.692V866.462H315.077V945.231zM866.462 78.769H236.308V787.692H866.462V78.769zM433.231 708.923A39.38461538461539 39.38461538461539 0 0 0 472.615 669.538V196.923A39.38461538461539 39.38461538461539 0 0 0 393.846 196.923V669.538A39.38461538461539 39.38461538461539 0 0 0 433.231 708.923zM669.538 708.923A39.38461538461539 39.38461538461539 0 0 0 708.923 669.538V196.923A39.38461538461539 39.38461538461539 0 0 0 630.154 196.923V669.538A39.38461538461539 39.38461538461539 0 0 0 669.538 708.923z" />
    <glyph glyph-name="icon-deselect"
      unicode="&#xE00E;"
      horiz-adv-x="1097.142857142857" d=" M256 914.609C256 934.656 272.191 950.857 292.248 950.857L951.181 950.857C971.228 950.857 987.429 934.666 987.429 914.609L987.429 255.677C987.429 235.63 971.238 219.429 951.181 219.429L292.248 219.429C272.201 219.429 256 235.619 256 255.677L256 914.609zM182.857 914.609L182.857 255.677C182.857 195.214 231.815 146.286 292.248 146.286L951.181 146.286C1011.644 146.286 1060.571 195.244 1060.571 255.677L1060.571 914.609C1060.571 975.072 1011.613 1024 951.181 1024L292.248 1024C231.785 1024 182.857 975.042 182.857 914.609z M804.895 73.143L145.962 73.143C125.915 73.143 109.714 89.334 109.714 109.391L109.714 768.323C109.714 788.521 93.341 804.895 73.143 804.895C52.945 804.895 36.571 788.521 36.571 768.323L36.571 109.391C36.571 48.928 85.53 0 145.962 0L804.895 0C825.093 0 841.466 16.374 841.466 36.571C841.466 56.769 825.093 73.143 804.895 73.143z" />
    <glyph glyph-name="icon-drag"
      unicode="&#xE00F;"
      horiz-adv-x="1024" d=" M512 0C794.77 0 1024 229.23 1024 512C1024 794.77 794.77 1024 512 1024C229.23 1024 0 794.77 0 512C0 229.23 229.23 0 512 0zM192 672C192 689.673 206.57 704 224.618 704L799.382 704C817.397 704 832 689.156 832 672C832 654.327 817.43 640 799.382 640L224.618 640C206.603 640 192 654.844 192 672zM192 480C192 497.673 206.57 512 224.618 512L799.382 512C817.397 512 832 497.156 832 480C832 462.327 817.43 448 799.382 448L224.618 448C206.603 448 192 462.844 192 480zM576 736C576 718.327 562.302 704 543.7 704L480.3 704C462.461 704 448 718.844 448 736C448 753.673 461.698 768 480.3 768L543.7 768C561.539 768 576 753.156 576 736zM832 288C832 305.673 817.43 320 799.382 320L224.618 320C206.603 320 192 305.156 192 288C192 270.327 206.57 256 224.618 256L799.382 256C817.397 256 832 270.844 832 288zM576 224C576 241.673 562.302 256 543.7 256L480.3 256C462.461 256 448 241.156 448 224C448 206.327 461.698 192 480.3 192L543.7 192C561.539 192 576 206.844 576 224z" />
    <glyph glyph-name="icon-edit"
      unicode="&#xE010;"
      horiz-adv-x="1024" d=" M851.2 281.6C851.2 217.6 800 160 729.6 160H281.6C217.6 160 160 211.2 160 281.6V736C160 800 211.2 857.6 281.6 857.6H531.2C550.4 857.6 563.2 870.4 563.2 889.6S544 915.2 531.2 915.2H281.6C179.2 915.2 96 832 96 736V281.6C96 179.2 179.2 96 281.6 96H736C838.4 96 921.6 179.2 921.6 281.6V544C921.6 563.2 908.8 576 889.6 576S857.6 563.2 857.6 544V281.6zM953.6 883.2C966.4 896 966.4 915.2 953.6 928C940.8 940.8 921.6 940.8 908.8 928L416 435.2C403.2 422.4 403.2 403.2 416 390.4S448 377.6 460.8 390.4L953.6 883.2z" />
    <glyph glyph-name="icon-edit2"
      unicode="&#xE011;"
      horiz-adv-x="1024" d=" M1008.583 625.297L949.74 567.691L788.591 727.703L847.434 785.309C865.33 803.222 893.466 805.794 908.81 790.435L1014.961 686.733C1029.048 671.392 1026.478 643.228 1008.583 625.297L1008.583 625.297L1008.583 625.297L1008.583 625.297zM760.473 700.834L922.897 542.098L536.654 160.6C535.378 159.323 530.239 154.197 522.585 152.92C521.31 152.92 521.31 152.92 520.016 151.643L317.956 88.893C312.835 87.616 306.439 87.616 302.594 91.465C298.767 95.296 297.491 100.422 300.024 106.843L363.988 305.271C363.988 306.53 363.988 306.53 365.264 307.825C366.539 314.246 371.66 321.908 374.193 323.203L448.38 391.042L202.857 391.042C192.616 391.042 183.668 402.589 183.668 411.527C183.668 421.797 192.616 433.289 202.857 433.289L486.777 433.289L760.473 700.834L760.473 700.834L760.473 700.834zM486.777 173.405L387.004 271.963L360.143 188.746L402.348 146.499L486.777 173.405L486.777 173.405L486.777 173.405zM755.352 638.102C750.231 643.21 739.99 643.21 734.887 638.102L431.76 341.097C425.364 335.99 425.364 325.738 431.76 320.612C436.881 315.505 447.123 315.505 452.225 320.612L754.058 617.617C760.473 622.743 760.473 631.699 755.352 638.102L755.352 638.102L755.352 638.102L755.352 638.102zM81.344 58.175C71.121 58.175 60.898 62.024 60.898 72.257L60.898 881.331C59.622 900.539 72.415 896.691 86.465 896.691L156.807 896.691L156.807 869.803C156.807 859.551 168.306 850.595 179.823 850.595C190.065 850.595 202.857 859.551 202.857 869.803L202.857 896.691L307.733 896.691L307.733 869.803C307.733 859.551 319.231 850.595 330.749 850.595C340.99 850.595 353.783 859.551 353.783 869.803L353.783 896.691L449.71 896.691L449.71 869.803C449.71 859.551 461.209 850.595 472.726 850.595C482.986 850.595 495.761 859.551 495.761 869.803L495.761 896.691L591.688 896.691L591.688 869.803C591.688 859.551 603.205 850.595 614.723 850.595C624.946 850.595 637.739 859.551 637.739 869.803L637.739 896.691L718.304 896.691C728.545 896.691 734.942 891.583 734.942 881.331L734.942 748.188L793.785 805.794L793.785 881.331C793.785 923.578 761.803 954.297 718.304 954.297L636.463 954.297L636.463 1004.241C636.463 1014.493 624.946 1023.449 613.429 1023.449C603.205 1023.449 590.413 1014.493 590.413 1004.241L590.413 954.315L494.485 954.315L494.485 1004.241C494.485 1014.493 482.986 1023.449 471.451 1023.449C461.209 1023.449 448.435 1014.493 448.435 1004.241L448.435 954.315L352.507 954.315L352.507 1004.241C352.507 1014.493 340.99 1023.449 329.473 1023.449C319.231 1023.449 306.457 1014.493 306.457 1004.241L306.457 954.315L201.582 954.315L201.582 1004.241C201.582 1014.493 190.065 1023.449 178.547 1023.449C168.306 1023.449 155.531 1014.493 155.531 1004.241L155.531 954.315L86.465 954.315C28.916 954.315 0.779 923.596 0.779 881.35L0.779 73.552C0.779 31.324 39.139 0.587 82.638 0.587L716.992 0.587C760.473 0.587 792.455 31.324 792.455 73.552L792.455 352.644L733.611 295.038L733.611 72.294C733.611 62.042 727.215 58.211 716.992 58.211L81.344 58.175zM583.962 735.383L201.582 735.383C191.34 735.383 183.686 722.596 183.686 713.639C183.686 703.388 191.358 691.877 201.582 691.877L583.962 691.877C594.221 691.877 601.875 704.683 601.875 713.639C601.875 722.596 594.203 735.383 583.962 735.383L583.962 735.383L583.962 735.383L583.962 735.383zM583.962 588.176L201.582 588.176C191.34 588.176 183.686 575.388 183.686 566.414C183.686 556.162 191.358 544.67 201.582 544.67L583.962 544.67C594.221 544.67 601.875 557.476 601.875 566.414C601.875 575.388 594.203 588.176 583.962 588.176L583.962 588.176L583.962 588.176L583.962 588.176z" />
    <glyph glyph-name="icon-edit_publish"
      unicode="&#xE012;"
      horiz-adv-x="1024" d=" M953.6 556.8C940.8 576 921.6 588.8 896 601.6C876.8 665.6 844.8 716.8 800 768C729.6 832 633.6 870.4 537.6 870.4C467.2 870.4 396.8 851.2 332.8 812.8C294.4 787.2 256 755.2 230.4 716.8C179.2 704 134.4 678.4 102.4 640C44.8 582.4 12.8 512 12.8 441.6C12.8 371.2 38.4 307.2 89.6 256L89.6 256L108.8 243.2C166.4 185.6 243.2 160 326.4 160H761.6C832 160 896 185.6 947.2 230.4C998.4 275.2 1024 339.2 1024 403.2C1017.6 454.4 998.4 512 953.6 556.8zM896 268.8C857.6 236.8 806.4 211.2 755.2 211.2H326.4C262.4 211.2 198.4 236.8 153.6 275.2L153.6 275.2C102.4 320 76.8 377.6 76.8 441.6C76.8 499.2 102.4 556.8 140.8 595.2C172.8 627.2 211.2 646.4 249.6 659.2L262.4 659.2L268.8 665.6C294.4 697.6 320 729.6 358.4 748.8C409.6 780.8 467.2 800 531.2 800C614.4 800 691.2 768 748.8 716.8C793.6 678.4 819.2 627.2 832 569.6L832 556.8L844.8 550.4C876.8 544 896 531.2 908.8 512C940.8 480 953.6 435.2 953.6 396.8C953.6 345.6 934.4 300.8 896 268.8z M531.2 633.6C531.2 633.6 531.2 633.6 531.2 633.6C524.8 640 518.4 640 512 640C512 640 512 640 512 640H512C505.6 640 499.2 640 492.8 633.6C492.8 633.6 492.8 633.6 492.8 633.6L332.8 505.6C320 492.8 313.6 473.6 326.4 460.8C339.2 448 358.4 441.6 371.2 454.4L480 544V352C480 332.8 492.8 320 512 320S544 332.8 544 352V544L652.8 454.4C665.6 441.6 684.8 448 697.6 460.8C710.4 473.6 704 492.8 691.2 505.6L531.2 633.6z" />
    <glyph glyph-name="icon-editor_bold"
      unicode="&#xE013;"
      horiz-adv-x="1024" d=" M761.6 550.4C800 601.6 819.2 665.6 806.4 729.6C787.2 844.8 691.2 934.4 576 953.6C512 960 441.6 960 371.2 953.6C345.6 953.6 320 953.6 294.4 953.6C256 953.6 230.4 928 230.4 889.6C230.4 889.6 230.4 889.6 230.4 889.6C230.4 889.6 230.4 889.6 230.4 889.6V134.4C230.4 134.4 230.4 134.4 230.4 134.4C230.4 96 256 70.4 294.4 70.4C320 70.4 345.6 70.4 371.2 70.4C403.2 70.4 428.8 70.4 460.8 70.4C512 70.4 569.6 70.4 620.8 83.2C748.8 108.8 838.4 217.6 844.8 345.6C851.2 428.8 819.2 499.2 761.6 550.4zM377.6 825.6C441.6 825.6 505.6 832 563.2 819.2C640 806.4 678.4 748.8 684.8 704C691.2 678.4 684.8 633.6 627.2 595.2H364.8V825.6C364.8 825.6 371.2 825.6 377.6 825.6zM601.6 204.8C531.2 192 454.4 192 384 198.4C377.6 198.4 371.2 198.4 364.8 198.4V473.6H640C723.2 448 729.6 377.6 729.6 352C716.8 294.4 678.4 224 601.6 204.8z" />
    <glyph glyph-name="icon-editor_center"
      unicode="&#xE014;"
      horiz-adv-x="1024" d=" M166.4 806.4H864C902.4 806.4 928 832 928 870.4S902.4 934.4 864 934.4H166.4C128 934.4 102.4 908.8 102.4 870.4S128 806.4 166.4 806.4z M300.8 627.2H729.6C768 627.2 793.6 652.8 793.6 691.2S768 755.2 729.6 755.2H300.8C262.4 755.2 236.8 729.6 236.8 691.2S262.4 627.2 300.8 627.2z M857.6 576H166.4C128 576 102.4 550.4 102.4 512S128 448 166.4 448H864C902.4 448 928 473.6 928 512S896 576 857.6 576z M857.6 217.6H166.4C128 217.6 102.4 192 102.4 153.6S128 89.6 166.4 89.6H864C902.4 89.6 928 115.2 928 153.6S896 217.6 857.6 217.6z M320 268.8H704C742.4 268.8 768 294.4 768 332.8S742.4 396.8 704 396.8H320C281.6 396.8 256 371.2 256 332.8S288 268.8 320 268.8z" />
    <glyph glyph-name="icon-editor_color"
      unicode="&#xE015;"
      horiz-adv-x="1024" d=" M889.6 204.8H211.2C172.8 204.8 147.2 179.2 147.2 140.8S172.8 76.8 211.2 76.8H889.6C928 76.8 953.6 102.4 953.6 140.8S921.6 204.8 889.6 204.8zM787.2 403.2C806.4 371.2 883.2 384 883.2 441.6C883.2 492.8 832 556.8 832 556.8C832 518.4 768 428.8 787.2 403.2zM454.4 262.4C467.2 249.6 480 243.2 499.2 243.2S531.2 249.6 544 262.4L787.2 512C812.8 537.6 812.8 576 787.2 601.6L460.8 928C435.2 953.6 396.8 953.6 371.2 928S345.6 864 371.2 838.4L409.6 800L204.8 601.6C179.2 576 179.2 537.6 204.8 512L454.4 262.4zM499.2 710.4L652.8 556.8L652.8 556.8H339.2L339.2 556.8L499.2 710.4z" />
    <glyph glyph-name="icon-editor_fontsize"
      unicode="&#xE016;"
      horiz-adv-x="1024" d=" M614.4 806.4C652.8 806.4 678.4 832 678.4 870.4S652.8 934.4 614.4 934.4H147.2C108.8 934.4 83.2 908.8 83.2 870.4S108.8 806.4 147.2 806.4H320V121.6C320 83.2 345.6 57.6 384 57.6C422.4 57.6 448 83.2 448 121.6V806.4H614.4z M896 633.6H614.4C576 633.6 550.4 608 550.4 569.6S576 505.6 614.4 505.6H691.2V121.6C691.2 83.2 716.8 57.6 755.2 57.6S819.2 83.2 819.2 121.6V505.6H896C934.4 505.6 960 531.2 960 569.6S934.4 633.6 896 633.6z" />
    <glyph glyph-name="icon-editor_italic"
      unicode="&#xE017;"
      horiz-adv-x="1024" d=" M787.2 934.4H364.8C326.4 934.4 300.8 908.8 300.8 870.4S326.4 806.4 364.8 806.4H499.2L390.4 192H236.8C198.4 192 172.8 166.4 172.8 128S198.4 64 236.8 64H435.2C441.6 64 441.6 64 448 64C448 64 448 64 448 64H652.8C691.2 64 716.8 89.6 716.8 128S691.2 192 652.8 192H518.4L633.6 806.4H787.2C825.6 806.4 851.2 832 851.2 870.4S825.6 934.4 787.2 934.4z" />
    <glyph glyph-name="icon-editor_left"
      unicode="&#xE018;"
      horiz-adv-x="1024" d=" M166.4 806.4H864C902.4 806.4 928 832 928 870.4S902.4 934.4 864 934.4H166.4C128 934.4 102.4 908.8 102.4 870.4S128 806.4 166.4 806.4z M166.4 627.2H595.2C633.6 627.2 659.2 652.8 659.2 691.2S633.6 755.2 595.2 755.2H166.4C128 755.2 102.4 729.6 102.4 691.2S128 627.2 166.4 627.2z M857.6 576H166.4C128 576 102.4 550.4 102.4 512S128 448 166.4 448H864C902.4 448 928 473.6 928 512S896 576 857.6 576z M857.6 217.6H166.4C128 217.6 102.4 192 102.4 153.6S128 89.6 166.4 89.6H864C902.4 89.6 928 115.2 928 153.6S896 217.6 857.6 217.6z M166.4 268.8H544C582.4 268.8 608 294.4 608 332.8S582.4 396.8 544 396.8H166.4C128 396.8 102.4 371.2 102.4 332.8S128 268.8 166.4 268.8z" />
    <glyph glyph-name="icon-editor_link"
      unicode="&#xE019;"
      horiz-adv-x="1024" d=" M825.6 748.8H518.4C435.2 748.8 364.8 665.6 364.8 569.6V473.6C364.8 435.2 390.4 409.6 428.8 409.6S492.8 435.2 492.8 473.6V569.6C492.8 601.6 512 620.8 518.4 620.8H825.6C832 620.8 851.2 601.6 851.2 569.6V448C851.2 416 832 396.8 825.6 396.8H742.4C704 396.8 678.4 371.2 678.4 332.8S704 268.8 742.4 268.8H825.6C908.8 268.8 979.2 352 979.2 448V569.6C979.2 672 908.8 748.8 825.6 748.8zM608 608C569.6 608 544 582.4 544 544V448C544 416 524.8 396.8 518.4 396.8H198.4C192 396.8 172.8 416 172.8 448V569.6C172.8 601.6 192 620.8 198.4 620.8H281.6C320 620.8 345.6 646.4 345.6 684.8S320 748.8 281.6 748.8H198.4C115.2 748.8 44.8 665.6 44.8 569.6V448C44.8 352 115.2 268.8 198.4 268.8H512C595.2 268.8 665.6 352 665.6 448V544C672 576 640 608 608 608z" />
    <glyph glyph-name="icon-editor_richicon"
      unicode="&#xE01A;"
      horiz-adv-x="1024" d=" M896 64H128C89.6 64 64 89.6 64 128V896C64 934.4 89.6 960 128 960H896C934.4 960 960 934.4 960 896V128C960 89.6 934.4 64 896 64zM192 192H832V832H192V192z M652.8 640H371.2C332.8 640 307.2 665.6 307.2 704S332.8 768 371.2 768H652.8C691.2 768 716.8 742.4 716.8 704S691.2 640 652.8 640z M512 256C473.6 256 448 281.6 448 320V704C448 742.4 473.6 768 512 768S576 742.4 576 704V320C576 281.6 550.4 256 512 256z M812.8 902.4C812.8 849.381 855.781 806.4 908.8 806.4C961.819 806.4 1004.8 849.381 1004.8 902.4C1004.8 955.419 961.819 998.4 908.8 998.4C855.781 998.4 812.8 955.419 812.8 902.4z M812.8 121.6C812.8 68.581 855.781 25.6 908.8 25.6C961.819 25.6 1004.8 68.581 1004.8 121.6C1004.8 174.619 961.819 217.6 908.8 217.6C855.781 217.6 812.8 174.619 812.8 121.6z M19.2 902.4C19.2 849.381 62.181 806.4 115.2 806.4C168.219 806.4 211.2 849.381 211.2 902.4C211.2 955.419 168.219 998.4 115.2 998.4C62.181 998.4 19.2 955.419 19.2 902.4z M19.2 121.6C19.2 68.581 62.181 25.6 115.2 25.6C168.219 25.6 211.2 68.581 211.2 121.6C211.2 174.619 168.219 217.6 115.2 217.6C62.181 217.6 19.2 174.619 19.2 121.6z" />
    <glyph glyph-name="icon-editor_right"
      unicode="&#xE01B;"
      horiz-adv-x="1024" d=" M857.6 806.4H166.4C128 806.4 102.4 832 102.4 870.4S128 934.4 166.4 934.4H864C902.4 934.4 928 908.8 928 870.4S896 806.4 857.6 806.4z M857.6 627.2H435.2C396.8 627.2 371.2 652.8 371.2 691.2S396.8 755.2 435.2 755.2H864C902.4 755.2 928 729.6 928 691.2S896 627.2 857.6 627.2z M166.4 576H864C902.4 576 928 550.4 928 512S902.4 448 864 448H166.4C128 448 102.4 473.6 102.4 512S128 576 166.4 576z M166.4 217.6H864C902.4 217.6 928 192 928 153.6S902.4 89.6 864 89.6H166.4C128 89.6 102.4 115.2 102.4 153.6S128 217.6 166.4 217.6z M857.6 268.8H480C441.6 268.8 416 294.4 416 332.8S441.6 396.8 480 396.8H857.6C896 396.8 921.6 371.2 921.6 332.8S896 268.8 857.6 268.8z" />
    <glyph glyph-name="icon-editor_underline"
      unicode="&#xE01C;"
      horiz-adv-x="1024" d=" M332.8 300.8C384 275.2 441.6 262.4 512 262.4C582.4 262.4 646.4 275.2 691.2 307.2C742.4 339.2 774.4 377.6 793.6 428.8C812.8 473.6 819.2 531.2 819.2 601.6V902.4C819.2 940.8 793.6 966.4 755.2 966.4S691.2 940.8 691.2 902.4V608C691.2 550.4 684.8 512 672 480C665.6 454.4 646.4 435.2 620.8 422.4C595.2 396.8 556.8 390.4 512 390.4C460.8 390.4 422.4 396.8 396.8 416C371.2 428.8 352 448 345.6 473.6C332.8 499.2 326.4 544 326.4 601.6V902.4C326.4 940.8 300.8 966.4 262.4 966.4S198.4 940.8 198.4 902.4V608C198.4 531.2 204.8 473.6 230.4 422.4C249.6 371.2 281.6 326.4 332.8 300.8zM870.4 198.4H147.2C108.8 198.4 83.2 172.8 83.2 134.4S108.8 70.4 147.2 70.4H876.8C915.2 70.4 940.8 96 940.8 134.4S908.8 198.4 870.4 198.4z" />
    <glyph glyph-name="icon-editor_unlink"
      unicode="&#xE01D;"
      horiz-adv-x="1024" d=" M832 928H537.6C448 928 384 844.8 384 748.8V652.8C384 614.4 409.6 588.8 448 588.8S512 614.4 512 652.8V748.8C512 780.8 531.2 800 537.6 800H832C838.4 800 857.6 780.8 857.6 748.8V627.2C857.6 595.2 838.4 576 832 576H684.8C646.4 576 620.8 550.4 620.8 512S646.4 448 684.8 448H832C915.2 448 985.6 531.2 985.6 627.2V748.8C985.6 844.8 915.2 928 832 928zM576 435.2C537.6 435.2 512 409.6 512 371.2V275.2C512 243.2 492.8 224 486.4 224H192C185.6 224 166.4 243.2 166.4 275.2V403.2C166.4 435.2 185.6 454.4 192 454.4H339.2C377.6 454.4 403.2 480 403.2 518.4S377.6 582.4 339.2 582.4H192C108.8 582.4 38.4 499.2 38.4 403.2V281.6C38.4 185.6 108.8 102.4 192 102.4H486.4C569.6 102.4 640 185.6 640 281.6V377.6C640 403.2 614.4 435.2 576 435.2z" />
    <glyph glyph-name="icon-editpreview"
      unicode="&#xE01E;"
      horiz-adv-x="1024" d=" M492.8 492.8L588.8 544C608 556.8 608 576 588.8 588.8L492.8 633.6C473.6 646.4 448 633.6 448 614.4V512C448 492.8 473.6 480 492.8 492.8zM960 864H928H576C595.2 864 608 876.8 608 896S595.2 928 576 928H448C428.8 928 416 915.2 416 896S428.8 864 448 864H96H64C44.8 864 32 851.2 32 832S44.8 800 64 800H96V473.6C96 371.2 172.8 288 275.2 288H480V160H320C300.8 160 288 147.2 288 128S300.8 96 320 96H729.6C748.8 96 761.6 108.8 761.6 128S748.8 160 729.6 160H544V288H748.8C844.8 288 928 371.2 928 473.6V800H960C979.2 800 992 812.8 992 832S979.2 864 960 864zM864 473.6C864 409.6 812.8 352 748.8 352H268.8C204.8 352 153.6 409.6 153.6 473.6V800H857.6V473.6z" />
    <glyph glyph-name="icon-group_off"
      unicode="&#xE01F;"
      horiz-adv-x="1024" d=" M512 995.556C244.622 995.556 28.444 779.378 28.444 512C28.444 244.622 244.622 28.444 512 28.444C779.378 28.444 995.556 244.622 995.556 512C995.556 779.378 779.378 995.556 512 995.556zM512 85.333C278.756 85.333 85.333 278.756 85.333 512S278.756 938.667 512 938.667S938.667 745.244 938.667 512S745.244 85.333 512 85.333zM711.111 540.444H312.889C295.822 540.444 284.444 529.067 284.444 512S295.822 483.556 312.889 483.556H711.111C728.178 483.556 739.556 494.933 739.556 512S728.178 540.444 711.111 540.444z" />
    <glyph glyph-name="icon-group_on"
      unicode="&#xE020;"
      horiz-adv-x="1024" d=" M711.111 540.444H540.444V711.111C540.444 728.178 529.067 739.556 512 739.556C494.933 739.556 483.556 728.178 483.556 711.111V540.444H312.889C295.822 540.444 284.444 529.067 284.444 512C284.444 494.933 295.822 483.556 312.889 483.556H483.556V312.889C483.556 295.822 494.933 284.444 512 284.444C529.067 284.444 540.444 295.822 540.444 312.889V483.556H711.111C728.178 483.556 739.556 494.933 739.556 512C739.556 529.067 728.178 540.444 711.111 540.444zM512 995.556C244.622 995.556 28.444 779.378 28.444 512C28.444 244.622 244.622 28.444 512 28.444C779.378 28.444 995.556 244.622 995.556 512C995.556 779.378 779.378 995.556 512 995.556zM512 85.333C278.756 85.333 85.333 278.756 85.333 512S278.756 938.667 512 938.667S938.667 745.244 938.667 512S745.244 85.333 512 85.333z" />
    <glyph glyph-name="icon-last_step"
      unicode="&#xE021;"
      horiz-adv-x="1024" d=" M691.2 736H108.8L307.2 934.4C320 947.2 320 972.8 307.2 985.6C294.4 998.4 275.2 998.4 262.4 985.6L12.8 729.6C12.8 729.6 6.4 723.2 6.4 716.8C6.4 716.8 6.4 710.4 6.4 710.4C6.4 710.4 6.4 704 6.4 704C0 704 0 704 0 697.6C0 697.6 0 691.2 0 691.2C0 684.8 6.4 684.8 6.4 684.8C6.4 684.8 6.4 684.8 6.4 684.8L6.4 684.8C6.4 684.8 6.4 684.8 6.4 684.8L256 428.8C262.4 422.4 268.8 422.4 281.6 422.4C288 422.4 300.8 422.4 307.2 428.8C320 441.6 320 460.8 307.2 473.6L108.8 672H691.2C838.4 672 960 550.4 960 403.2C960 256 838.4 134.4 691.2 134.4H140.8C121.6 134.4 108.8 121.6 108.8 102.4S128 64 140.8 64H691.2C870.4 64 1024 217.6 1024 396.8S876.8 736 691.2 736z" />
    <glyph glyph-name="icon-left_arrow"
      unicode="&#xE022;"
      horiz-adv-x="558.5454545454545" d=" M539.927 549.236L83.782 1005.382C37.236 1051.927 -27.927 986.764 18.618 940.218L446.836 512L18.618 83.782C-27.927 37.236 37.236 -27.927 83.782 18.618L539.927 474.764C558.545 502.691 558.545 530.618 539.927 549.236z" />
    <glyph glyph-name="icon-link"
      unicode="&#xE023;"
      horiz-adv-x="1024" d=" M629.029 614.4C599.771 643.657 555.886 643.657 526.629 614.4C497.371 585.143 497.371 541.257 526.629 512L563.2 475.429C577.829 460.8 577.829 431.543 563.2 416.914L299.886 153.6C285.257 138.971 263.314 138.971 241.371 153.6L153.6 241.371C146.286 263.314 146.286 285.257 160.914 299.886L263.314 402.286C292.571 438.857 292.571 482.743 263.314 512C234.057 541.257 190.171 541.257 160.914 512L51.2 409.6C-21.943 336.457 -21.943 219.429 51.2 146.286L138.971 58.514C175.543 21.943 226.743 0 270.629 0C321.829 0 365.714 21.943 402.286 58.514L665.6 321.829C738.743 394.971 738.743 512 665.6 585.143L629.029 614.4zM972.8 885.029L885.029 972.8C811.886 1045.943 687.543 1045.943 621.714 972.8L358.4 709.486C285.257 636.343 285.257 519.314 358.4 446.171L394.971 409.6C409.6 394.971 431.543 387.657 446.171 387.657S482.743 394.971 497.371 409.6C526.629 438.857 526.629 482.743 497.371 512L460.8 548.571C446.171 563.2 446.171 592.457 460.8 607.086L724.114 870.4C731.429 877.714 746.057 877.714 753.371 877.714C760.686 877.714 768 877.714 782.629 863.086L870.4 775.314C885.029 760.686 885.029 731.429 870.4 716.8L768 614.4C738.743 585.143 738.743 541.257 768 512C797.257 482.743 841.143 482.743 870.4 512L972.8 614.4C1038.629 694.857 1038.629 811.886 972.8 885.029z" />
    <glyph glyph-name="icon-movedown"
      unicode="&#xE024;"
      horiz-adv-x="1371.4362102097086" d=" M0 858.196H427.772V943.75H0V858.196zM0 515.978H427.772V601.533H0V515.978zM0 173.761H427.772V259.315H0V173.761zM611.628 460.197L946.916 13.346A89.74651182220738 89.74651182220738 0 0 1 1034.523 13.346L1359.031 460.197A37.472804745592775 37.472804745592775 0 0 1 1359.031 514.952A40.03943520761969 40.03943520761969 0 0 1 1303.078 514.952L1026.652 173.761V943.75C1026.652 1043.934 946.916 1052.147 946.916 952.305L941.098 173.761L667.324 514.952A40.210543905088144 40.210543905088144 0 0 1 611.286 514.952A38.071685186732395 38.071685186732395 0 0 1 611.628 460.197z" />
    <glyph glyph-name="icon-moveup"
      unicode="&#xE025;"
      horiz-adv-x="1359.1767932840162" d=" M0 843.134H425.567V928.247H0V843.134zM0 502.68H425.567V587.794H0V502.68zM0 162.226H425.567V247.34H0V162.226zM1346.835 567.622L1021.361 1013.361A85.1134569030006 85.1134569030006 0 0 1 936.248 1013.361L621.328 567.622A38.641509433962256 38.641509433962256 0 0 1 648.565 501.659A38.471282520156265 38.471282520156265 0 0 1 675.716 512.979L936.248 843.134V77.113C936.248 -22.81 1021.361 -22.81 1021.361 77.113V843.134L1292.363 512.979A38.55639597705927 38.55639597705927 0 0 1 1346.835 567.622z" />
    <glyph glyph-name="icon-music"
      unicode="&#xE026;"
      horiz-adv-x="1024" d=" M1017.6 819.2C1017.6 921.6 934.4 1004.8 832 1004.8C832 1004.8 832 1004.8 832 1004.8L460.8 940.8C358.4 940.8 281.6 857.6 281.6 755.2V281.6C249.6 300.8 217.6 313.6 172.8 313.6C76.8 320 0 256 0 179.2S76.8 38.4 172.8 38.4S345.6 102.4 345.6 179.2C345.6 179.2 345.6 179.2 345.6 185.6H345.6V672L953.6 780.8V409.6C921.6 428.8 889.6 441.6 844.8 441.6C748.8 441.6 672 377.6 672 300.8S748.8 160 844.8 160S1017.6 224 1017.6 300.8C1017.6 300.8 1017.6 300.8 1017.6 307.2H1017.6V819.2zM172.8 102.4C115.2 102.4 64 134.4 64 179.2S115.2 256 172.8 256S281.6 224 281.6 179.2S230.4 102.4 172.8 102.4zM345.6 736V761.6C345.6 825.6 396.8 883.2 467.2 883.2L838.4 940.8C896 940.8 940.8 896 953.6 844.8L345.6 736zM844.8 224C787.2 224 736 256 736 300.8S787.2 377.6 844.8 377.6S953.6 345.6 953.6 300.8S902.4 224 844.8 224z" />
    <glyph glyph-name="icon-nav_logo"
      unicode="&#xE027;"
      horiz-adv-x="2986.6666666666665" d=" M2177.471 1024L1997.212 750.172L2124.021 672.269L2243.095 833.962L2694.472 833.834L2694.472 805.936L2456.705 689.769L2250.862 768.248L2176.552 675.116L2282.565 608.283L2092.319 512.304L2028.946 512.304L2028.946 416.325L2131.503 416.197L2131.503 416.453L2456.642 556.838L2789.516 416.261L2917.022 416.325L2916.579 512.304L2821.503 512.304L2631.258 608.283L2884.908 768.248L2884.908 960.206L2314.267 960.206L2177.471 1024zM1458.305 960.206L1458.305 448.286L951.037 448.286L951.037 352.339L1331.496 352.339L1172.985 128.388L951.037 128.388L951.227 0.384L1286.701 0.384L1286.701 0.896L1287.24 0.896L1553.38 352.339L1902.137 352.339L1902.137 448.286L1648.519 448.286L1648.519 960.206L1458.305 960.206zM285.321 960.206L285.321 128.388L0 128.388L0 0.416L285.321 0.416L475.534 0.416L855.962 0.416L855.962 128.388L475.534 128.388L475.534 608.283L792.557 608.283L792.557 704.262L475.534 704.262L475.534 960.206L285.321 960.206zM1046.239 928.117L1200.058 736.351L1394.71 736.351L1240.923 928.117L1046.239 928.117zM1046.239 704.454L1202.151 511.888L1395.218 511.888L1239.274 704.454L1046.239 704.454zM2377.64 384.332L2028.946 384.332L2028.946 288.353L2377.64 288.353L2377.64 0.416L2565.571 0.16L2567.885 288.353L2916.579 288.353L2916.579 384.332L2567.885 384.332L2565.571 415.813L2380.778 415.877L2377.64 384.332zM1585.558 320.154L1732.625 0.448L1933.649 0.448L1786.614 320.154L1585.558 320.154zM2631.638 256.872L2765.39 0L2948.313 0L2814.624 256.872L2631.638 256.872zM2142.092 256.872L2028.915 0L2201.28 0L2314.425 256.872L2142.092 256.872z" />
    <glyph glyph-name="icon-next_step"
      unicode="&#xE028;"
      horiz-adv-x="1024" d=" M1024 710.4C1024 716.8 1024 716.8 1024 710.4C1024 716.8 1017.6 723.2 1017.6 723.2L768 979.2C755.2 992 736 992 723.2 979.2C710.4 966.4 710.4 947.2 723.2 934.4L921.6 736H332.8C147.2 736 0 588.8 0 403.2S147.2 64 332.8 64H883.2C902.4 64 915.2 76.8 915.2 96S896 128 883.2 128H332.8C185.6 128 64 249.6 64 403.2C64 550.4 185.6 672 332.8 672H915.2L716.8 473.6C704 460.8 704 441.6 716.8 428.8C723.2 422.4 729.6 422.4 742.4 422.4C748.8 422.4 761.6 422.4 768 428.8L1017.6 684.8C1017.6 684.8 1024 691.2 1024 697.6C1024 697.6 1024 704 1024 704C1024 704 1024 704 1024 704C1024 710.4 1024 710.4 1024 710.4z" />
    <glyph glyph-name="icon-permission"
      unicode="&#xE029;"
      horiz-adv-x="887.4666666666667" d=" M203.41 100.413L71.005 100.413C78.486 222.616 138.742 333.684 233.362 399.677C327.981 465.669 445.719 478.744 550.596 434.906L590.52 478.44L584.456 481.195C573.001 486.339 561.377 491.114 549.586 495.523C568.084 507.594 585.071 522.227 600.122 539.057C695.866 645.168 695.018 815.683 598.226 920.657C501.433 1025.631 345.055 1025.631 248.263 920.657C151.47 815.683 150.623 645.168 246.366 539.057C261.418 522.227 278.404 507.594 296.903 495.523C285.111 491.482 273.488 486.706 262.033 481.195C111.117 411.746 13.12 250.374 13.393 71.758C13.393 64.304 16.109 57.156 20.942 51.886C25.776 46.615 32.331 43.654 39.167 43.654L203.41 43.654C215.446 46.292 224.105 57.821 224.105 71.207C224.105 84.594 215.446 96.122 203.41 98.76L203.41 100.413zM229.184 730.274C229.184 848.663 317.199 944.636 425.771 944.636C534.343 944.636 622.358 848.663 622.358 730.274C622.358 611.885 534.343 515.912 425.771 515.912C317.199 515.912 229.184 611.885 229.184 730.274L229.184 730.274zM800.752 244.791C782.425 292.308 756.597 335.952 724.442 373.739L687.55 333.511C741.624 269.423 774.219 187.268 780.032 100.413L648.132 100.413C636.096 97.775 627.437 86.247 627.437 72.86C627.437 59.474 636.096 47.945 648.132 45.307L806.816 45.307C813.652 45.307 820.208 48.268 825.041 53.539C829.875 58.809 832.59 65.958 832.59 73.411C832.782 132.839 821.952 191.696 800.752 246.444L800.752 244.791zM708.776 482.849C703.925 488.268 697.274 491.324 690.33 491.324C683.385 491.324 676.734 488.268 671.884 482.849L424.255 212.829L316.107 331.307C309.517 338.493 299.912 341.3 290.909 338.669C281.907 336.039 274.876 328.372 272.464 318.556C270.051 308.739 272.625 298.266 279.215 291.08L406.062 152.764C410.912 147.344 417.563 144.288 424.508 144.288C431.452 144.288 438.103 147.344 442.953 152.764L708.776 442.621C713.746 447.91 716.548 455.162 716.548 462.735C716.548 470.307 713.746 477.56 708.776 482.849L708.776 482.849z" />
    <glyph glyph-name="icon-preview"
      unicode="&#xE02A;"
      horiz-adv-x="1024" d=" M551.01 292.571C308.326 289.799 90.526 431.761 8.777 645.998L4.096 658.286L8.777 670.574C91.544 884.078 308.704 1025.622 551.01 1024C793.876 1027.335 1011.991 885.168 1093.242 670.574L1097.143 658.286L1093.242 645.998C1009.801 432.98 793.063 291.71 551.01 292.571zM82.895 658.286C126.586 564.224 348.94 365.714 551.01 365.714C753.079 365.714 975.433 564.224 1019.124 658.286C944.226 760.247 753.079 950.857 551.01 950.857C348.94 950.857 126.586 752.347 82.895 658.286zM551.01 512C464.832 512 394.971 577.494 394.971 658.286C394.971 739.077 464.832 804.571 551.01 804.571C637.187 804.571 707.048 739.077 707.048 658.286C709.682 618.783 694.09 580.122 664.237 552.135C634.384 524.148 593.146 509.53 551.01 512L551.01 512zM551.01 739.547C504.046 738.667 466.702 702.316 467.529 658.286C470.228 616.918 506.801 584.664 551.01 584.664C595.218 584.664 631.791 616.918 634.49 658.286C635.317 702.316 597.973 738.667 551.01 739.547L551.01 739.547z" />
    <glyph glyph-name="icon-radio"
      unicode="&#xE02B;"
      horiz-adv-x="1024" d=" M512 1024C230.4 1024 0 793.6 0 512C0 230.4 230.4 0 512 0C793.6 0 1024 230.4 1024 512C1024 793.6 793.6 1024 512 1024L512 1024zM512 102.4C286.72 102.4 102.4 286.72 102.4 512C102.4 737.28 286.72 921.6 512 921.6C737.28 921.6 921.6 737.28 921.6 512C921.6 286.72 737.28 102.4 512 102.4L512 102.4z" />
    <glyph glyph-name="icon-radio_hover"
      unicode="&#xE02C;"
      horiz-adv-x="1024" d=" M512 768C368.64 768 256 655.36 256 512C256 368.64 368.64 256 512 256C655.36 256 768 368.64 768 512C768 655.36 655.36 768 512 768L512 768zM512 1024C230.4 1024 0 793.6 0 512C0 230.4 230.4 0 512 0C793.6 0 1024 230.4 1024 512C1024 793.6 793.6 1024 512 1024L512 1024zM512 102.4C286.72 102.4 102.4 286.72 102.4 512C102.4 737.28 286.72 921.6 512 921.6C737.28 921.6 921.6 737.28 921.6 512C921.6 286.72 737.28 102.4 512 102.4L512 102.4z" />
    <glyph glyph-name="icon-refresh"
      unicode="&#xE02D;"
      horiz-adv-x="1024" d=" M1023.233 199.721L984.643 379.416C984.545 379.709 984.643 379.807 984.594 380.051L981.611 392.181C979.997 398.931 975.742 404.213 970.313 407.294C964.884 410.522 958.183 411.549 951.58 409.495L939.597 406.071C939.353 405.974 939.206 405.827 938.913 405.68L760.245 348.994C746.991 345.13 738.97 331.191 742.198 317.74L745.23 307.616C748.458 294.215 765.039 290.009 778.293 293.921L892.546 330.604C889.905 325.517 887.166 320.382 884.28 315.491C826.274 213.563 727.329 140.687 612.734 115.597C504.545 91.924 355.42 111.684 262.149 171.5C168.878 231.17 105.295 327.033 81.574 435.27C77.515 453.661 59.32 465.35 40.93 461.29C22.442 457.28 10.802 439.037 14.861 420.598C42.447 294.606 116.643 183.532 225.32 113.983C333.948 44.433 501.415 21.299 627.407 48.933C760.783 78.23 876.064 163.088 943.657 281.645C944.439 283.015 945.173 284.433 945.907 285.753L966.449 187.787C969.726 174.386 983.127 166.658 996.382 170.522L1005.968 171.5C1019.271 175.413 1026.461 186.369 1023.233 199.721M39.316 661.282L42.3 649.104C43.963 642.354 48.218 637.072 53.647 633.991C59.076 630.812 65.776 629.833 72.379 631.741L84.411 635.311C84.607 635.311 84.802 635.507 84.998 635.556L263.665 692.34C276.92 696.204 284.99 710.094 281.713 723.593L278.485 732.69C275.257 746.043 258.921 751.227 245.715 747.363L131.022 710.534C136.891 723.838 143.396 736.946 150.586 749.466C208.642 851.345 306.706 920.797 421.252 945.937C529.441 969.658 678.517 949.85 771.788 890.18C865.108 830.412 929.522 737.875 953.292 629.638C957.352 611.199 975.497 599.607 993.936 603.618C1006.848 606.406 1016.435 616.188 1019.614 628.121C1020.983 633.257 1021.228 638.735 1019.956 644.262C992.371 770.253 917.295 878.05 808.617 947.649C699.94 1017.149 532.62 1040.235 406.579 1012.65C273.203 983.402 158.803 901.967 91.258 783.312C86.465 774.948 81.966 766.438 77.662 757.732L57.462 853.546C54.136 866.997 41.615 877.854 28.361 873.942L18.823 872.866C5.569 869.002 -2.55 854.916 0.727 841.612L39.218 661.967C39.365 661.722 39.267 661.527 39.316 661.282" />
    <glyph glyph-name="icon-remind_small"
      unicode="&#xE02E;"
      horiz-adv-x="1024" d=" M821.859 147.72C833.216 136.39 844.224 125.423 855.213 114.447C873.898 95.785 892.762 77.293 911.201 58.391C930.126 38.989 921.723 7.729 895.876 1.171C882.683 -2.177 871.331 1.779 861.72 11.426C831.763 41.493 801.679 71.428 771.723 101.5C769.925 103.305 768.859 105.833 768.203 106.851C596.541 9.554 427.257 9.568 257.039 106.082C255.841 104.941 253.944 103.221 252.132 101.41C221.765 71.088 191.554 40.607 160.998 10.478C142.115 -8.141 111.456 -0.734 104.015 24.067C99.919 37.721 103.666 49.555 113.716 59.579C141.266 87.048 168.75 114.588 196.329 142.034C198.15 143.844 200.523 145.103 202.741 146.692C88.435 249.449 29.952 375.624 34.769 528.048C38.992 661.678 92.403 774.341 190.771 864.928C380.555 1039.691 678.795 1028.606 858.068 840.807C1044.177 645.85 1033.764 329.046 821.859 147.72L821.859 147.72L821.859 147.72zM102.297 511.664C102.326 286.291 285.571 102.428 510.276 102.301C738.015 102.174 921.1 284.207 921.463 511.122C921.826 737.277 738.006 921.215 511.885 920.965C285.646 920.72 102.269 737.47 102.297 511.664L102.297 511.664L102.297 511.664zM199.745 1024C205.695 1022.864 211.942 1022.529 217.533 1020.44C232.216 1014.957 241.063 999.143 238.577 984.267C235.779 967.553 222.775 955.464 206.19 955.167C175.582 954.62 147.556 946.312 123.162 927.67C87.152 900.149 69.265 863.269 68.099 818.119C67.736 804.073 61.121 793.828 48.584 787.792C36.505 781.979 24.658 783.375 13.886 791.197C4.256 798.189 -0.331 808.067 0.019 819.896C2.137 892.039 32.778 948.863 92.526 989.477C124.681 1011.34 160.757 1021.798 199.745 1024L199.745 1024L199.745 1024zM1023.902 821.999C1024.313 816.605 1023.633 807.369 1017.83 799.146C1009.224 786.953 993.946 781.564 979.758 785.878C965.556 790.197 955.845 802.904 955.628 818.901C955.289 844.485 949.032 868.389 935.264 889.889C908.374 931.885 869.562 953.347 819.765 955.007C795.135 955.827 779.102 977.907 786.958 1000.359C791.837 1014.306 804.652 1023.453 820.199 1023.029C896.541 1020.945 955.048 987.323 995.267 922.578C1013.522 893.208 1022.341 860.704 1023.902 821.999L1023.902 821.999L1023.902 821.999zM477.941 614.189C477.946 648.132 477.828 682.075 478.003 716.013C478.083 731.369 487.071 743.741 500.825 748.451C514.376 753.091 529.428 748.777 538.473 737.593C544.224 730.487 546.215 722.236 546.206 713.212C546.135 653.106 546.23 593.005 546.064 532.9C546.05 527.803 547.423 524.205 551.094 520.565C591.256 480.701 631.291 440.7 671.241 400.623C686.538 385.276 686.175 362.522 670.755 349.339C657.388 337.905 638.128 338.221 625.03 350.536C615.584 359.415 606.6 368.783 597.428 377.949C562.229 413.113 527.201 448.441 491.742 483.337C481.98 492.941 477.564 503.63 477.776 517.317C478.276 549.6 477.937 581.897 477.941 614.189L477.941 614.189L477.941 614.189z" />
    <glyph glyph-name="icon-return_home"
      unicode="&#xE02F;"
      horiz-adv-x="1024" d=" M960 608H128L281.6 812.8C294.4 825.6 288 844.8 275.2 857.6C262.4 870.4 243.2 864 230.4 851.2L38.4 595.2C38.4 595.2 38.4 595.2 38.4 595.2C32 588.8 32 582.4 32 576S32 563.2 38.4 556.8C38.4 556.8 38.4 556.8 38.4 556.8L230.4 300.8C236.8 294.4 243.2 288 256 288C262.4 288 268.8 288 275.2 294.4C288 307.2 294.4 326.4 281.6 339.2L128 544H928V281.6C928 262.4 940.8 249.6 960 249.6S992 262.4 992 281.6V576C992 595.2 979.2 608 960 608z" />
    <glyph glyph-name="icon-save"
      unicode="&#xE030;"
      horiz-adv-x="1024" d=" M774.4 992H761.6H313.6H249.6C128 992 32 896 32 774.4V249.6C32 128 128 32 249.6 32H774.4C896 32 992 128 992 249.6V774.4C992 896 896 992 774.4 992zM729.6 928V800C729.6 768 704 742.4 678.4 742.4H563.2C563.2 748.8 569.6 755.2 569.6 761.6V908.8C569.6 915.2 569.6 921.6 563.2 928H729.6zM345.6 928H512C505.6 921.6 505.6 915.2 505.6 908.8V761.6C505.6 755.2 505.6 748.8 512 742.4H396.8C364.8 742.4 345.6 768 345.6 800V928zM928 249.6C928 166.4 857.6 96 774.4 96H249.6C166.4 96 96 166.4 96 249.6V774.4C96 857.6 166.4 928 249.6 928H281.6V800C281.6 736 332.8 678.4 396.8 678.4H678.4C742.4 678.4 793.6 729.6 793.6 800V928C870.4 921.6 928 857.6 928 774.4V249.6zM627.2 544H396.8C307.2 544 230.4 473.6 230.4 390.4C230.4 307.2 307.2 236.8 396.8 236.8H627.2C716.8 236.8 793.6 307.2 793.6 390.4C793.6 473.6 716.8 544 627.2 544zM627.2 294.4H396.8C339.2 294.4 294.4 332.8 294.4 384S339.2 473.6 396.8 473.6H627.2C684.8 473.6 729.6 435.2 729.6 384S684.8 294.4 627.2 294.4z" />
    <glyph glyph-name="icon-search"
      unicode="&#xE031;"
      horiz-adv-x="1024" d=" M702.617 606.929L702.617 606.929C689.111 606.929 678.472 596.297 678.472 582.506C678.472 551.196 672.15 521.025 660.078 491.716L660.078 489.99C648.281 462.995 631.321 437.709 608.609 414.718C585.897 392.314 559.731 375.64 531.855 363.575C503.098 351.804 472.044 345.193 441.284 345.193C427.778 345.193 416.862 334.854 416.862 321.357C416.862 308.135 427.778 296.933 441.284 296.933C478.383 296.933 515.758 304.39 550.819 318.768C584.17 332.559 615.794 353.237 643.1 380.249C670.13 407.244 690.251 438.848 704.638 472.178L704.638 473.041C719.284 508.097 726.763 545.155 726.763 582.506C726.763 596.297 715.847 606.929 702.617 606.929M330.039 845.399L330.039 845.399C312.785 838.201 296.394 829.019 281.731 819.249C266.791 808.323 252.404 797.121 239.761 784.487L239.761 784.193C226.531 771.265 214.459 756.905 204.683 741.957L204.683 741.681C194.044 726.164 185.132 710.354 178.241 693.697C173.059 681.063 178.811 666.978 191.471 661.8C203.543 656.639 217.913 662.387 223.077 674.728C228.552 688.519 235.737 702.31 244.356 714.962L244.356 714.375C252.991 727.303 263.043 738.799 273.682 750.001C284.322 760.633 296.394 770.696 309.33 778.739C321.403 787.646 335.203 794.532 349.003 800.28C361.076 806.028 367.121 820.112 362.233 832.471C356.481 845.105 342.682 850.283 330.039 845.399M696.002 327.95L696.002 327.95L695.139 327.38C662.375 294.344 622.702 267.901 578.989 249.243C537.019 232.276 490.162 222.23 441.284 222.23C392.129 222.23 345.549 232.276 303.303 249.243C259.313 267.901 219.64 294.914 186.583 327.95L186.289 327.95L186.583 327.95C153.232 361.849 126.496 400.927 108.084 445.182L107.514 446.615C90.26 488.558 81.072 534.816 81.072 582.506C81.072 631.646 90.554 677.887 108.084 720.416C126.496 764.085 152.938 803.732 186.583 836.492C251.834 902.289 341.524 942.506 441.284 942.506C490.162 942.506 537.019 932.443 578.989 915.493C623.272 896.817 662.651 870.392 696.002 836.492L698.023 834.766C730.217 802.593 756.089 763.222 774.207 720.416L775.071 718.121C791.737 676.178 801.513 630.783 801.513 582.506C801.513 533.676 791.737 486.832 774.207 445.182C756.089 400.357 729.06 360.71 696.002 327.95M955.038 125.693L780.235 300.661C808.422 334.854 831.98 372.482 848.958 413.855C870.512 465.86 882.291 523.044 882.291 582.506C882.291 641.398 870.512 696.856 849.804 748.861L848.958 751.157C826.816 804.026 794.898 852.009 754.932 892.226L752.929 894.228C712.963 934.738 663.808 967.499 610.043 989.903C557.728 1011.461 500.801 1023.802 441.284 1023.802C319.676 1023.802 209.295 973.816 129.363 894.228C88.55 853.718 56.063 805.165 33.351 751.157C12.073 698.582 0 641.692 0 582.506C0 523.907 12.073 467.293 32.764 415.874L33.351 413.855C55.769 359.554 88.55 310.724 129.363 270.49C170.192 229.704 218.483 197.237 272.542 175.109C324.564 153.275 381.784 141.78 441.301 141.78C500.801 141.78 558.021 153.275 610.043 175.109C651.442 192.059 689.387 215.343 723.326 243.495L898.406 68.527C914.209 53.01 939.511 53.01 955.038 68.527C971.135 84.32 971.135 109.9 955.038 125.693" />
    <glyph glyph-name="icon-selectall"
      unicode="&#xE032;"
      horiz-adv-x="1097.142857142857" d=" M256 914.609C256 934.656 272.191 950.857 292.248 950.857L951.181 950.857C971.228 950.857 987.429 934.666 987.429 914.609L987.429 255.677C987.429 235.63 971.238 219.429 951.181 219.429L292.248 219.429C272.201 219.429 256 235.619 256 255.677L256 914.609zM182.857 914.609L182.857 255.677C182.857 195.214 231.815 146.286 292.248 146.286L951.181 146.286C1011.644 146.286 1060.571 195.244 1060.571 255.677L1060.571 914.609C1060.571 975.072 1011.613 1024 951.181 1024L292.248 1024C231.785 1024 182.857 975.042 182.857 914.609z M804.895 73.143L145.962 73.143C125.915 73.143 109.714 89.334 109.714 109.391L109.714 768.323C109.714 788.521 93.341 804.895 73.143 804.895C52.945 804.895 36.571 788.521 36.571 768.323L36.571 109.391C36.571 48.928 85.53 0 145.962 0L804.895 0C825.093 0 841.466 16.374 841.466 36.571C841.466 56.769 825.093 73.143 804.895 73.143z M466.363 607.136C453.053 622.327 429.947 623.852 414.756 610.541C399.564 597.23 398.04 574.125 411.351 558.933L544.347 407.149C558.879 390.564 584.675 390.516 599.269 407.047L831.988 670.653C845.355 685.795 843.917 708.906 828.775 722.273C813.634 735.641 790.523 734.202 777.155 719.061L571.956 486.626L466.363 607.136z" />
    <glyph glyph-name="icon-setting"
      unicode="&#xE033;"
      horiz-adv-x="1024" d=" M992 403.2L902.4 518.4L985.6 627.2C992 633.6 992 646.4 992 659.2L985.6 678.4C960 742.4 921.6 793.6 883.2 838.4L876.8 844.8C870.4 857.6 857.6 864 844.8 864L710.4 851.2L652.8 966.4C652.8 979.2 640 985.6 627.2 985.6L620.8 985.6C563.2 998.4 505.6 992 460.8 985.6C448 985.6 428.8 985.6 416 985.6H403.2C390.4 985.6 377.6 979.2 371.2 966.4L320 851.2L185.6 864C172.8 864 160 857.6 153.6 844.8L153.6 838.4C108.8 787.2 70.4 729.6 51.2 665.6L44.8 652.8C38.4 640 38.4 627.2 44.8 620.8L121.6 518.4L38.4 416C32 409.6 32 396.8 32 384L38.4 364.8C57.6 300.8 96 243.2 134.4 192L147.2 179.2C153.6 172.8 166.4 166.4 172.8 172.8L320 192L377.6 57.6C384 44.8 396.8 38.4 409.6 38.4L416 38.4C448 32 486.4 32 518.4 32C544 32 569.6 32 601.6 38.4H608C620.8 38.4 633.6 44.8 640 57.6L704 192L857.6 172.8C864 172.8 876.8 172.8 883.2 179.2L896 192C940.8 243.2 972.8 300.8 992 352L998.4 364.8C998.4 377.6 998.4 396.8 992 403.2zM844.8 243.2L844.8 243.2L684.8 256C672 256 659.2 249.6 652.8 236.8L588.8 102.4C569.6 96 544 96 518.4 96C492.8 96 460.8 96 428.8 102.4L364.8 236.8C364.8 249.6 352 256 332.8 256L179.2 236.8L179.2 236.8C147.2 275.2 115.2 332.8 96 384L96 384L179.2 492.8C192 512 192 524.8 185.6 537.6L108.8 646.4C128 704 160 748.8 204.8 800C204.8 800 204.8 800 204.8 800L339.2 787.2C352 787.2 364.8 793.6 371.2 806.4L428.8 921.6C441.6 921.6 454.4 921.6 473.6 921.6C518.4 928 563.2 928 614.4 921.6L672 806.4C678.4 793.6 691.2 787.2 704 787.2L838.4 800C838.4 800 838.4 800 838.4 800C876.8 761.6 908.8 716.8 934.4 659.2L934.4 652.8L851.2 537.6C832 524.8 832 512 838.4 499.2L928 377.6C915.2 332.8 883.2 281.6 844.8 243.2zM563.2 710.4C544 716.8 524.8 716.8 512 716.8C460.8 716.8 409.6 697.6 377.6 672C339.2 640 307.2 595.2 300.8 550.4C288 492.8 300.8 428.8 332.8 384C364.8 339.2 409.6 307.2 460.8 294.4C480 288 492.8 288 512 288C569.6 288 614.4 307.2 646.4 339.2C684.8 371.2 716.8 416 723.2 460.8C736 512 729.6 569.6 691.2 620.8C665.6 665.6 620.8 691.2 563.2 710.4zM659.2 473.6C652.8 441.6 633.6 416 601.6 390.4C576 364.8 550.4 352 512 352C499.2 352 492.8 352 486.4 352C486.4 352 480 352 480 352C441.6 364.8 409.6 384 390.4 416C364.8 454.4 358.4 499.2 364.8 537.6C371.2 569.6 390.4 595.2 416 620.8C441.6 640 480 652.8 512 652.8C524.8 652.8 531.2 652.8 537.6 652.8C537.6 652.8 544 652.8 544 652.8C588.8 640 620.8 620.8 640 588.8C659.2 550.4 672 505.6 659.2 473.6z" />
    <glyph glyph-name="icon-shear"
      unicode="&#xE034;"
      horiz-adv-x="1024" d=" M759.467 110.933C785.067 110.933 810.667 119.467 827.733 136.533C844.8 153.6 853.333 179.2 853.333 204.8C853.333 230.4 844.8 256 827.733 273.067C810.667 290.133 785.067 298.667 759.467 298.667S708.267 290.133 691.2 273.067C674.133 247.467 657.067 230.4 657.067 204.8C657.067 179.2 665.6 153.6 682.667 136.533C708.267 119.467 733.867 110.933 759.467 110.933L759.467 110.933zM273.067 145.067C298.667 145.067 315.733 153.6 332.8 170.667C349.867 187.733 358.4 204.8 358.4 230.4C366.933 256 358.4 273.067 341.333 290.133C324.267 307.2 298.667 315.733 273.067 315.733C247.467 315.733 230.4 307.2 213.333 290.133C196.267 273.067 187.733 256 187.733 230.4C187.733 204.8 196.267 187.733 213.333 170.667C230.4 153.6 247.467 145.067 273.067 145.067L273.067 145.067zM750.933 401.067C759.467 392.533 776.533 392.533 802.133 384C827.733 375.467 844.8 366.933 861.867 349.867C878.933 332.8 904.533 315.733 913.067 290.133C930.133 273.067 938.667 238.933 938.667 196.267C938.667 145.067 921.6 110.933 896 85.333C870.4 59.733 836.267 42.667 802.133 34.133C768 25.6 733.867 25.6 691.2 42.667C657.067 51.2 622.933 76.8 605.867 110.933C580.267 153.6 571.733 187.733 571.733 230.4C571.733 273.067 580.267 315.733 588.8 358.4C588.8 384 588.8 401.067 588.8 409.6C580.267 418.133 580.267 426.667 571.733 435.2C571.733 435.2 563.2 443.733 554.667 452.267C554.667 460.8 546.133 469.333 537.6 477.867C529.067 486.4 529.067 494.933 520.533 503.467C512 494.933 503.467 486.4 503.467 477.867C494.933 469.333 486.4 469.333 486.4 452.267C477.867 443.733 469.333 435.2 460.8 426.667C452.267 418.133 443.733 401.067 443.733 392.533S443.733 366.933 443.733 358.4C443.733 349.867 443.733 341.333 452.267 315.733C452.267 298.667 452.267 273.067 452.267 247.467S452.267 196.267 443.733 170.667C435.2 145.067 418.133 119.467 401.067 93.867C375.467 59.733 341.333 42.667 307.2 34.133C273.067 25.6 238.933 25.6 204.8 42.667C170.667 51.2 145.067 76.8 119.467 102.4C93.867 128 85.333 162.133 85.333 196.267C85.333 230.4 93.867 264.533 102.4 290.133C119.467 315.733 136.533 332.8 153.6 349.867C179.2 366.933 196.267 375.467 221.867 384C247.467 392.533 264.533 401.067 281.6 409.6C315.733 426.667 341.333 435.2 349.867 443.733C358.4 452.267 375.467 469.333 384 477.867C392.533 486.4 401.067 494.933 409.6 512C418.133 520.533 426.667 529.067 435.2 537.6C443.733 546.133 452.267 563.2 460.8 580.267C452.267 588.8 443.733 597.333 435.2 605.867C426.667 614.4 418.133 622.933 409.6 640C401.067 648.533 392.533 665.6 384 682.667C366.933 699.733 358.4 716.8 341.333 733.867C332.8 750.933 315.733 776.533 307.2 793.6C298.667 810.667 290.133 836.267 281.6 853.333C273.067 870.4 264.533 878.933 264.533 887.467C256 904.533 256 930.133 247.467 955.733C247.467 981.333 247.467 998.4 264.533 1015.467C281.6 1024 290.133 1024 298.667 1015.467C307.2 1006.933 315.733 998.4 324.267 981.333C324.267 972.8 341.333 955.733 358.4 921.6C375.467 887.467 401.067 853.333 426.667 819.2C452.267 776.533 486.4 725.333 520.533 674.133C546.133 716.8 571.733 759.467 597.333 793.6C614.4 827.733 640 853.333 657.067 887.467C665.6 921.6 674.133 938.667 682.667 947.2C691.2 964.267 708.267 981.333 716.8 998.4C725.333 1006.933 733.867 1015.467 733.867 1024C733.867 1024 742.4 1024 750.933 1024C759.467 1015.467 768 1015.467 768 1006.933C768 998.4 776.533 989.867 768 972.8C768 955.733 768 938.667 759.467 904.533C768 887.467 759.467 870.4 750.933 853.333C742.4 836.267 733.867 819.2 725.333 802.133C716.8 785.067 708.267 768 699.733 750.933S682.667 725.333 674.133 716.8C674.133 708.267 665.6 699.733 648.533 682.667C640 665.6 631.467 657.067 614.4 640C605.867 622.933 588.8 605.867 580.267 588.8C588.8 571.733 597.333 563.2 605.867 546.133C614.4 537.6 622.933 529.067 622.933 512C631.467 512 631.467 503.467 640 494.933C648.533 477.867 665.6 460.8 682.667 443.733C708.267 426.667 733.867 409.6 750.933 401.067L750.933 401.067z" />
    <glyph glyph-name="icon-telphone"
      unicode="&#xE035;"
      horiz-adv-x="1024" d=" M607.181 673.885C631.521 673.885 643.691 684.544 643.691 705.879L643.691 778.932L374.327 778.932L374.327 705.879C374.327 684.544 385.003 673.885 406.321 673.885L607.181 673.885zM633.686 250.762C667.007 281.698 683.742 322.169 683.742 372.174C683.742 422.18 666.99 462.634 633.686 493.604C605.117 524.54 565.804 540.034 515.866 540.034C465.877 540.034 426.565 524.557 398.012 493.604C364.624 462.651 348.023 422.18 348.023 372.174C348.023 322.169 364.624 281.732 398.012 250.762C426.565 219.842 465.877 204.348 515.866 204.348C565.838 204.348 605.117 219.825 633.686 250.762L633.686 250.762zM109.545 80.485C88.277 80.485 70.031 88.039 54.756 103.28C42.636 115.45 36.493 142.845 36.493 185.447C36.493 285.895 63.887 366.517 118.66 427.367C164.334 479.134 191.712 512.589 200.844 527.83C219.107 561.285 228.239 593.245 228.239 623.695C228.239 663.226 241.953 684.544 269.347 687.582L269.347 778.898C208.347 775.843 178.049 757.58 178.049 724.092L178.049 669.336C178.049 632.827 170.445 606.926 155.203 591.701C146.088 582.586 120.204 578.037 77.635 578.037C25.8 578.037 0 596.3 0 632.827C0 727.147 25.8 800.166 77.635 851.95C129.353 903.668 191.746 932.573 264.765 938.667L753.303 938.667C826.356 932.607 888.766 903.668 940.5 851.95C992.218 800.166 1018.118 727.164 1018.118 632.827C1018.118 596.3 992.218 578.037 940.5 578.037C897.897 578.037 871.997 582.586 862.915 591.701C847.489 606.943 840.087 632.827 840.087 669.336L840.087 724.092C840.087 757.563 809.637 775.843 748.788 778.898L748.788 687.582C776.182 684.544 789.897 663.226 789.897 623.695C789.897 593.245 798.961 561.285 817.291 527.83C826.356 512.589 853.75 479.134 899.408 427.367C954.197 366.517 981.592 285.861 981.592 185.447C981.592 142.845 975.516 115.45 963.363 103.28C948.104 88.005 929.858 80.485 908.54 80.485L109.545 80.485L109.545 80.485z" />
    <glyph glyph-name="icon-telphone_left"
      unicode="&#xE036;"
      horiz-adv-x="731.4285714285713" d=" M480.558 339.591C464.863 338.839 451.784 334.944 441.336 331.852C421.244 325.787 405.375 321.02 345.935 448.332L338.828 463.622C280.333 588.9 293.665 604.037 298.691 609.76C301.402 612.818 304.349 615.705 307.422 618.712C311.991 623.256 316.735 627.954 321.415 633.285L321.446 633.285C326.127 638.598 330.744 644.492 335.093 651.172C365.948 698.512 348.047 783.215 334.636 829.462C321.068 876.29 297.951 934.53 264.843 946.096C243.648 953.459 177.683 960.019 127.162 902.719C107.968 880.92 93.502 852.458 84.173 818.033C46.4 678.66 112.255 507.938 181.623 359.391C251.022 210.759 338.576 53.072 461.286 10.31C545.956 -19.279 598.478 21.535 622.194 48.459C641.215 70.037 652.372 94.057 656.169 108.049C664.301 138.117 648.984 182.126 610.502 238.828C584.264 277.473 532.482 341.965 480.558 339.591" />
    <glyph glyph-name="icon-telphone_right"
      unicode="&#xE037;"
      horiz-adv-x="731.4285714285713" d=" M-1211.987 339.591C-1196.292 338.839 -1183.212 334.944 -1172.765 331.852C-1152.673 325.787 -1136.804 321.02 -1077.364 448.332L-1070.257 463.622C-1011.762 588.9 -1025.093 604.037 -1030.12 609.76C-1032.83 612.818 -1035.777 615.705 -1038.85 618.712C-1043.42 623.256 -1048.163 627.954 -1052.844 633.285L-1052.875 633.285C-1057.555 638.598 -1062.172 644.492 -1066.522 651.172C-1097.377 698.512 -1079.475 783.215 -1066.065 829.462C-1052.497 876.29 -1029.379 934.53 -996.271 946.096C-975.076 953.459 -909.112 960.019 -858.59 902.719C-839.397 880.92 -824.931 852.458 -815.602 818.033C-777.829 678.66 -843.683 507.938 -913.051 359.391C-982.451 210.759 -1070.004 53.072 -1192.715 10.31C-1277.384 -19.279 -1329.907 21.535 -1353.623 48.459C-1372.643 70.037 -1383.8 94.057 -1387.598 108.049C-1395.729 138.117 -1380.412 182.126 -1341.93 238.828C-1315.693 277.473 -1263.911 341.965 -1211.987 339.591" />
    <glyph glyph-name="icon-theme_color"
      unicode="&#xE038;"
      horiz-adv-x="1024" d=" M825.6 633.6C825.6 652.8 832 678.4 832 704C832 883.2 691.2 1024 512 1024S192 883.2 192 704C192 678.4 198.4 652.8 198.4 633.6C102.4 576 32 473.6 32 352C32 172.8 172.8 32 352 32C409.6 32 467.2 51.2 512 76.8C556.8 51.2 614.4 32 672 32C851.2 32 992 172.8 992 352C992 473.6 921.6 576 825.6 633.6zM256 704C256 844.8 371.2 960 512 960S768 844.8 768 704C768 684.8 768 672 761.6 659.2C729.6 665.6 704 672 672 672C614.4 672 556.8 652.8 512 627.2C467.2 652.8 409.6 672 352 672C320 672 288 665.6 262.4 659.2C256 672 256 684.8 256 704zM608 352C608 268.8 569.6 198.4 512 153.6C454.4 198.4 416 268.8 416 352C416 371.2 416 384 422.4 396.8C448 390.4 480 384 512 384S576 390.4 601.6 396.8C608 384 608 371.2 608 352zM512 448C486.4 448 460.8 454.4 441.6 460.8C460.8 499.2 480 524.8 512 550.4C544 524.8 569.6 492.8 582.4 460.8C563.2 454.4 537.6 448 512 448zM384 486.4C339.2 512 300.8 550.4 281.6 595.2C307.2 601.6 326.4 608 352 608C390.4 608 422.4 601.6 454.4 588.8C422.4 556.8 396.8 524.8 384 486.4zM569.6 588.8C601.6 601.6 633.6 608 672 608C697.6 608 723.2 601.6 742.4 595.2C723.2 550.4 684.8 512 640 486.4C627.2 524.8 601.6 556.8 569.6 588.8zM352 96C211.2 96 96 211.2 96 352C96 448 147.2 524.8 224 569.6C256 505.6 300.8 454.4 364.8 422.4C358.4 396.8 358.4 377.6 358.4 352C358.4 262.4 396.8 179.2 460.8 115.2C422.4 102.4 390.4 96 352 96zM672 96C633.6 96 601.6 102.4 569.6 115.2C633.6 172.8 672 256 672 352C672 377.6 665.6 403.2 665.6 422.4C729.6 454.4 774.4 505.6 806.4 569.6C883.2 524.8 934.4 441.6 934.4 352C928 211.2 812.8 96 672 96z" />
    <glyph glyph-name="icon-up_down"
      unicode="&#xE039;"
      horiz-adv-x="585.1428571428571" d=" M117.029 716.8L292.571 855.771L468.114 716.8C482.743 709.486 497.371 702.171 512 702.171C533.943 702.171 555.886 709.486 570.514 731.429C592.457 760.686 592.457 811.886 555.886 833.829L336.457 1009.371C307.2 1031.314 270.629 1031.314 248.686 1009.371L29.257 833.829C0 811.886 -7.314 760.686 14.629 731.429C43.886 702.171 87.771 694.857 117.029 716.8zM468.114 351.086L292.571 212.114L117.029 351.086C87.771 373.029 43.886 373.029 14.629 336.457C-7.314 307.2 -7.314 256 29.257 234.057L248.686 58.514C263.314 51.2 277.943 43.886 292.571 43.886S321.829 51.2 336.457 58.514L555.886 234.057C585.143 256 592.457 307.2 570.514 336.457C541.257 373.029 497.371 373.029 468.114 351.086z" />
    <glyph glyph-name="icon-user"
      unicode="&#xE03A;"
      horiz-adv-x="1024" d=" M908.8 32H96V64C96 243.2 204.8 390.4 364.8 448C281.6 499.2 224 588.8 224 691.2C224 844.8 352 972.8 505.6 972.8S787.2 844.8 787.2 691.2C787.2 588.8 729.6 492.8 646.4 448C800 390.4 908.8 236.8 908.8 64V32zM160 96H844.8C825.6 268.8 678.4 409.6 499.2 409.6C320 409.6 179.2 268.8 160 96zM505.6 908.8C384 908.8 288 812.8 288 691.2C288 569.6 384 473.6 505.6 473.6S723.2 569.6 723.2 691.2C723.2 812.8 627.2 908.8 505.6 908.8z" />
    <glyph glyph-name="icon-web_shear"
      unicode="&#xE03B;"
      horiz-adv-x="1024" d=" M219.948 171.082L948.004 899.137L896.284 950.857L168.229 222.802z M256 197.486L256 987.429L182.857 987.429L182.857 197.486z M182.857 182.857L972.8 182.857L972.8 256L182.857 256z M51.2 768L841.143 768L841.143 841.143L51.2 841.143z M841.143 51.2L841.143 841.143L768 841.143L768 51.2z" />
  </font>
</defs>
</svg>
